<?xml version="1.0" encoding="utf-8"?>
<!-- Generator: Adobe Illustrator 26.2.1, SVG Export Plug-In . SVG Version: 6.00 Build 0)  -->
<svg version="1.1" xmlns="http://www.w3.org/2000/svg" xmlns:xlink="http://www.w3.org/1999/xlink" x="0px" y="0px"
	 viewBox="0 0 499.1 515.1" style="enable-background:new 0 0 499.1 515.1;" xml:space="preserve">
<style type="text/css">
	.st0{fill:#FFFFFF;}
	.st1{fill:#EBB300;}
</style>
<g id="Calque_2">
	<polygon class="st0" points="490.3,129.4 468.1,270.5 30.2,249.7 58.2,71.9 	"/>
</g>
<g id="Layer_1">
	<g>
		<path class="st1" d="M287.5,208c0,10.1,9.7,12.6,20.6,12.6c11.4,0,31.3-4.2,31.3-30.7c-5.7,4-21.6,4.2-32,5.7
			C297,197.3,287.5,198.2,287.5,208z"/>
		<path class="st1" d="M144.2,137.7h14.2v13.7h0.6c7.5-11,29.2-16,41.8-16c31.5,0,50,15.8,50,40.2V236h-29.6v-55.5
			c0-16.2-16.7-24.5-30.4-24.5c-16,0-30.9,8.5-30.9,28.5V236h-29.6v-80.3H84.8V236H57.2v-80.3H45L0,441.4l429.6,73.7l46.1-292.9
			c-10.2,10.7-26.4,16.4-46.3,16.4c-36.2,0-60.6-20.9-60.6-50.4c0-30.6,22.3-53.3,61.3-53.3c25,0,48.3,9.5,54.8,29l14.2-90.4L69.5,0
			L47.8,137.7h9.4v-7.6c0-17.3,15.6-37.4,49.6-37.4c22.7,0,50.7,6,50.7,36h-26c0-10.7-16.7-14.7-24.7-14.7c-11.3,0-22,9.6-22,17.8
			v5.9h45.5L144.2,137.7L144.2,137.7z M367.1,237.3h-28.9v-10.8c-10.7,8.9-27.7,12.2-42.6,12.2c-23.2,0-41.8-9.3-41.8-29.5
			c0-22.3,20.9-27.6,41.8-29.9c20.6-2.5,39.9-1.9,39.9-12.9c0-11.6-10-13.3-21.8-13.3c-12.8,0-21.1,4.2-22.3,14.8h-33.7
			c1.9-25.3,28.1-32.9,55.6-32.9c24.4,0,53.8,8.4,53.8,32L367.1,237.3L367.1,237.3z"/>
		<path class="st1" d="M429.9,155.4c-21.1,0-28.1,17.5-28.1,32c0,14.1,6.7,31,27.4,31c15.3,0,24.2-8,26.2-20h24l4.1-26.1h-29.3
			C452.2,161.3,443.6,155.4,429.9,155.4z"/>
	</g>
</g>
</svg>
