<?xml version="1.0" encoding="UTF-8"?><svg xmlns="http://www.w3.org/2000/svg" xmlns:xlink="http://www.w3.org/1999/xlink" viewBox="0 0 228.37 180.93"><defs><style>.e{fill:#e8b346;}.f{fill:#d77f40;}.g{fill:#582c18;}</style><symbol id="a" viewBox="0 0 696.51 551.81"><g><path class="e" d="M171.31,379.01h-54.38c-4.97,0-9,4.03-9,9v108.24c0,4.97,4.03,9,9,9h54.38c4.97,0,9-4.03,9-9v-108.24c0-4.97-4.03-9-9-9Zm-3.56,95.24c0,3.82-3.1,6.92-6.92,6.92h-42.74c-3.82,0-6.92-3.1-6.92-6.92v-84.86c0-3.82,3.1-6.92,6.92-6.92h42.74c3.82,0,6.92,3.1,6.92,6.92v84.86Z"/><path class="e" d="M475.26,366.62v-54.38c0-4.97-4.03-9-9-9h-108.24c-4.97,0-9,4.03-9,9v54.38c0,4.97,4.03,9,9,9h108.24c4.97,0,9-4.03,9-9Zm-95.24-3.56c-3.82,0-6.92-3.1-6.92-6.92v-42.74c0-3.82,3.1-6.92,6.92-6.92h84.86c3.82,0,6.92,3.1,6.92,6.92v42.74c0,3.82-3.1,6.92-6.92,6.92h-84.86Z"/><path class="e" d="M648.18,80.52h-54.38c-4.97,0-9,4.03-9,9v108.24c0,4.97,4.03,9,9,9h54.38c4.97,0,9-4.03,9-9V89.52c0-4.97-4.03-9-9-9Zm6.75,112.94c0,6.12-4.96,11.08-11.08,11.08h-45.72c-6.12,0-11.08-4.96-11.08-11.08V93.82c0-6.12,4.96-11.08,11.08-11.08h45.72c6.12,0,11.08,4.96,11.08,11.08v99.64Z"/><path class="f" d="M9.84,224.06H62.54c5.43,0,9.84,4.41,9.84,9.84v106.56c0,5.43-4.41,9.84-9.84,9.84H9.84c-5.43,0-9.84-4.41-9.84-9.84v-106.56c0-5.43,4.41-9.84,9.84-9.84Zm24.9,114c0,2.7,2.19,4.89,4.89,4.89h21.06c2.7,0,4.89-2.19,4.89-4.89v-44.01c0-2.7-2.19-4.89-4.89-4.89h-21.06c-2.7,0-4.89,2.19-4.89,4.89v44.01Z"/><path class="f" d="M391.56,116.63h-52.7c-5.43,0-9.84,4.41-9.84,9.84v106.56c0,5.43,4.41,9.84,9.84,9.84h52.7c5.43,0,9.84-4.41,9.84-9.84V126.47c0-5.43-4.41-9.84-9.84-9.84Zm-24.9,114c0,2.7-2.19,4.89-4.89,4.89h-21.06c-2.7,0-4.89-2.19-4.89-4.89v-44.01c0-2.7,2.19-4.89,4.89-4.89h21.06c2.7,0,4.89,2.19,4.89,4.89v44.01Z"/><path class="f" d="M515.76,258.88h-54.38c-4.97,0-9,4.03-9,9v108.24c0,4.97,4.03,9,9,9h54.38c4.97,0,9-4.03,9-9v-108.24c0-4.97-4.03-9-9-9Zm-3.56,95.24c0,3.82-3.1,6.92-6.92,6.92h-42.74c-3.82,0-6.92-3.1-6.92-6.92v-84.86c0-3.82,3.1-6.92,6.92-6.92h42.74c3.82,0,6.92,3.1,6.92,6.92v84.86Z"/><path class="f" d="M203.4,425.57h-54.38c-4.97,0-9,4.03-9,9v108.24c0,4.97,4.03,9,9,9h54.38c4.97,0,9-4.03,9-9v-108.24c0-4.97-4.03-9-9-9Zm6.75,112.94c0,6.12-4.96,11.08-11.08,11.08h-45.72c-6.12,0-11.08-4.96-11.08-11.08v-99.64c0-6.12,4.96-11.08,11.08-11.08h45.72c6.12,0,11.08,4.96,11.08,11.08v99.64Z"/><path class="f" d="M687.51,4.5h-54.38c-4.97,0-9,4.03-9,9V121.74c0,4.97,4.03,9,9,9h54.38c4.97,0,9-4.03,9-9V13.5c0-4.97-4.03-9-9-9Zm.34,36.16c0,1.9-1.54,3.44-3.44,3.44h-11.85c-1.9,0-3.44-1.54-3.44-3.44V14.87c0-1.9,1.54-3.44,3.44-3.44h11.85c1.9,0,3.44,1.54,3.44,3.44v25.79Z"/><path class="g" d="M627.61,300.56h52.7c5.43,0,9.84-4.41,9.84-9.84v-106.56c0-5.43-4.41-9.84-9.84-9.84h-52.7c-5.43,0-9.84,4.41-9.84,9.84v106.56c0,5.43,4.41,9.84,9.84,9.84Zm24.9-114c0-2.7,2.19-4.89,4.89-4.89h21.06c2.7,0,4.89,2.19,4.89,4.89v44.01c0,2.7-2.19,4.89-4.89,4.89h-21.06c-2.7,0-4.89-2.19-4.89-4.89v-44.01Z"/><path class="g" d="M487.06,87.76h-52.7c-5.43,0-9.84,4.41-9.84,9.84v106.56c0,5.43,4.41,9.84,9.84,9.84h52.7c5.43,0,9.84-4.41,9.84-9.84V97.6c0-5.43-4.41-9.84-9.84-9.84Zm-24.9,114c0,2.7-2.19,4.89-4.89,4.89h-21.06c-2.7,0-4.89-2.19-4.89-4.89v-44.01c0-2.7,2.19-4.89,4.89-4.89h21.06c2.7,0,4.89,2.19,4.89,4.89v44.01Z"/><path class="g" d="M114.07,298.48H59.69c-4.97,0-9,4.03-9,9v108.24c0,4.97,4.03,9,9,9h54.38c4.97,0,9-4.03,9-9v-108.24c0-4.97-4.03-9-9-9Zm-3.56,95.24c0,3.82-3.1,6.92-6.92,6.92H60.84c-3.82,0-6.92-3.1-6.92-6.92v-84.86c0-3.82,3.1-6.92,6.92-6.92h42.74c3.82,0,6.92,3.1,6.92,6.92v84.86Z"/><path class="g" d="M418.01,286.09v-54.38c0-4.97-4.03-9-9-9h-108.24c-4.97,0-9,4.03-9,9v54.38c0,4.97,4.03,9,9,9h108.24c4.97,0,9-4.03,9-9Zm-95.24-3.56c-3.82,0-6.92-3.1-6.92-6.92v-42.74c0-3.82,3.1-6.92,6.92-6.92h84.86c3.82,0,6.92,3.1,6.92,6.92v42.74c0,3.82-3.1,6.92-6.92,6.92h-84.86Z"/><path class="g" d="M166.65,87.76h-54.38c-4.97,0-9,4.03-9,9v108.24c0,4.97,4.03,9,9,9h54.38c4.97,0,9-4.03,9-9V96.76c0-4.97-4.03-9-9-9Zm6.75,112.94c0,6.12-4.96,11.08-11.08,11.08h-45.72c-6.12,0-11.08-4.96-11.08-11.08V101.05c0-6.12,4.96-11.08,11.08-11.08h45.72c6.12,0,11.08,4.96,11.08,11.08v99.64Z"/><path class="g" d="M590.93,0h-54.38c-4.97,0-9,4.03-9,9V117.24c0,4.97,4.03,9,9,9h54.38c4.97,0,9-4.03,9-9V9c0-4.97-4.03-9-9-9Zm6.75,112.94c0,6.12-4.96,11.08-11.08,11.08h-45.72c-6.12,0-11.08-4.96-11.08-11.08V13.3c0-6.12,4.96-11.08,11.08-11.08h45.72c6.12,0,11.08,4.96,11.08,11.08V112.94Z"/><path class="g" d="M337.12,494.93h54.38c4.97,0,9-4.03,9-9v-108.24c0-4.97-4.03-9-9-9h-54.38c-4.97,0-9,4.03-9,9v108.24c0,4.97,4.03,9,9,9Zm-.34-36.16c0-1.9,1.54-3.44,3.44-3.44h11.85c1.9,0,3.44,1.54,3.44,3.44v25.79c0,1.9-1.54,3.44-3.44,3.44h-11.85c-1.9,0-3.44-1.54-3.44-3.44v-25.79Z"/><path class="g" d="M231.76,258.88h-54.38c-4.97,0-9,4.03-9,9v108.24c0,4.97,4.03,9,9,9h54.38c4.97,0,9-4.03,9-9v-108.24c0-4.97-4.03-9-9-9Zm.34,36.16c0,1.9-1.54,3.44-3.44,3.44h-11.85c-1.9,0-3.44-1.54-3.44-3.44v-25.79c0-1.9,1.54-3.44,3.44-3.44h11.85c1.9,0,3.44,1.54,3.44,3.44v25.79Z"/><path class="e" d="M289,339.41h-54.38c-4.97,0-9,4.03-9,9v108.24c0,4.97,4.03,9,9,9h54.38c4.97,0,9-4.03,9-9v-108.24c0-4.97-4.03-9-9-9Zm.34,36.16c0,1.9-1.54,3.44-3.44,3.44h-11.85c-1.9,0-3.44-1.54-3.44-3.44v-25.79c0-1.9,1.54-3.44,3.44-3.44h11.85c1.9,0,3.44,1.54,3.44,3.44v25.79Z"/><path class="e" d="M544.31,168.28h-52.7c-5.43,0-9.84,4.41-9.84,9.84v106.56c0,5.43,4.41,9.84,9.84,9.84h52.7c5.43,0,9.84-4.41,9.84-9.84v-106.56c0-5.43-4.41-9.84-9.84-9.84Zm-24.9,114c0,2.7-2.19,4.89-4.89,4.89h-21.06c-2.7,0-4.89-2.19-4.89-4.89v-44.01c0-2.7,2.19-4.89,4.89-4.89h21.06c2.7,0,4.89,2.19,4.89,4.89v44.01Z"/><path class="f" d="M252.82,277.11h-54.38c-4.97,0-9-4.03-9-9v-108.24c0-4.97,4.03-9,9-9h54.38c4.97,0,9,4.03,9,9v108.24c0,4.97-4.03,9-9,9Zm-3.56-95.24c0-3.82-3.1-6.92-6.92-6.92h-42.74c-3.82,0-6.92,3.1-6.92,6.92v84.86c0,3.82,3.1,6.92,6.92,6.92h42.74c3.82,0,6.92-3.1,6.92-6.92v-84.86Z"/><path class="e" d="M114.07,150.88H59.69c-4.97,0-9,4.03-9,9v108.24c0,4.97,4.03,9,9,9h54.38c4.97,0,9-4.03,9-9v-108.24c0-4.97-4.03-9-9-9Zm6.75,112.94c0,6.12-4.96,11.08-11.08,11.08h-45.72c-6.12,0-11.08-4.96-11.08-11.08v-99.64c0-6.12,4.96-11.08,11.08-11.08h45.72c6.12,0,11.08,4.96,11.08,11.08v99.64Z"/></g></symbol></defs><g id="b"/><g id="c"><g id="d"><use width="696.51" height="551.81" transform="scale(.33)" xlink:href="#a"/></g></g></svg>