<?xml version="1.0" encoding="UTF-8"?><svg xmlns="http://www.w3.org/2000/svg" viewBox="0 0 191.74 151.91"><defs><style>.d{fill:#e8b346;}.e{fill:#d77f40;}.f{fill:#582c18;}</style></defs><g id="a"/><g id="b"><g id="c"><g><path class="d" d="M47.16,104.34h-14.97c-1.37,0-2.48,1.11-2.48,2.48v29.8c0,1.37,1.11,2.48,2.48,2.48h14.97c1.37,0,2.48-1.11,2.48-2.48v-29.8c0-1.37-1.11-2.48-2.48-2.48Zm-.98,26.22c0,1.05-.85,1.91-1.91,1.91h-11.77c-1.05,0-1.91-.85-1.91-1.91v-23.36c0-1.05,.85-1.91,1.91-1.91h11.77c1.05,0,1.91,.85,1.91,1.91v23.36Z"/><path class="d" d="M130.84,100.93v-14.97c0-1.37-1.11-2.48-2.48-2.48h-29.8c-1.37,0-2.48,1.11-2.48,2.48v14.97c0,1.37,1.11,2.48,2.48,2.48h29.8c1.37,0,2.48-1.11,2.48-2.48Zm-26.22-.98c-1.05,0-1.91-.85-1.91-1.91v-11.77c0-1.05,.85-1.91,1.91-1.91h23.36c1.05,0,1.91,.85,1.91,1.91v11.77c0,1.05-.85,1.91-1.91,1.91h-23.36Z"/><path class="d" d="M178.44,22.17h-14.97c-1.37,0-2.48,1.11-2.48,2.48v29.8c0,1.37,1.11,2.48,2.48,2.48h14.97c1.37,0,2.48-1.11,2.48-2.48V24.65c0-1.37-1.11-2.48-2.48-2.48Zm1.86,31.09c0,1.68-1.37,3.05-3.05,3.05h-12.59c-1.68,0-3.05-1.37-3.05-3.05V25.83c0-1.68,1.37-3.05,3.05-3.05h12.59c1.68,0,3.05,1.37,3.05,3.05v27.43Z"/><path class="e" d="M2.71,61.68h14.51c1.5,0,2.71,1.21,2.71,2.71v29.34c0,1.5-1.21,2.71-2.71,2.71H2.71c-1.5,0-2.71-1.21-2.71-2.71v-29.34c0-1.5,1.21-2.71,2.71-2.71Zm6.85,31.38c0,.74,.6,1.35,1.35,1.35h5.8c.74,0,1.35-.6,1.35-1.35v-12.12c0-.74-.6-1.35-1.35-1.35h-5.8c-.74,0-1.35,.6-1.35,1.35v12.12Z"/><path class="e" d="M107.79,32.11h-14.51c-1.5,0-2.71,1.21-2.71,2.71v29.34c0,1.5,1.21,2.71,2.71,2.71h14.51c1.5,0,2.71-1.21,2.71-2.71v-29.34c0-1.5-1.21-2.71-2.71-2.71Zm-6.85,31.38c0,.74-.6,1.35-1.35,1.35h-5.8c-.74,0-1.35-.6-1.35-1.35v-12.12c0-.74,.6-1.35,1.35-1.35h5.8c.74,0,1.35,.6,1.35,1.35v12.12Z"/><path class="e" d="M141.99,71.27h-14.97c-1.37,0-2.48,1.11-2.48,2.48v29.8c0,1.37,1.11,2.48,2.48,2.48h14.97c1.37,0,2.48-1.11,2.48-2.48v-29.8c0-1.37-1.11-2.48-2.48-2.48Zm-.98,26.22c0,1.05-.85,1.91-1.91,1.91h-11.77c-1.05,0-1.91-.85-1.91-1.91v-23.36c0-1.05,.85-1.91,1.91-1.91h11.77c1.05,0,1.91,.85,1.91,1.91v23.36Z"/><path class="e" d="M56,117.16h-14.97c-1.37,0-2.48,1.11-2.48,2.48v29.8c0,1.37,1.11,2.48,2.48,2.48h14.97c1.37,0,2.48-1.11,2.48-2.48v-29.8c0-1.37-1.11-2.48-2.48-2.48Zm1.86,31.09c0,1.68-1.37,3.05-3.05,3.05h-12.59c-1.68,0-3.05-1.37-3.05-3.05v-27.43c0-1.68,1.37-3.05,3.05-3.05h12.59c1.68,0,3.05,1.37,3.05,3.05v27.43Z"/><path class="e" d="M189.27,1.24h-14.97c-1.37,0-2.48,1.11-2.48,2.48v29.8c0,1.37,1.11,2.48,2.48,2.48h14.97c1.37,0,2.48-1.11,2.48-2.48V3.72c0-1.37-1.11-2.48-2.48-2.48Zm.09,9.95c0,.52-.42,.95-.95,.95h-3.26c-.52,0-.95-.42-.95-.95V4.09c0-.52,.42-.95,.95-.95h3.26c.52,0,.95,.42,.95,.95v7.1Z"/><path class="f" d="M172.78,82.74h14.51c1.5,0,2.71-1.21,2.71-2.71v-29.34c0-1.5-1.21-2.71-2.71-2.71h-14.51c-1.5,0-2.71,1.21-2.71,2.71v29.34c0,1.5,1.21,2.71,2.71,2.71Zm6.85-31.38c0-.74,.6-1.35,1.35-1.35h5.8c.74,0,1.35,.6,1.35,1.35v12.12c0,.74-.6,1.35-1.35,1.35h-5.8c-.74,0-1.35-.6-1.35-1.35v-12.12Z"/><path class="f" d="M134.09,24.16h-14.51c-1.5,0-2.71,1.21-2.71,2.71v29.34c0,1.5,1.21,2.71,2.71,2.71h14.51c1.5,0,2.71-1.21,2.71-2.71V26.87c0-1.5-1.21-2.71-2.71-2.71Zm-6.85,31.38c0,.74-.6,1.35-1.35,1.35h-5.8c-.74,0-1.35-.6-1.35-1.35v-12.12c0-.74,.6-1.35,1.35-1.35h5.8c.74,0,1.35,.6,1.35,1.35v12.12Z"/><path class="f" d="M31.4,82.17h-14.97c-1.37,0-2.48,1.11-2.48,2.48v29.8c0,1.37,1.11,2.48,2.48,2.48h14.97c1.37,0,2.48-1.11,2.48-2.48v-29.8c0-1.37-1.11-2.48-2.48-2.48Zm-.98,26.22c0,1.05-.85,1.91-1.91,1.91h-11.77c-1.05,0-1.91-.85-1.91-1.91v-23.36c0-1.05,.85-1.91,1.91-1.91h11.77c1.05,0,1.91,.85,1.91,1.91v23.36Z"/><path class="f" d="M115.08,78.76v-14.97c0-1.37-1.11-2.48-2.48-2.48h-29.8c-1.37,0-2.48,1.11-2.48,2.48v14.97c0,1.37,1.11,2.48,2.48,2.48h29.8c1.37,0,2.48-1.11,2.48-2.48Zm-26.22-.98c-1.05,0-1.91-.85-1.91-1.91v-11.77c0-1.05,.85-1.91,1.91-1.91h23.36c1.05,0,1.91,.85,1.91,1.91v11.77c0,1.05-.85,1.91-1.91,1.91h-23.36Z"/><path class="f" d="M45.88,24.16h-14.97c-1.37,0-2.48,1.11-2.48,2.48v29.8c0,1.37,1.11,2.48,2.48,2.48h14.97c1.37,0,2.48-1.11,2.48-2.48V26.64c0-1.37-1.11-2.48-2.48-2.48Zm1.86,31.09c0,1.68-1.37,3.05-3.05,3.05h-12.59c-1.68,0-3.05-1.37-3.05-3.05V27.82c0-1.68,1.37-3.05,3.05-3.05h12.59c1.68,0,3.05,1.37,3.05,3.05v27.43Z"/><path class="f" d="M162.68,0h-14.97c-1.37,0-2.48,1.11-2.48,2.48v29.8c0,1.37,1.11,2.48,2.48,2.48h14.97c1.37,0,2.48-1.11,2.48-2.48V2.48c0-1.37-1.11-2.48-2.48-2.48Zm1.86,31.09c0,1.68-1.37,3.05-3.05,3.05h-12.59c-1.68,0-3.05-1.37-3.05-3.05V3.66c0-1.68,1.37-3.05,3.05-3.05h12.59c1.68,0,3.05,1.37,3.05,3.05V31.09Z"/><path class="f" d="M92.81,136.25h14.97c1.37,0,2.48-1.11,2.48-2.48v-29.8c0-1.37-1.11-2.48-2.48-2.48h-14.97c-1.37,0-2.48,1.11-2.48,2.48v29.8c0,1.37,1.11,2.48,2.48,2.48Zm-.09-9.95c0-.52,.42-.95,.95-.95h3.26c.52,0,.95,.42,.95,.95v7.1c0,.52-.42,.95-.95,.95h-3.26c-.52,0-.95-.42-.95-.95v-7.1Z"/><path class="f" d="M63.8,71.27h-14.97c-1.37,0-2.48,1.11-2.48,2.48v29.8c0,1.37,1.11,2.48,2.48,2.48h14.97c1.37,0,2.48-1.11,2.48-2.48v-29.8c0-1.37-1.11-2.48-2.48-2.48Zm.09,9.95c0,.52-.42,.95-.95,.95h-3.26c-.52,0-.95-.42-.95-.95v-7.1c0-.52,.42-.95,.95-.95h3.26c.52,0,.95,.42,.95,.95v7.1Z"/><path class="d" d="M79.56,93.44h-14.97c-1.37,0-2.48,1.11-2.48,2.48v29.8c0,1.37,1.11,2.48,2.48,2.48h14.97c1.37,0,2.48-1.11,2.48-2.48v-29.8c0-1.37-1.11-2.48-2.48-2.48Zm.09,9.95c0,.52-.42,.95-.95,.95h-3.26c-.52,0-.95-.42-.95-.95v-7.1c0-.52,.42-.95,.95-.95h3.26c.52,0,.95,.42,.95,.95v7.1Z"/><path class="d" d="M149.85,46.33h-14.51c-1.5,0-2.71,1.21-2.71,2.71v29.34c0,1.5,1.21,2.71,2.71,2.71h14.51c1.5,0,2.71-1.21,2.71-2.71v-29.34c0-1.5-1.21-2.71-2.71-2.71Zm-6.85,31.38c0,.74-.6,1.35-1.35,1.35h-5.8c-.74,0-1.35-.6-1.35-1.35v-12.12c0-.74,.6-1.35,1.35-1.35h5.8c.74,0,1.35,.6,1.35,1.35v12.12Z"/><path class="e" d="M69.6,76.29h-14.97c-1.37,0-2.48-1.11-2.48-2.48v-29.8c0-1.37,1.11-2.48,2.48-2.48h14.97c1.37,0,2.48,1.11,2.48,2.48v29.8c0,1.37-1.11,2.48-2.48,2.48Zm-.98-26.22c0-1.05-.85-1.91-1.91-1.91h-11.77c-1.05,0-1.91,.85-1.91,1.91v23.36c0,1.05,.85,1.91,1.91,1.91h11.77c1.05,0,1.91-.85,1.91-1.91v-23.36Z"/><path class="d" d="M31.4,41.54h-14.97c-1.37,0-2.48,1.11-2.48,2.48v29.8c0,1.37,1.11,2.48,2.48,2.48h14.97c1.37,0,2.48-1.11,2.48-2.48v-29.8c0-1.37-1.11-2.48-2.48-2.48Zm1.86,31.09c0,1.68-1.37,3.05-3.05,3.05h-12.59c-1.68,0-3.05-1.37-3.05-3.05v-27.43c0-1.68,1.37-3.05,3.05-3.05h12.59c1.68,0,3.05,1.37,3.05,3.05v27.43Z"/></g></g></g></svg>