<?xml version="1.0" encoding="UTF-8"?><svg xmlns="http://www.w3.org/2000/svg" viewBox="0 0 355.77 173.6"><defs><style>.d{fill:#edc151;}.e{fill:#d3734d;}.f{fill:#d26d99;}.g{fill:#4c1822;}.h{fill:#4d391d;}.i,.j,.k,.l,.m{stroke-width:5px;}.i,.j,.k,.l,.m,.n,.o,.p,.q,.r,.s,.t,.u,.v,.w{fill:none;stroke-miterlimit:10;}.i,.r,.s{stroke:#edc151;}.j,.p,.v{stroke:#4d391d;}.k,.q,.w{stroke:#4c1822;}.l,.n,.t{stroke:#d3734d;}.m,.o,.u{stroke:#d26d99;}.n,.o,.p,.q,.r{stroke-width:2px;}</style></defs><g id="a"/><g id="b"><g id="c"><path class="d" d="M266.06,96.36c1.2-.94,3.3-3.36,8.68-.87,5.38,2.49,8.94,4.72,6.32,10.3-2.61,5.58-6.35,11.71-10.33,9.4-3.99-2.31-9.82-7.47-9.8-9.63,.02-2.16,1.48-6.34,5.13-9.2Z"/><path class="s" d="M286.6,101.35c1.58,5.24-7.1,17.68-9.19,18.34-2.09,.66-4.61,2.17-8.87-1.21-4.27-3.38-9.68-7.86-10.53-11.4s2.33-7.53,2.68-8.05,5.16-7.21,10.17-7.13c4.29,.07,13.92,3.43,15.74,9.45Z"/><g><path class="w" d="M273.23,144.02c-1.07-1.28-3.26-3.67-6.23-2.17s-6.52,5.57-5.79,7.51c.73,1.95,2.58,8.35,6.96,6.9s8.99-3.45,8.65-6.35-3.59-5.9-3.59-5.9Z"/><path class="k" d="M278.37,138.62c-2.22-2.66-6.77-7.63-12.91-4.55-6.14,3.08-13.43,11.46-11.9,15.49,1.53,4.04,5.42,17.29,14.47,14.34,9.05-2.95,18.56-7.06,17.83-13.05s-7.49-12.24-7.49-12.24Z"/><path class="q" d="M264.48,125.56c-9.44,4.83-20.44,14.5-18.5,22.41,1.59,6.48,6.86,28.09,21.02,24.15s28.49-9.81,27.76-19.11-16.35-34.58-30.28-27.45Z"/><path class="g" d="M277.65,144.43c1.09,1.67,2.73,4.6-1.95,6.23s-5.2,1.33-6.32-.45c-1.13-1.78-2.64-4.43-1.3-5.8,1.35-1.37,4.37-5.41,7.06-2.99,.86,.77,2.51,3.01,2.51,3.01Z"/></g><g><path class="g" d="M257.68,76.91c-.42-1.3-.77-4.17-6.06-4.98-5.29-.81-9.08-.92-9.96,4.58-.87,5.49-1.18,11.95,2.98,12.21,4.16,.25,11.14-.71,12.22-2.34,1.08-1.63,2.1-5.49,.82-9.46Z"/><path class="q" d="M239.77,70.4c-3.84,3.14-3.64,16.82-2.41,18.35s2.35,3.93,7.26,3.52c4.91-.41,11.23-1.07,13.66-3.31s2.07-6.82,2.07-7.38-.21-7.99-4-10.43c-3.25-2.09-12.16-4.37-16.58-.76Z"/></g><path class="g" d="M276.96,60.73c1.63-.51,3.39-.36,3.7,1.63,.31,1.98,.67,4.78-1.85,4.37-2.51-.41-4.05-.76-3.9-2.29s-.05-3.05,2.05-3.71Z"/><g><path class="u" d="M321.92,99.55c-.8,1.2-2.24,3.6-.23,5.65,2.01,2.06,6.29,3.92,7.73,2.83,1.44-1.09,6.3-4.23,3.99-7.45s-5.15-6.48-7.48-5.47c-2.33,1.01-4.01,4.44-4.01,4.44Z"/><path class="m" d="M316.12,96.71c-1.65,2.49-4.64,7.47-.52,11.72,4.12,4.25,12.95,8.08,15.92,5.81,2.98-2.27,13.03-8.81,8.28-15.47-4.75-6.66-10.58-13.4-15.39-11.29-4.81,2.11-8.3,9.23-8.3,9.23Z"/><path class="o" d="M308.75,111.38c6.42,6.5,17.26,13.05,23.36,9.46,5-2.95,21.67-12.73,14.8-23.32-6.87-10.59-15.39-20.83-22.95-17.87-7.56,2.96-24.66,22.14-15.2,31.73Z"/><path class="f" d="M321.14,95.83c1.12-1.31,3.14-3.4,5.69,.01s2.42,3.92,1.23,5.29-3.02,3.29-4.51,2.53-5.61-2.2-4.28-5.02c.43-.9,1.87-2.81,1.87-2.81Z"/></g><path class="f" d="M237.73,57.37c1.63-.51,3.39-.36,3.7,1.63s.67,4.78-1.85,4.37c-2.51-.41-4.05-.76-3.9-2.29,.15-1.53-.05-3.05,2.05-3.71Z"/><g><path class="h" d="M302.55,133.92c-.44-.58-3.41-3.88-1.58-6.46,1.83-2.57,4.32-4.1,6.75-5.22,2.43-1.12,4.72,.48,5.84,1.22,.87,.57,1.6,1.22,2.98,2.55,1.38,1.33,1.65,2.21,1.54,4.19-.11,1.98-3.47,6.06-5.19,7.63-1.84,1.69-2.71,1.84-4.37,1.68-1.99-.2-5.54-5.01-5.97-5.59Zm6.68,3.68c1.64-.53,3.39-2.37,4.59-4.13,1.26-1.82,2.22-3.26,.55-4.96-1.67-1.7-3.23-3.11-4.3-3.26-.87-.13-1.8-.81-4.51,1.35-2.71,2.16-3.51,3.05-2.61,5.28,.9,2.23,4.62,6.26,6.27,5.73Z"/><path class="p" d="M302.76,122.47c-1,.75-8.25,5.16-5.46,10.27,2.79,5.11,9.41,11.67,12.15,11.21,2.74-.45,5.25-3,6.87-5.18,1.62-2.18,4.62-6.57,4.28-9.93s-7.77-8.1-8.72-8.46-4.67-1.22-9.12,2.09Z"/></g><g><path class="h" d="M319.88,41.51c1.34-1.69,3.44-5.75,11.71-4.09,8.27,1.66,13.94,3.57,12.2,12.16-1.74,8.6-4.85,18.31-11.14,16.44-6.29-1.88-16.08-7.09-16.77-10.08-.7-2.99-.08-9.26,4-14.43Z"/><path class="p" d="M349.96,41.58c3.95,6.73-3.89,26.84-6.56,28.44-2.67,1.6-5.64,4.53-12.67,1.27-7.03-3.26-16.02-7.67-18.38-12.29-2.36-4.63,.7-11.2,1-12.03,.31-.83,4.71-11.7,11.67-13.25,5.96-1.33,20.4,.12,24.93,7.85Z"/></g><g><path class="e" d="M234.44,125.05c-1.22,.12-4.06,.31-4.55-3.35s.7-6.17,4.11-5.34,5.36,1.8,4.59,4.67c-.77,2.87-.68,3.67-4.15,4.02Z"/><path class="t" d="M234.68,117.05c.52-2,4.42-16.45,12.47-12.12,8.05,4.32,16.34,9.37,12.52,16.08,0,0-4.57,11.6-12.33,9.91-7.76-1.68-13.69-3.49-13.2-8.31,.5-4.82,.53-5.56,.53-5.56Z"/></g><g><path class="t" d="M290.8,31.86c1.58-.15,4.66-.3,5.63,2.68s.6,8.04-1.2,8.85c-1.8,.82-7.36,3.87-9.31,0s-3.68-8.26-1.5-9.97c2.18-1.71,6.38-1.56,6.38-1.56Z"/><path class="l" d="M291.01,24.85c3.28-.31,9.67-.61,11.7,5.52s1.25,16.55-2.5,18.24c-3.74,1.69-15.29,7.97-19.34,0-4.06-7.97-7.64-17.01-3.12-20.54,4.52-3.52,13.26-3.22,13.26-3.22Z"/><path class="n" d="M309.1,25.32c3.05,9.48,3.88,23.23-2.75,27.23-5.44,3.28-23.54,14.23-30.34,2.22-6.81-12.02-12.43-25.43-5.66-31.16,6.77-5.73,34.25-12.28,38.76,1.71Z"/><path class="e" d="M287.58,29.21c-1.85,.4-4.93,1.26-2.9,5.46,2.03,4.19,2.58,4.33,4.53,3.89,1.95-.44,4.76-1.21,4.78-3.02,.03-1.81,.73-6.51-2.7-6.67-1.09-.05-3.7,.35-3.7,.35Z"/></g><g><path class="e" d="M304.21,78.2c-.1-.71-.36-5.14-3.49-5.67-3.13-.53-5.98,.13-8.49,1.04-2.51,.92-2.99,3.64-3.26,4.96-.21,1.02-.26,1.98-.28,3.89s.41,2.72,1.9,4.04c1.49,1.32,6.78,1.85,9.11,1.75,2.51-.1,3.23-.6,4.29-1.88,1.27-1.53,.33-7.43,.23-8.14Zm-2.1,7.28c-1.54,.78-4.09,.7-6.19,.31-2.19-.41-3.9-.75-3.93-3.12-.03-2.37,.06-4.46,.71-5.32,.52-.7,.69-1.83,4.15-2.2,3.46-.37,4.65-.31,5.61,1.9,.96,2.2,1.2,7.66-.34,8.44Z"/><path class="n" d="M295.89,70.26c1.24-.18,9.51-2.14,11.19,3.42s1.68,14.85-.58,16.44c-2.26,1.6-5.85,1.56-8.55,1.16s-7.96-1.41-10.11-4.02-.29-11.17,.12-12.09,2.43-4.14,7.94-4.92Z"/></g><path class="e" d="M288.38,117.22c1.63-.51,3.39-.36,3.7,1.63,.31,1.98,.67,4.78-1.85,4.37-2.51-.41-4.05-.76-3.9-2.29,.15-1.53-.05-3.05,2.05-3.71Z"/><g><path class="d" d="M271.15,28.79c.7-.02,2.34-.02,2.47,2.1,.13,2.12-.65,3.51-2.57,2.9s-3-1.25-2.45-2.86c.56-1.62,.53-2.08,2.54-2.14Z"/><path class="s" d="M270.7,33.27c-.36,1.13-3.05,9.31-7.54,6.58-4.49-2.73-9.09-5.88-6.69-9.62,0,0,2.98-6.52,7.39-5.32s7.76,2.42,7.32,5.17-.48,3.18-.48,3.18Z"/></g><g><path class="f" d="M346.47,21.01c.52-1.02,4.22-7.04,.61-10.54-3.6-3.5-7.93-5.19-12.05-6.25-4.12-1.06-7.24,2.08-8.78,3.56-1.19,1.14-2.15,2.36-3.92,4.83s-1.95,3.92-1.21,6.99c.74,3.06,7.17,8.48,10.3,10.46,3.37,2.12,4.76,2.11,7.32,1.38,3.05-.87,7.21-9.41,7.73-10.43Zm-9.38,7.64c-2.72-.36-5.98-2.75-8.37-5.15-2.49-2.49-4.42-4.47-2.3-7.6,2.12-3.13,4.15-5.77,5.78-6.32,1.32-.45,2.58-1.77,7.43,.84,4.86,2.61,6.36,3.77,5.6,7.51-.76,3.74-5.43,11.09-8.15,10.73Z"/><path class="o" d="M342.84,3.18c1.78,.88,14.38,5.73,11.5,14.5-2.88,8.77-11.35,20.9-15.76,20.97-4.41,.06-9.07-3.2-12.23-6.15-3.16-2.95-9.11-8.97-9.55-14.31s9.81-14.86,11.19-15.69,6.95-3.23,14.86,.69Z"/></g><g><path class="w" d="M103.98,49.99c-1.07-1.28-3.26-3.67-6.23-2.17-2.98,1.5-6.52,5.57-5.79,7.51,.73,1.95,2.58,8.35,6.96,6.9s8.99-3.45,8.65-6.35-3.59-5.9-3.59-5.9Z"/><path class="k" d="M109.12,44.6c-2.22-2.66-6.77-7.63-12.91-4.55s-13.43,11.46-11.9,15.49,5.42,17.29,14.47,14.34c9.05-2.95,18.56-7.06,17.83-13.05s-7.49-12.24-7.49-12.24Z"/><path class="q" d="M95.23,31.53c-9.44,4.83-20.44,14.5-18.5,22.41,1.59,6.48,6.86,28.09,21.02,24.15s28.49-9.81,27.76-19.11-16.35-34.58-30.28-27.45Z"/><path class="g" d="M108.4,50.4c1.09,1.67,2.73,4.6-1.95,6.23s-5.2,1.33-6.32-.45-2.64-4.43-1.3-5.8c1.35-1.37,4.37-5.41,7.06-2.99,.86,.77,2.51,3.01,2.51,3.01Z"/></g><g><path class="f" d="M64.84,105.69c-.13-1.11-.52-3.71-3.97-3.41s-5.5,1.85-4.06,4.75,2.71,4.45,5.18,3.19c2.47-1.26,3.22-1.34,2.84-4.52Z"/><path class="u" d="M57.75,107.45c-1.74,.83-14.26,7.01-8.81,13.46,5.45,6.45,11.6,12.98,17.05,8.31,0,0,9.79-6.25,6.81-12.93-2.98-6.68-5.73-11.68-10.05-10.35-4.32,1.34-5,1.5-5,1.5Z"/></g><g><path class="f" d="M27.42,83.95c.65,2.01,1.19,6.44,9.35,7.69,8.16,1.26,14.02,1.41,15.37-7.07,1.35-8.48,1.82-18.45-4.59-18.84-6.42-.39-17.19,1.1-18.85,3.61-1.66,2.51-3.25,8.48-1.27,14.6Z"/><path class="o" d="M55.07,93.99c5.93-4.85,5.62-25.95,3.72-28.33s-3.63-6.06-11.2-5.43c-7.57,.63-17.34,1.65-21.09,5.1-3.75,3.45-3.2,10.52-3.2,11.38s.32,12.33,6.18,16.09c5.01,3.22,18.77,6.75,25.59,1.18Z"/></g><g><path class="s" d="M61.96,84.7c-1.45-.14-4.28-.27-5.18,2.46-.9,2.74-.55,7.39,1.11,8.15,1.66,.75,6.77,3.56,8.57,0,1.8-3.56,3.39-7.6,1.38-9.17-2-1.57-5.87-1.44-5.87-1.44Z"/><path class="i" d="M61.77,78.25c-3.01-.28-8.9-.56-10.76,5.08-1.87,5.64-1.15,15.23,2.3,16.78,3.44,1.55,14.06,7.33,17.8,0,3.73-7.33,7.03-15.65,2.87-18.9-4.16-3.24-12.2-2.96-12.2-2.96Z"/><path class="r" d="M45.13,78.68c-2.81,8.73-3.57,21.38,2.53,25.06,5,3.02,21.66,13.09,27.92,2.04,6.26-11.06,11.44-23.4,5.21-28.67-6.23-5.27-31.52-11.3-35.66,1.57Z"/><path class="d" d="M64.93,82.26c1.7,.37,4.54,1.16,2.67,5.02-1.87,3.86-2.37,3.99-4.17,3.58s-4.38-1.11-4.4-2.78-.67-5.99,2.49-6.14c1.01-.05,3.41,.32,3.41,.32Z"/></g><g><path class="d" d="M19.78,104.58c.28-.66,2.38-4.58-.02-6.64-2.4-2.07-5.18-2.96-7.81-3.47-2.63-.51-4.47,1.58-5.38,2.57-.71,.76-1.26,1.56-2.28,3.18-1.02,1.62-1.07,2.54-.49,4.43,.58,1.9,4.83,5.06,6.87,6.18,2.2,1.21,3.07,1.15,4.65,.59,1.88-.66,4.17-6.18,4.46-6.84Zm-5.6,5.15c-1.72-.12-3.86-1.5-5.46-2.92-1.66-1.47-2.95-2.64-1.73-4.69,1.21-2.05,2.38-3.78,3.39-4.19,.81-.33,1.55-1.21,4.7,.25,3.15,1.46,4.14,2.13,3.8,4.51-.33,2.38-2.99,7.17-4.71,7.04Z"/><path class="r" d="M16.81,93.51c1.15,.49,9.25,3.06,7.78,8.68-1.48,5.62-6.33,13.56-9.1,13.76-2.77,.21-5.82-1.67-7.92-3.41s-6.07-5.29-6.54-8.63c-.48-3.34,5.6-9.7,6.43-10.28s4.24-2.29,9.36-.13Z"/></g><g><path class="v" d="M46.02,45.01c-1.08-.1-3.18-.2-3.85,1.83s-.41,5.49,.82,6.05,5.03,2.64,6.36,0c1.33-2.64,2.51-5.65,1.03-6.82s-4.36-1.07-4.36-1.07Z"/><path class="j" d="M45.89,40.21c-2.24-.21-6.61-.42-8,3.77-1.39,4.19-.85,11.31,1.71,12.47,2.56,1.15,10.45,5.45,13.22,0,2.77-5.45,5.22-11.63,2.13-14.04-3.09-2.41-9.06-2.2-9.06-2.2Z"/><path class="p" d="M33.52,40.53c-2.09,6.48-2.66,15.88,1.88,18.62,3.72,2.24,16.09,9.73,20.74,1.51,4.65-8.21,8.5-17.39,3.87-21.3-4.63-3.92-23.41-8.39-26.49,1.17Z"/><path class="h" d="M48.23,43.19c1.27,.27,3.37,.86,1.98,3.73-1.39,2.87-1.76,2.96-3.1,2.66s-3.25-.83-3.27-2.07-.5-4.45,1.85-4.56c.75-.04,2.53,.24,2.53,.24Z"/></g><path class="d" d="M11.31,55.9c2.68-.84,5.56-.58,6.06,2.67,.51,3.26,1.09,7.85-3.03,7.18-4.13-.67-6.65-1.25-6.4-3.76,.25-2.5-.08-5.01,3.37-6.09Z"/><path class="d" d="M144.71,67.15c1.2-.94,3.3-3.36,8.68-.87,5.38,2.49,8.94,4.72,6.32,10.3-2.61,5.58-6.35,11.71-10.33,9.4-3.99-2.31-9.82-7.47-9.8-9.63,.02-2.16,1.48-6.34,5.13-9.2Z"/><path class="s" d="M165.26,72.13c1.58,5.24-7.1,17.68-9.19,18.34s-4.61,2.17-8.87-1.21c-4.27-3.38-9.68-7.86-10.53-11.4s2.33-7.53,2.68-8.05,5.16-7.21,10.17-7.13c4.29,.07,13.92,3.43,15.74,9.45Z"/><g><path class="w" d="M151.89,114.8c-1.07-1.28-3.26-3.67-6.23-2.17-2.98,1.5-6.52,5.57-5.79,7.51,.73,1.95,2.58,8.35,6.96,6.9,4.38-1.45,8.99-3.45,8.65-6.35s-3.59-5.9-3.59-5.9Z"/><path class="k" d="M157.03,109.41c-2.22-2.66-6.77-7.63-12.91-4.55s-13.43,11.46-11.9,15.49c1.53,4.04,5.42,17.29,14.47,14.34,9.05-2.95,18.56-7.06,17.83-13.05s-7.49-12.24-7.49-12.24Z"/><path class="q" d="M143.14,96.34c-9.44,4.83-20.44,14.5-18.5,22.41,1.59,6.48,6.86,28.09,21.02,24.15,14.16-3.94,28.49-9.81,27.76-19.11s-16.35-34.58-30.28-27.45Z"/><path class="g" d="M156.3,115.21c1.09,1.67,2.73,4.6-1.95,6.23-4.68,1.63-5.2,1.33-6.32-.45s-2.64-4.43-1.3-5.8c1.35-1.37,4.37-5.41,7.06-2.99,.86,.77,2.51,3.01,2.51,3.01Z"/></g><g><path class="u" d="M200.58,70.33c-.8,1.2-2.24,3.6-.23,5.65s6.29,3.92,7.73,2.83c1.44-1.09,6.3-4.23,3.99-7.45-2.32-3.22-5.15-6.48-7.48-5.47-2.33,1.01-4.01,4.44-4.01,4.44Z"/><path class="m" d="M194.78,67.49c-1.65,2.49-4.64,7.47-.52,11.72s12.95,8.08,15.92,5.81,13.03-8.81,8.28-15.47-10.58-13.4-15.39-11.29c-4.81,2.11-8.3,9.23-8.3,9.23Z"/><path class="o" d="M187.41,82.16c6.42,6.5,17.26,13.05,23.36,9.46,5-2.95,21.67-12.73,14.8-23.32-6.87-10.59-15.39-20.83-22.95-17.87-7.56,2.96-24.66,22.14-15.2,31.73Z"/><path class="f" d="M199.8,66.61c1.12-1.31,3.14-3.4,5.69,.01,2.55,3.42,2.42,3.92,1.23,5.29s-3.02,3.29-4.51,2.53c-1.49-.76-5.61-2.2-4.28-5.02,.43-.9,1.87-2.81,1.87-2.81Z"/></g><g><path class="d" d="M232.4,105.55c.7,.02,2.34,.02,2.47-2.1s-.65-3.51-2.57-2.9-3,1.25-2.45,2.86c.56,1.62,.53,2.08,2.54,2.14Z"/><path class="s" d="M231.96,101.07c-.36-1.13-3.05-9.31-7.54-6.58-4.49,2.73-9.09,5.88-6.69,9.62,0,0,2.98,6.52,7.39,5.32,4.41-1.2,7.76-2.42,7.32-5.17s-.48-3.18-.48-3.18Z"/></g><path class="d" d="M106.66,123.89c.28-.66,2.38-4.58-.02-6.64-2.4-2.07-5.18-2.96-7.81-3.47-2.63-.51-4.47,1.58-5.38,2.57-.71,.76-1.26,1.56-2.28,3.18s-1.07,2.54-.49,4.43c.58,1.9,4.83,5.06,6.87,6.18,2.2,1.21,3.07,1.15,4.65,.59,1.88-.66,4.17-6.18,4.46-6.84Zm-5.6,5.15c-1.72-.12-3.86-1.5-5.46-2.92-1.66-1.47-2.95-2.64-1.73-4.69,1.21-2.05,2.38-3.78,3.39-4.19,.81-.33,1.55-1.21,4.7,.25,3.15,1.46,4.14,2.13,3.8,4.51-.33,2.38-2.99,7.17-4.71,7.04Z"/><path class="s" d="M103.7,112.82c1.15,.49,9.25,3.06,7.78,8.68s-6.33,13.56-9.1,13.76-5.82-1.67-7.92-3.41-6.07-5.29-6.54-8.63c-.48-3.34,5.6-9.7,6.43-10.28s4.24-2.29,9.36-.13Z"/><g><path class="h" d="M181.2,104.7c-.44-.58-3.41-3.88-1.58-6.46,1.83-2.57,4.32-4.1,6.75-5.22,2.43-1.12,4.72,.48,5.84,1.22,.87,.57,1.6,1.22,2.98,2.55s1.65,2.21,1.54,4.19c-.11,1.98-3.47,6.06-5.19,7.63-1.84,1.69-2.71,1.84-4.37,1.68-1.99-.2-5.54-5.01-5.97-5.59Zm6.68,3.68c1.64-.53,3.39-2.37,4.59-4.13,1.26-1.82,2.22-3.26,.55-4.96-1.67-1.7-3.23-3.11-4.3-3.26-.87-.13-1.8-.81-4.51,1.35-2.71,2.16-3.51,3.05-2.61,5.28,.9,2.23,4.62,6.26,6.27,5.73Z"/><path class="p" d="M181.42,93.25c-1,.75-8.25,5.16-5.46,10.27,2.79,5.11,9.41,11.67,12.15,11.21s5.25-3,6.87-5.18,4.62-6.57,4.28-9.93-7.77-8.1-8.72-8.46-4.67-1.22-9.12,2.09Z"/></g><g><path class="e" d="M113.1,95.84c-1.22,.12-4.06,.31-4.55-3.35-.48-3.66,.7-6.17,4.11-5.34,3.41,.83,5.36,1.8,4.59,4.67-.77,2.87-.68,3.67-4.15,4.02Z"/><path class="t" d="M113.34,87.84c.52-2,4.42-16.45,12.47-12.12,8.05,4.32,16.34,9.37,12.52,16.08,0,0-4.57,11.6-12.33,9.91-7.76-1.68-13.69-3.49-13.2-8.31,.5-4.82,.53-5.56,.53-5.56Z"/></g><path class="e" d="M167.04,88.01c1.63-.51,3.39-.36,3.7,1.63s.67,4.78-1.85,4.37-4.05-.76-3.9-2.29c.15-1.53-.05-3.05,2.05-3.71Z"/></g></g></svg>