<?xml version="1.0" encoding="UTF-8"?><svg xmlns="http://www.w3.org/2000/svg" viewBox="0 0 310.86 121.14"><defs><style>.d{fill:#edc151;}.e{fill:#d3734d;}.f{fill:#d26d99;}.g{fill:#4c1822;}.h{fill:#4d391d;}.i,.j,.k,.l,.m{stroke-width:5px;}.i,.j,.k,.l,.m,.n,.o,.p,.q,.r,.s,.t,.u,.v,.w{fill:none;stroke-miterlimit:10;}.i,.r,.s{stroke:#edc151;}.j,.p,.v{stroke:#4d391d;}.k,.q,.w{stroke:#4c1822;}.l,.n,.t{stroke:#d3734d;}.m,.o,.u{stroke:#d26d99;}.n,.o,.p,.q,.r{stroke-width:2px;}</style></defs><g id="a"/><g id="b"><g id="c"><path class="d" d="M288.51,67.94c-.74-.58-2.04-2.09-5.35-.54-3.31,1.55-5.51,2.94-3.9,6.41s3.91,7.28,6.37,5.84c2.46-1.44,6.05-4.65,6.04-5.99s-.91-3.94-3.16-5.72Z"/><path class="s" d="M275.84,71.04c-.98,3.26,4.38,11,5.67,11.41s2.84,1.35,5.47-.75,5.97-4.89,6.49-7.09-1.44-4.68-1.65-5-3.18-4.49-6.27-4.43c-2.64,.04-8.58,2.13-9.7,5.88Z"/><g><path class="h" d="M230.76,87.39c-.09-.8-.37-2.67-2.83-2.45-2.45,.21-3.92,1.33-2.89,3.41,1.03,2.08,1.93,3.2,3.69,2.29,1.76-.91,2.29-.96,2.03-3.25Z"/><path class="v" d="M225.71,88.66c-1.24,.6-10.16,5.04-6.28,9.68,3.88,4.64,8.27,9.33,12.15,5.97,0,0,6.97-4.49,4.85-9.29s-4.08-8.4-7.16-7.44c-3.08,.96-3.56,1.08-3.56,1.08Z"/></g><g><path class="w" d="M284.09,97.58c.66-.8,2.01-2.28,3.84-1.35,1.83,.93,4.02,3.46,3.57,4.67s-1.59,5.19-4.29,4.29c-2.7-.9-5.54-2.15-5.33-3.95s2.22-3.67,2.22-3.67Z"/><path class="k" d="M280.92,94.23c1.37-1.65,4.17-4.74,7.96-2.83,3.79,1.92,8.27,7.12,7.33,9.63s-3.34,10.75-8.92,8.92c-5.58-1.84-11.44-4.39-10.99-8.11s4.61-7.61,4.61-7.61Z"/><path class="q" d="M289.48,86.1c5.82,3,12.6,9.02,11.4,13.94-.98,4.03-4.23,17.47-12.96,15.02-8.73-2.45-17.56-6.1-17.11-11.89s10.08-21.5,18.66-17.07Z"/><path class="g" d="M281.36,97.84c-.67,1.04-1.68,2.86,1.2,3.88,2.88,1.02,3.2,.83,3.9-.28s1.63-2.76,.8-3.61-2.69-3.36-4.35-1.86c-.53,.48-1.55,1.87-1.55,1.87Z"/></g><g><path class="g" d="M240.48,56.99c.06-.44,.22-3.19,2.15-3.53,1.93-.33,3.69,.08,5.24,.65,1.55,.57,1.84,2.27,2.01,3.08,.13,.63,.16,1.23,.17,2.42s-.25,1.69-1.17,2.51c-.92,.82-4.18,1.15-5.61,1.09-1.55-.06-1.99-.37-2.64-1.17-.78-.95-.21-4.62-.14-5.06Zm1.29,4.53c.95,.49,2.52,.43,3.82,.19,1.35-.25,2.4-.46,2.43-1.94,.02-1.48-.04-2.77-.44-3.31-.32-.43-.43-1.14-2.56-1.37-2.13-.23-2.87-.19-3.46,1.18-.59,1.37-.74,4.77,.21,5.25Z"/><path class="q" d="M245.61,52.05c-.77-.11-5.86-1.33-6.9,2.13s-1.03,9.23,.36,10.23,3.61,.97,5.27,.72,4.9-.88,6.23-2.5,.18-6.95-.07-7.52-1.5-2.57-4.89-3.06Z"/></g><g><path class="g" d="M293.67,55.85c.26-.81,.47-2.59,3.73-3.1,3.26-.51,5.6-.57,6.14,2.85,.54,3.42,.73,7.43-1.83,7.59-2.56,.16-6.86-.44-7.53-1.46s-1.3-3.42-.51-5.88Z"/><path class="q" d="M304.71,51.8c2.37,1.95,2.25,10.46,1.49,11.41s-1.45,2.44-4.47,2.19c-3.02-.25-6.92-.66-8.42-2.06s-1.28-4.24-1.28-4.59,.13-4.97,2.47-6.48c2-1.3,7.5-2.72,10.22-.47Z"/></g><path class="g" d="M281.79,45.79c-1.01-.32-2.09-.22-2.28,1.01s-.41,2.97,1.14,2.72,2.5-.47,2.4-1.42,.03-1.9-1.27-2.31Z"/><g><path class="f" d="M199.08,60.31c.08-.69,.32-2.31,2.44-2.12s3.39,1.15,2.5,2.95-1.67,2.77-3.19,1.98c-1.52-.78-1.98-.83-1.75-2.81Z"/><path class="u" d="M203.45,61.41c1.07,.52,8.79,4.36,5.43,8.37-3.36,4.01-7.15,8.07-10.51,5.17,0,0-6.03-3.89-4.2-8.04,1.83-4.15,3.53-7.27,6.19-6.43,2.66,.83,3.08,.93,3.08,.93Z"/></g><g><path class="u" d="M254.08,69.93c.49,.74,1.38,2.24,.14,3.51s-3.88,2.44-4.76,1.76-3.88-2.63-2.46-4.63,3.17-4.03,4.61-3.4,2.47,2.76,2.47,2.76Z"/><path class="m" d="M257.65,68.16c1.02,1.55,2.86,4.65,.32,7.29s-7.98,5.03-9.81,3.61-8.03-5.48-5.1-9.62,6.52-8.33,9.48-7.02c2.96,1.31,5.11,5.74,5.11,5.74Z"/><path class="o" d="M262.19,77.28c-3.95,4.04-10.64,8.12-14.4,5.88-3.08-1.83-13.35-7.92-9.12-14.5,4.24-6.58,9.49-12.95,14.15-11.11,4.66,1.84,15.2,13.77,9.37,19.73Z"/><path class="f" d="M254.56,67.61c-.69-.82-1.94-2.12-3.5,0s-1.49,2.44-.76,3.29,1.86,2.04,2.78,1.57,3.46-1.37,2.64-3.12c-.26-.56-1.15-1.75-1.15-1.75Z"/></g><g><path class="f" d="M276.65,114.91c-.26,.81-.47,2.59-3.73,3.1-3.26,.51-5.6,.57-6.14-2.85s-.73-7.43,1.83-7.59,6.86,.44,7.53,1.46,1.3,3.42,.51,5.88Z"/><path class="o" d="M265.61,118.96c-2.37-1.95-2.25-10.46-1.49-11.41s1.45-2.44,4.47-2.19,6.92,.66,8.42,2.06c1.5,1.39,1.28,4.24,1.28,4.59s-.13,4.97-2.47,6.48c-2,1.3-7.5,2.72-10.22,.47Z"/></g><g><path class="f" d="M222.14,46.79c-.4,1.25-.73,4-5.76,4.78-5.03,.78-8.64,.88-9.47-4.39-.83-5.27-1.12-11.47,2.83-11.72s10.59,.68,11.62,2.25c1.03,1.56,2,5.27,.78,9.08Z"/><path class="o" d="M205.1,53.03c-3.65-3.02-3.47-16.14-2.29-17.62s2.24-3.77,6.9-3.38c4.67,.39,10.69,1.03,13,3.17s1.97,6.54,1.97,7.08-.2,7.67-3.81,10.01c-3.09,2-11.57,4.2-15.77,.73Z"/></g><g><path class="d" d="M234.46,91.83c-.43,.01-1.45,.01-1.52-1.31s.4-2.18,1.59-1.8c1.18,.38,1.85,.77,1.51,1.78s-.33,1.29-1.57,1.33Z"/><path class="s" d="M234.74,89.04c.22-.71,1.88-5.79,4.65-4.09,2.77,1.7,5.6,3.66,4.13,5.98,0,0-1.84,4.06-4.55,3.31-2.71-.75-4.78-1.51-4.51-3.22s.29-1.97,.29-1.97Z"/></g><g><path class="s" d="M200.85,47.26c.89-.09,2.64-.17,3.19,1.53s.34,4.6-.68,5.07-4.17,2.21-5.28,0-2.09-4.73-.85-5.71,3.62-.89,3.62-.89Z"/><path class="i" d="M200.97,43.24c1.86-.18,5.48-.35,6.63,3.16,1.15,3.51,.71,9.47-1.42,10.44-2.12,.96-8.67,4.56-10.97,0-2.3-4.56-4.33-9.73-1.77-11.75,2.57-2.02,7.52-1.84,7.52-1.84Z"/><path class="r" d="M211.23,43.51c1.73,5.43,2.2,13.29-1.56,15.58-3.08,1.88-13.35,8.14-17.21,1.27s-7.05-14.55-3.21-17.83,19.42-7.03,21.98,.98Z"/><path class="d" d="M199.02,45.74c-1.05,.23-2.8,.72-1.65,3.12s1.46,2.48,2.57,2.23c1.11-.25,2.7-.69,2.71-1.73s.41-3.72-1.53-3.82c-.62-.03-2.1,.2-2.1,.2Z"/></g><g><path class="d" d="M226.85,59.62c-.18-.41-1.47-2.85,.01-4.13,1.48-1.28,3.19-1.84,4.81-2.16,1.62-.32,2.75,.98,3.32,1.6,.44,.47,.77,.97,1.4,1.98s.66,1.58,.3,2.76c-.36,1.18-2.98,3.15-4.24,3.84-1.36,.75-1.89,.71-2.87,.37-1.16-.41-2.57-3.84-2.75-4.25Zm3.45,3.2c1.06-.08,2.38-.94,3.36-1.82,1.02-.92,1.82-1.64,1.07-2.92-.75-1.27-1.47-2.35-2.09-2.6-.5-.2-.96-.75-2.9,.15-1.94,.91-2.55,1.32-2.34,2.8,.21,1.48,1.84,4.46,2.9,4.38Z"/><path class="r" d="M228.68,52.73c-.71,.3-5.7,1.9-4.79,5.4,.91,3.49,3.9,8.43,5.61,8.56,1.71,.13,3.59-1.04,4.88-2.12,1.29-1.08,3.74-3.29,4.03-5.37s-3.45-6.03-3.96-6.39-2.61-1.42-5.77-.08Z"/></g><g><path class="v" d="M210.68,22.57c.66-.06,1.96-.13,2.37,1.14s.25,3.42-.51,3.76-3.1,1.64-3.92,0-1.55-3.51-.63-4.24,2.69-.66,2.69-.66Z"/><path class="j" d="M210.76,19.59c1.38-.13,4.07-.26,4.93,2.35s.53,7.04-1.05,7.75-6.44,3.39-8.15,0-3.22-7.23-1.31-8.73c1.91-1.5,5.59-1.37,5.59-1.37Z"/><path class="p" d="M218.38,19.79c1.29,4.03,1.64,9.88-1.16,11.58-2.29,1.39-9.92,6.05-12.78,.94s-5.24-10.81-2.38-13.25c2.85-2.43,14.43-5.22,16.33,.73Z"/><path class="h" d="M209.32,21.44c-.78,.17-2.08,.54-1.22,2.32s1.09,1.84,1.91,1.65,2-.51,2.01-1.28,.31-2.77-1.14-2.84c-.46-.02-1.56,.15-1.56,.15Z"/></g><path class="d" d="M232.07,29.34c-1.65-.52-3.43-.36-3.74,1.66-.31,2.02-.67,4.88,1.87,4.46s4.1-.78,3.94-2.34c-.16-1.56,.05-3.11-2.08-3.79Z"/><g><path class="h" d="M266.02,91.3c.27-.36,2.1-2.41,.98-4.01-1.13-1.6-2.66-2.55-4.16-3.25-1.5-.69-2.91,.3-3.6,.76-.54,.36-.98,.76-1.84,1.59s-1.02,1.37-.95,2.61c.07,1.23,2.14,3.77,3.2,4.74,1.14,1.05,1.67,1.14,2.69,1.04,1.23-.12,3.41-3.12,3.68-3.48Zm-4.12,2.29c-1.01-.33-2.09-1.48-2.83-2.57-.77-1.13-1.37-2.03-.34-3.09,1.03-1.06,1.99-1.93,2.65-2.03,.54-.08,1.11-.5,2.78,.84,1.67,1.34,2.16,1.9,1.61,3.28-.55,1.39-2.85,3.89-3.86,3.56Z"/><path class="p" d="M265.89,84.18c.62,.46,5.08,3.21,3.37,6.38-1.72,3.18-5.8,7.26-7.49,6.97-1.69-.28-3.24-1.86-4.23-3.22s-2.85-4.09-2.64-6.17,4.79-5.04,5.37-5.26,2.88-.76,5.62,1.3Z"/></g><g><path class="h" d="M255.33,33.83c-.82-1.05-2.12-3.58-7.21-2.54-5.09,1.03-8.59,2.22-7.52,7.56,1.07,5.35,2.99,11.39,6.86,10.22s9.91-4.41,10.34-6.27,.05-5.76-2.47-8.98Z"/><path class="p" d="M236.79,33.88c-2.43,4.18,2.4,16.69,4.04,17.69s3.48,2.82,7.81,.79c4.33-2.03,9.87-4.77,11.33-7.64,1.45-2.88-.43-6.97-.62-7.48s-2.9-7.27-7.19-8.24c-3.67-.83-12.57,.08-15.37,4.88Z"/></g><path class="h" d="M233.15,73.85c-1.01-.32-2.09-.22-2.28,1.01s-.41,2.97,1.14,2.72c1.55-.25,2.5-.47,2.4-1.42s.03-1.9-1.27-2.31Z"/><g><path class="e" d="M307.99,85.79c.75,.08,2.51,.19,2.8-2.09s-.43-3.84-2.53-3.32c-2.1,.52-3.3,1.12-2.83,2.91s.42,2.28,2.56,2.5Z"/><path class="t" d="M307.84,80.81c-.32-1.25-2.72-10.23-7.69-7.54-4.96,2.69-10.07,5.83-7.72,10,0,0,2.81,7.21,7.6,6.16,4.78-1.05,8.44-2.17,8.13-5.17-.31-2.99-.33-3.46-.33-3.46Z"/></g><g><path class="t" d="M273.25,27.83c-.97-.09-2.87-.19-3.47,1.67s-.37,5,.74,5.51,4.53,2.41,5.74,0,2.27-5.14,.93-6.2-3.93-.97-3.93-.97Z"/><path class="l" d="M273.13,23.47c-2.02-.19-5.96-.38-7.21,3.43s-.77,10.29,1.54,11.34c2.31,1.05,9.42,4.96,11.92,0,2.5-4.96,4.71-10.58,1.92-12.77s-8.17-2-8.17-2Z"/><path class="n" d="M261.98,23.76c-1.88,5.9-2.39,14.45,1.7,16.94,3.35,2.04,14.51,8.85,18.7,1.38,4.19-7.47,7.66-15.82,3.49-19.38-4.17-3.56-21.11-7.64-23.89,1.06Z"/><path class="e" d="M275.24,26.18c1.14,.25,3.04,.79,1.79,3.39-1.25,2.61-1.59,2.69-2.79,2.42-1.2-.27-2.93-.75-2.95-1.88s-.45-4.05,1.67-4.15c.67-.03,2.28,.22,2.28,.22Z"/></g><g><path class="e" d="M264.99,56.65c.06-.44,.22-3.19,2.15-3.53,1.93-.33,3.69,.08,5.24,.65,1.55,.57,1.84,2.27,2.01,3.08,.13,.63,.16,1.23,.17,2.42s-.25,1.69-1.17,2.51c-.92,.82-4.18,1.15-5.61,1.09-1.55-.06-1.99-.37-2.64-1.17-.78-.95-.21-4.62-.14-5.06Zm1.29,4.53c.95,.49,2.52,.43,3.82,.19,1.35-.25,2.4-.46,2.43-1.94,.02-1.48-.04-2.77-.44-3.31-.32-.43-.43-1.14-2.56-1.37-2.13-.23-2.87-.19-3.46,1.18-.59,1.37-.74,4.77,.21,5.25Z"/><path class="n" d="M270.12,51.71c-.77-.11-5.86-1.33-6.9,2.13-1.03,3.46-1.03,9.23,.36,10.23s3.61,.97,5.27,.72c1.67-.25,4.9-.88,6.23-2.5s.18-6.95-.07-7.52-1.5-2.57-4.89-3.06Z"/></g><g><path class="e" d="M224.77,78.57c-.26-.81-.47-2.59-3.73-3.1-3.26-.51-5.6-.57-6.14,2.85s-.73,7.43,1.83,7.59c2.56,.16,6.86-.44,7.53-1.46,.66-1.01,1.3-3.42,.51-5.88Z"/><path class="n" d="M213.73,74.52c-2.37,1.95-2.25,10.46-1.49,11.41s1.45,2.44,4.47,2.19c3.02-.25,6.92-.66,8.42-2.06,1.5-1.39,1.28-4.24,1.28-4.59s-.13-4.97-2.47-6.48c-2-1.3-7.5-2.72-10.22-.47Z"/></g><path class="e" d="M274.75,80.92c-1.01-.32-2.09-.22-2.28,1.01s-.41,2.97,1.14,2.72c1.55-.25,2.5-.47,2.4-1.42s.03-1.9-1.27-2.31Z"/><g><path class="d" d="M285.37,25.93c-.43-.01-1.45-.01-1.52,1.31s.4,2.18,1.59,1.8c1.18-.38,1.85-.77,1.51-1.78-.34-1.01-.33-1.29-1.57-1.33Z"/><path class="s" d="M285.64,28.71c.22,.71,1.88,5.79,4.65,4.09,2.77-1.7,5.6-3.66,4.13-5.98,0,0-1.84-4.06-4.55-3.31s-4.78,1.51-4.51,3.22,.29,1.97,.29,1.97Z"/></g><g><path class="f" d="M238.95,21.09c-.32-.64-2.6-4.38-.38-6.55,2.22-2.18,4.89-3.23,7.43-3.89,2.54-.66,4.46,1.29,5.41,2.21,.74,.71,1.32,1.47,2.42,3,1.09,1.54,1.2,2.44,.74,4.34-.46,1.9-4.42,5.28-6.35,6.5-2.08,1.32-2.93,1.31-4.51,.86-1.88-.54-4.44-5.85-4.76-6.49Zm5.78,4.75c1.68-.22,3.68-1.71,5.16-3.2,1.53-1.55,2.72-2.78,1.42-4.73-1.31-1.95-2.56-3.59-3.57-3.93-.81-.28-1.59-1.1-4.58,.52-2.99,1.62-3.92,2.34-3.45,4.67,.47,2.33,3.34,6.9,5.02,6.67Z"/><path class="o" d="M241.18,9.99c-1.1,.55-8.86,3.56-7.09,9.02s7,13,9.71,13.04,5.59-1.99,7.54-3.83c1.95-1.84,5.62-5.58,5.88-8.9s-6.05-9.24-6.89-9.76-4.28-2.01-9.16,.43Z"/></g><path class="d" d="M35.52,60.3c.74-.58,2.04-2.09,5.35-.54,3.31,1.55,5.51,2.94,3.9,6.41s-3.91,7.28-6.37,5.84-6.05-4.65-6.04-5.99,.91-3.94,3.16-5.72Z"/><path class="s" d="M48.19,63.4c.98,3.26-4.38,11-5.67,11.41-1.29,.41-2.84,1.35-5.47-.75-2.63-2.1-5.97-4.89-6.49-7.09s1.44-4.68,1.65-5,3.18-4.49,6.27-4.43c2.64,.04,8.58,2.13,9.7,5.88Z"/><g><path class="g" d="M30.36,48.21c-.26-.81-.47-2.59-3.73-3.1-3.26-.51-5.6-.57-6.14,2.85-.54,3.42-.73,7.43,1.83,7.59s6.86-.44,7.53-1.46c.66-1.01,1.3-3.42,.51-5.88Z"/><path class="q" d="M19.32,44.16c-2.37,1.95-2.25,10.46-1.49,11.41s1.45,2.44,4.47,2.19,6.92-.66,8.42-2.06,1.28-4.24,1.28-4.59-.13-4.97-2.47-6.48c-2-1.3-7.5-2.72-10.22-.47Z"/></g><path class="g" d="M42.24,38.15c1.01-.32,2.09-.22,2.28,1.01s.41,2.97-1.14,2.72c-1.55-.25-2.5-.47-2.4-1.42s-.03-1.9,1.27-2.31Z"/><path class="f" d="M18.07,36.05c1.01-.32,2.09-.22,2.28,1.01s.41,2.97-1.14,2.72c-1.55-.25-2.5-.47-2.4-1.42s-.03-1.9,1.27-2.31Z"/><path class="d" d="M12.07,95.59c.18-.41,1.47-2.85-.01-4.13-1.48-1.28-3.19-1.84-4.81-2.16-1.62-.32-2.75,.98-3.32,1.6-.44,.47-.77,.97-1.4,1.98s-.66,1.58-.3,2.76c.36,1.18,2.98,3.15,4.24,3.84,1.36,.75,1.89,.71,2.87,.37,1.16-.41,2.57-3.84,2.75-4.25Zm-3.45,3.2c-1.06-.08-2.38-.94-3.36-1.82-1.02-.92-1.82-1.64-1.07-2.92,.75-1.27,1.47-2.35,2.09-2.6,.5-.2,.96-.75,2.9,.15,1.94,.91,2.55,1.32,2.34,2.8-.21,1.48-1.84,4.46-2.9,4.38Z"/><path class="s" d="M10.25,88.71c.71,.3,5.7,1.9,4.79,5.4s-3.9,8.43-5.61,8.56c-1.71,.13-3.59-1.04-4.88-2.12s-3.74-3.29-4.03-5.37,3.45-6.03,3.96-6.39,2.61-1.42,5.77-.08Z"/><g><path class="e" d="M16.04,78.15c-.75,.08-2.51,.19-2.8-2.09s.43-3.84,2.53-3.32,3.3,1.12,2.83,2.91c-.47,1.79-.42,2.28-2.56,2.5Z"/><path class="t" d="M16.19,73.17c.32-1.25,2.72-10.23,7.69-7.54,4.96,2.69,10.07,5.83,7.72,10,0,0-2.81,7.21-7.6,6.16s-8.44-2.17-8.13-5.17c.31-2.99,.33-3.46,.33-3.46Z"/></g><g><path class="t" d="M50.78,20.19c.97-.09,2.87-.19,3.47,1.67s.37,5-.74,5.51c-1.11,.51-4.53,2.41-5.74,0-1.2-2.41-2.27-5.14-.93-6.2s3.93-.97,3.93-.97Z"/><path class="l" d="M50.9,15.83c2.02-.19,5.96-.38,7.21,3.43s.77,10.29-1.54,11.34c-2.31,1.05-9.42,4.96-11.92,0-2.5-4.96-4.71-10.58-1.92-12.77,2.79-2.19,8.17-2,8.17-2Z"/><path class="n" d="M62.05,16.12c1.88,5.9,2.39,14.45-1.7,16.94-3.35,2.04-14.51,8.85-18.7,1.38-4.19-7.47-7.66-15.82-3.49-19.38,4.17-3.56,21.11-7.64,23.89,1.06Z"/><path class="e" d="M48.79,18.54c-1.14,.25-3.04,.79-1.79,3.39,1.25,2.61,1.59,2.69,2.79,2.42s2.93-.75,2.95-1.88,.45-4.05-1.67-4.15c-.67-.03-2.28,.22-2.28,.22Z"/></g><g><path class="e" d="M59.04,49.01c-.06-.44-.22-3.19-2.15-3.53-1.93-.33-3.69,.08-5.24,.65-1.55,.57-1.84,2.27-2.01,3.08-.13,.63-.16,1.23-.17,2.42s.25,1.69,1.17,2.51c.92,.82,4.18,1.15,5.61,1.09,1.55-.06,1.99-.37,2.64-1.17,.78-.95,.21-4.62,.14-5.06Zm-1.29,4.53c-.95,.49-2.52,.43-3.82,.19-1.35-.25-2.4-.46-2.43-1.94-.02-1.48,.04-2.77,.44-3.31,.32-.43,.43-1.14,2.56-1.37,2.13-.23,2.87-.19,3.46,1.18,.59,1.37,.74,4.77-.21,5.25Z"/><path class="n" d="M53.91,44.07c.77-.11,5.86-1.33,6.9,2.13s1.03,9.23-.36,10.23-3.61,.97-5.27,.72-4.9-.88-6.23-2.5-.18-6.95,.07-7.52,1.5-2.57,4.89-3.06Z"/></g><g><path class="d" d="M38.66,18.28c.43-.01,1.45-.01,1.52,1.31s-.4,2.18-1.59,1.8c-1.18-.38-1.85-.77-1.51-1.78s.33-1.29,1.57-1.33Z"/><path class="s" d="M38.39,21.07c-.22,.71-1.88,5.79-4.65,4.09s-5.6-3.66-4.13-5.98c0,0,1.84-4.06,4.55-3.31s4.78,1.51,4.51,3.22-.29,1.97-.29,1.97Z"/></g><g><path class="f" d="M85.09,13.45c.32-.64,2.6-4.38,.38-6.55-2.22-2.18-4.89-3.23-7.43-3.89-2.54-.66-4.46,1.29-5.41,2.21-.74,.71-1.32,1.47-2.42,3s-1.2,2.44-.74,4.34c.46,1.9,4.42,5.28,6.35,6.5,2.08,1.32,2.93,1.31,4.51,.86,1.88-.54,4.44-5.85,4.76-6.49Zm-5.78,4.75c-1.68-.22-3.68-1.71-5.16-3.2-1.53-1.55-2.72-2.78-1.42-4.73,1.31-1.95,2.56-3.59,3.57-3.93,.81-.28,1.59-1.1,4.58,.52,2.99,1.62,3.92,2.34,3.45,4.67-.47,2.33-3.34,6.9-5.02,6.67Z"/><path class="o" d="M82.85,2.35c1.1,.55,8.86,3.56,7.09,9.02s-7,13-9.71,13.04-5.59-1.99-7.54-3.83-5.62-5.58-5.88-8.9,6.05-9.24,6.89-9.76,4.28-2.01,9.16,.43Z"/></g></g></g></svg>