<?xml version="1.0" encoding="UTF-8"?><svg xmlns="http://www.w3.org/2000/svg" viewBox="0 0 179.91 148.26"><defs><style>.d{fill:#edc151;}.e{fill:#d3734d;}.f{fill:#d26d99;}.g{fill:#4c1822;}.h{fill:#4d391d;}.i,.j,.k,.l,.m{stroke-width:5px;}.i,.j,.k,.l,.m,.n,.o,.p,.q,.r,.s,.t,.u,.v,.w{fill:none;stroke-miterlimit:10;}.i,.r,.s{stroke:#edc151;}.j,.p,.v{stroke:#4d391d;}.k,.q,.w{stroke:#4c1822;}.l,.n,.t{stroke:#d3734d;}.m,.o,.u{stroke:#d26d99;}.n,.o,.p,.q,.r{stroke-width:2px;}</style></defs><g id="a"/><g id="b"><g id="c"><g><path class="d" d="M46.44,78.79c.97-.76,2.67-2.74,7.02-.71,4.35,2.03,7.22,3.85,5.11,8.4s-5.13,9.55-8.35,7.66c-3.22-1.89-7.94-6.1-7.92-7.85s1.2-5.17,4.15-7.5Z"/><path class="s" d="M63.05,82.86c1.28,4.27-5.74,14.43-7.43,14.96s-3.72,1.77-7.17-.99-7.83-6.41-8.51-9.3,1.88-6.14,2.17-6.56,4.17-5.88,8.22-5.82c3.47,.06,11.26,2.8,12.73,7.71Z"/><g><path class="h" d="M122.19,104.3c.12-1.05,.49-3.5,3.71-3.22s5.14,1.75,3.79,4.48c-1.35,2.73-2.54,4.2-4.84,3.01-2.31-1.19-3.01-1.26-2.66-4.27Z"/><path class="v" d="M128.82,105.96c1.63,.79,13.33,6.61,8.24,12.7-5.09,6.09-10.85,12.24-15.94,7.84,0,0-9.15-5.9-6.37-12.19,2.78-6.3,5.35-11.02,9.39-9.76s4.67,1.42,4.67,1.42Z"/></g><g><path class="w" d="M52.24,117.67c-.86-1.04-2.63-3-5.04-1.77s-5.27,4.54-4.68,6.13c.59,1.59,2.09,6.81,5.63,5.63s7.26-2.82,6.99-5.18-2.91-4.81-2.91-4.81Z"/><path class="k" d="M56.4,113.27c-1.79-2.17-5.47-6.22-10.44-3.71-4.97,2.51-10.85,9.35-9.62,12.64s4.38,14.11,11.7,11.7c7.32-2.41,15-5.76,14.42-10.64-.58-4.89-6.05-9.98-6.05-9.98Z"/><path class="q" d="M45.17,102.61c-7.63,3.94-16.53,11.83-14.95,18.28,1.29,5.29,5.55,22.92,17,19.7s23.04-8,22.44-15.59c-.6-7.59-13.22-28.2-24.48-22.39Z"/><path class="g" d="M55.81,118c.88,1.36,2.21,3.75-1.57,5.09s-4.2,1.08-5.11-.37c-.91-1.45-2.14-3.61-1.05-4.73,1.09-1.12,3.53-4.41,5.71-2.44,.69,.63,2.03,2.45,2.03,2.45Z"/></g><g><path class="g" d="M109.44,64.43c-.08-.58-.29-4.19-2.82-4.63-2.53-.44-4.83,.1-6.87,.85-2.03,.75-2.42,2.97-2.63,4.05-.17,.83-.21,1.62-.23,3.17-.02,1.56,.33,2.22,1.54,3.3,1.2,1.08,5.48,1.51,7.36,1.43,2.03-.08,2.61-.49,3.46-1.54,1.02-1.25,.27-6.06,.19-6.64Zm-1.69,5.94c-1.24,.64-3.3,.57-5.01,.25-1.77-.33-3.15-.61-3.18-2.54-.03-1.94,.05-3.64,.57-4.34,.42-.57,.56-1.49,3.35-1.8,2.79-.3,3.76-.25,4.54,1.55,.77,1.8,.97,6.25-.28,6.89Z"/><path class="q" d="M102.71,57.95c1-.14,7.69-1.74,9.05,2.79s1.36,12.11-.47,13.41c-1.83,1.3-4.73,1.28-6.92,.94s-6.43-1.15-8.17-3.28-.24-9.11,.1-9.86,1.96-3.37,6.42-4.01Z"/></g><g><path class="g" d="M39.67,62.93c-.34-1.06-.62-3.4-4.9-4.07s-7.34-.75-8.05,3.73c-.71,4.48-.95,9.75,2.41,9.96s9-.58,9.88-1.91,1.7-4.48,.66-7.72Z"/><path class="q" d="M25.19,57.61c-3.11,2.56-2.95,13.72-1.95,14.97s1.9,3.2,5.87,2.87,9.08-.87,11.05-2.7c1.97-1.83,1.68-5.56,1.68-6.02s-.17-6.51-3.24-8.51c-2.63-1.7-9.83-3.57-13.4-.62Z"/></g><path class="g" d="M55.25,49.73c1.32-.42,2.74-.29,2.99,1.33,.25,1.62,.54,3.9-1.49,3.57s-3.28-.62-3.15-1.87-.04-2.49,1.66-3.03Z"/><g><path class="f" d="M163.75,68.78c-.11-.91-.42-3.03-3.21-2.78s-4.45,1.51-3.28,3.87,2.19,3.63,4.19,2.6,2.6-1.09,2.3-3.69Z"/><path class="u" d="M158.02,70.21c-1.41,.68-11.53,5.72-7.12,10.98,4.4,5.26,9.38,10.59,13.78,6.78,0,0,7.91-5.1,5.51-10.54-2.41-5.45-4.63-9.53-8.12-8.44-3.49,1.09-4.04,1.23-4.04,1.23Z"/></g><g><path class="u" d="M91.6,81.39c-.64,.98-1.81,2.93-.19,4.61s5.08,3.2,6.25,2.31,5.09-3.45,3.22-6.07-4.16-5.29-6.05-4.46-3.24,3.62-3.24,3.62Z"/><path class="m" d="M86.91,79.07c-1.34,2.03-3.75,6.1-.42,9.56s10.47,6.59,12.87,4.74,10.54-7.19,6.69-12.62-8.55-10.93-12.44-9.21c-3.89,1.72-6.71,7.53-6.71,7.53Z"/><path class="o" d="M80.96,91.04c5.19,5.3,13.95,10.65,18.88,7.72,4.04-2.4,17.52-10.39,11.96-19.02-5.56-8.64-12.44-16.99-18.56-14.58-6.11,2.42-19.94,18.06-12.29,25.89Z"/><path class="f" d="M90.97,78.36c.9-1.07,2.54-2.78,4.6,.01s1.96,3.19,.99,4.31-2.44,2.68-3.64,2.06-4.54-1.8-3.46-4.09c.34-.73,1.51-2.3,1.51-2.3Z"/></g><g><path class="f" d="M62,140.4c.34,1.06,.62,3.4,4.9,4.07s7.34,.75,8.05-3.73,.95-9.75-2.41-9.96-9,.58-9.88,1.91-1.7,4.48-.66,7.72Z"/><path class="o" d="M76.48,145.71c3.11-2.56,2.95-13.72,1.95-14.97s-1.9-3.2-5.87-2.87-9.08,.87-11.05,2.7c-1.97,1.83-1.68,5.56-1.68,6.02s.17,6.51,3.24,8.51c2.63,1.7,9.83,3.57,13.4,.62Z"/></g><g><path class="f" d="M133.5,51.04c.52,1.64,.96,5.25,7.56,6.28,6.6,1.02,11.34,1.15,12.42-5.76,1.09-6.92,1.47-15.05-3.71-15.37-5.19-.32-13.9,.9-15.24,2.95-1.34,2.05-2.63,6.92-1.02,11.91Z"/><path class="o" d="M155.85,59.23c4.79-3.96,4.55-21.17,3.01-23.11s-2.93-4.94-9.06-4.43-14.02,1.34-17.05,4.16c-3.03,2.82-2.59,8.58-2.59,9.29s.26,10.05,5,13.13c4.05,2.63,15.18,5.51,20.69,.96Z"/></g><path class="f" d="M23.55,46.98c1.32-.42,2.74-.29,2.99,1.33s.54,3.9-1.49,3.57-3.28-.62-3.15-1.87-.04-2.49,1.66-3.03Z"/><g><path class="d" d="M117.33,110.12c.57,.02,1.9,.01,2-1.72s-.53-2.87-2.08-2.37c-1.55,.5-2.43,1.02-1.98,2.34s.43,1.7,2.06,1.75Z"/><path class="s" d="M116.97,106.47c-.29-.93-2.46-7.59-6.09-5.37-3.63,2.22-7.35,4.8-5.41,7.84,0,0,2.41,5.32,5.97,4.34,3.56-.98,6.27-1.98,5.92-4.22s-.39-2.59-.39-2.59Z"/></g><g><path class="s" d="M161.42,51.65c-1.17-.11-3.46-.22-4.19,2.01-.73,2.23-.45,6.03,.89,6.65s5.47,2.9,6.93,0,2.74-6.2,1.12-7.48-4.75-1.17-4.75-1.17Z"/><path class="i" d="M161.27,46.39c-2.44-.23-7.19-.46-8.7,4.14-1.51,4.6-.93,12.42,1.86,13.69s11.37,5.98,14.39,0c3.02-5.98,5.69-12.77,2.32-15.41-3.36-2.65-9.86-2.42-9.86-2.42Z"/><path class="r" d="M147.81,46.74c-2.27,7.12-2.89,17.44,2.05,20.44,4.05,2.46,17.51,10.68,22.57,1.66,5.06-9.02,9.25-19.09,4.21-23.39-5.03-4.3-25.48-9.22-28.83,1.28Z"/><path class="d" d="M163.82,49.66c1.38,.3,3.67,.95,2.16,4.1s-1.92,3.25-3.37,2.92-3.54-.91-3.56-2.27-.54-4.89,2.01-5.01c.81-.04,2.76,.26,2.76,.26Z"/></g><g><path class="d" d="M127.31,67.87c.23-.54,1.92-3.73-.01-5.42-1.94-1.68-4.19-2.42-6.31-2.83-2.13-.42-3.61,1.29-4.35,2.09-.57,.62-1.02,1.28-1.84,2.6s-.87,2.07-.4,3.62c.47,1.55,3.9,4.13,5.56,5.04,1.78,.99,2.48,.94,3.76,.48,1.52-.54,3.37-5.04,3.6-5.58Zm-4.53,4.2c-1.39-.1-3.12-1.23-4.41-2.38-1.34-1.2-2.38-2.16-1.4-3.83,.98-1.67,1.93-3.08,2.74-3.42,.66-.27,1.25-.99,3.8,.2,2.55,1.19,3.35,1.74,3.08,3.68-.27,1.94-2.41,5.85-3.81,5.75Z"/><path class="r" d="M124.92,58.84c.93,.4,7.48,2.5,6.29,7.08-1.19,4.58-5.12,11.06-7.36,11.23s-4.71-1.36-6.4-2.78-4.9-4.32-5.29-7.04,4.52-7.92,5.2-8.38,3.43-1.87,7.57-.1Z"/></g><path class="d" d="M15.68,125.08c.23-.54,1.92-3.73-.01-5.42-1.94-1.68-4.19-2.42-6.31-2.83-2.13-.42-3.61,1.29-4.35,2.09-.57,.62-1.02,1.28-1.84,2.6s-.87,2.07-.4,3.62c.47,1.55,3.9,4.13,5.56,5.04,1.78,.99,2.48,.94,3.76,.48,1.52-.54,3.37-5.04,3.6-5.58Zm-4.53,4.2c-1.39-.1-3.12-1.23-4.41-2.38-1.34-1.2-2.38-2.16-1.4-3.83,.98-1.67,1.93-3.08,2.74-3.42,.66-.27,1.25-.99,3.8,.2,2.55,1.19,3.35,1.74,3.08,3.68-.27,1.94-2.41,5.85-3.81,5.75Z"/><path class="s" d="M13.28,116.05c.93,.4,7.48,2.5,6.29,7.08s-5.12,11.06-7.36,11.23-4.71-1.36-6.4-2.78-4.9-4.32-5.29-7.04c-.39-2.72,4.52-7.92,5.2-8.38s3.43-1.87,7.57-.1Z"/><g><path class="v" d="M148.54,19.27c-.87-.08-2.57-.17-3.11,1.49s-.33,4.48,.66,4.94,4.07,2.16,5.15,0c1.08-2.16,2.03-4.61,.83-5.56s-3.53-.87-3.53-.87Z"/><path class="j" d="M148.43,15.36c-1.81-.17-5.34-.34-6.46,3.08s-.69,9.23,1.38,10.17c2.07,.94,8.45,4.44,10.69,0,2.24-4.44,4.22-9.49,1.72-11.45-2.5-1.97-7.33-1.79-7.33-1.79Z"/><path class="p" d="M138.43,15.62c-1.69,5.29-2.15,12.96,1.52,15.19,3.01,1.83,13.01,7.94,16.77,1.24,3.76-6.7,6.87-14.18,3.13-17.38-3.74-3.19-18.93-6.85-21.42,.95Z"/><path class="h" d="M150.32,17.79c1.02,.22,2.72,.71,1.6,3.04-1.12,2.34-1.42,2.42-2.5,2.17s-2.63-.68-2.64-1.68-.4-3.63,1.49-3.72c.6-.03,2.05,.19,2.05,.19Z"/></g><path class="d" d="M120.47,28.16c2.17-.69,4.49-.48,4.9,2.18,.41,2.66,.89,6.4-2.45,5.86s-5.38-1.02-5.17-3.06c.2-2.04-.07-4.09,2.72-4.97Z"/><g><path class="h" d="M75.94,109.43c-.35-.47-2.76-3.17-1.28-5.27,1.48-2.1,3.49-3.35,5.45-4.26,1.97-.91,3.81,.39,4.72,.99,.7,.47,1.29,1,2.41,2.08s1.34,1.8,1.25,3.42c-.09,1.61-2.81,4.94-4.19,6.22-1.49,1.38-2.19,1.5-3.53,1.37-1.61-.16-4.48-4.09-4.83-4.56Zm5.4,3c1.33-.43,2.74-1.94,3.71-3.37,1.02-1.49,1.8-2.66,.45-4.05-1.35-1.39-2.61-2.53-3.48-2.66-.7-.1-1.45-.66-3.64,1.1-2.19,1.76-2.83,2.49-2.11,4.3,.72,1.82,3.74,5.1,5.07,4.67Z"/><path class="p" d="M76.11,100.09c-.81,.61-6.67,4.21-4.42,8.37,2.25,4.16,7.61,9.52,9.82,9.15s4.24-2.45,5.55-4.23c1.31-1.78,3.73-5.36,3.46-8.1s-6.28-6.61-7.05-6.9-3.78-1-7.37,1.71Z"/></g><g><path class="h" d="M89.96,34.04c1.08-1.38,2.78-4.69,9.46-3.34,6.68,1.35,11.27,2.91,9.86,9.92-1.41,7.01-3.92,14.94-9,13.41-5.08-1.53-13-5.78-13.56-8.22s-.07-7.56,3.24-11.78Z"/><path class="p" d="M114.27,34.11c3.19,5.49-3.14,21.89-5.3,23.2s-4.56,3.7-10.25,1.04c-5.68-2.66-12.95-6.25-14.86-10.03s.56-9.14,.81-9.81,3.81-9.54,9.44-10.81c4.82-1.08,16.49,.1,20.16,6.41Z"/></g><path class="h" d="M119.06,86.54c1.32-.42,2.74-.29,2.99,1.33s.54,3.9-1.49,3.57-3.28-.62-3.15-1.87-.04-2.49,1.66-3.03Z"/><g><path class="e" d="M20.88,102.2c-.98,.1-3.29,.25-3.67-2.74s.57-5.03,3.32-4.35,4.33,1.47,3.71,3.81c-.62,2.34-.55,2.99-3.36,3.28Z"/><path class="t" d="M21.08,95.67c.42-1.63,3.57-13.41,10.08-9.89,6.51,3.52,13.21,7.64,10.12,13.12,0,0-3.69,9.46-9.97,8.08-6.27-1.37-11.07-2.85-10.67-6.78,.4-3.93,.43-4.53,.43-4.53Z"/></g><g><path class="t" d="M66.45,26.18c1.27-.12,3.76-.24,4.55,2.19s.49,6.56-.97,7.22-5.95,3.16-7.53,0-2.97-6.74-1.21-8.13c1.76-1.4,5.16-1.27,5.16-1.27Z"/><path class="l" d="M66.61,20.46c2.65-.25,7.82-.5,9.46,4.5s1.01,13.5-2.02,14.88-12.36,6.5-15.64,0c-3.28-6.5-6.18-13.88-2.52-16.75s10.72-2.63,10.72-2.63Z"/><path class="n" d="M81.24,20.84c2.47,7.74,3.14,18.95-2.23,22.22-4.4,2.67-19.03,11.61-24.53,1.81-5.5-9.8-10.05-20.75-4.58-25.42s27.69-10.02,31.33,1.4Z"/><path class="e" d="M63.84,24.01c-1.5,.32-3.99,1.03-2.35,4.45,1.64,3.42,2.08,3.53,3.66,3.17s3.84-.99,3.86-2.46,.59-5.31-2.19-5.44c-.88-.04-2.99,.28-2.99,.28Z"/></g><g><path class="e" d="M77.29,63.98c-.08-.58-.29-4.19-2.82-4.63-2.53-.44-4.83,.1-6.87,.85-2.03,.75-2.42,2.97-2.63,4.05-.17,.83-.21,1.62-.23,3.17s.33,2.22,1.54,3.3c1.2,1.08,5.48,1.51,7.36,1.43,2.03-.08,2.61-.49,3.46-1.54,1.02-1.25,.27-6.06,.19-6.64Zm-1.69,5.94c-1.24,.64-3.3,.57-5.01,.25-1.77-.33-3.15-.61-3.18-2.54-.03-1.94,.05-3.64,.57-4.34,.42-.57,.56-1.49,3.35-1.8,2.79-.3,3.76-.25,4.54,1.55,.77,1.8,.97,6.25-.28,6.89Z"/><path class="n" d="M70.56,57.5c1-.14,7.69-1.74,9.05,2.79s1.36,12.11-.47,13.41-4.73,1.28-6.92,.94-6.43-1.15-8.17-3.28-.24-9.11,.1-9.86,1.96-3.37,6.42-4.01Z"/></g><g><path class="e" d="M130.05,92.73c.34-1.06,.62-3.4,4.9-4.07s7.34-.75,8.05,3.73,.95,9.75-2.41,9.96-9-.58-9.88-1.91-1.7-4.48-.66-7.72Z"/><path class="n" d="M144.53,87.42c3.11,2.56,2.95,13.72,1.95,14.97s-1.9,3.2-5.87,2.87-9.08-.87-11.05-2.7c-1.97-1.83-1.68-5.56-1.68-6.02s.17-6.51,3.24-8.51c2.63-1.7,9.83-3.57,13.4-.62Z"/></g><path class="e" d="M64.49,95.81c1.32-.42,2.74-.29,2.99,1.33s.54,3.9-1.49,3.57-3.28-.62-3.15-1.87-.04-2.49,1.66-3.03Z"/><g><path class="d" d="M50.56,23.67c.57-.02,1.9-.01,2,1.72,.1,1.73-.53,2.87-2.08,2.37s-2.43-1.02-1.98-2.34c.45-1.32,.43-1.7,2.06-1.75Z"/><path class="s" d="M50.2,27.32c-.29,.93-2.46,7.59-6.09,5.37s-7.35-4.8-5.41-7.84c0,0,2.41-5.32,5.97-4.34,3.56,.98,6.27,1.98,5.92,4.22s-.39,2.59-.39,2.59Z"/></g><g><path class="f" d="M111.45,17.33c.42-.83,3.41-5.74,.5-8.6-2.91-2.86-6.41-4.23-9.74-5.1-3.33-.86-5.85,1.7-7.1,2.9-.97,.93-1.73,1.93-3.17,3.94s-1.57,3.2-.98,5.7c.6,2.5,5.8,6.92,8.33,8.53,2.73,1.73,3.85,1.72,5.92,1.13,2.47-.71,5.83-7.67,6.25-8.51Zm-7.58,6.23c-2.2-.29-4.83-2.24-6.77-4.2-2.01-2.03-3.57-3.65-1.86-6.2,1.71-2.56,3.35-4.71,4.68-5.16,1.07-.36,2.08-1.45,6.01,.68,3.93,2.13,5.14,3.08,4.53,6.13-.61,3.05-4.39,9.04-6.59,8.75Z"/><path class="o" d="M108.52,2.78c1.44,.72,11.62,4.68,9.29,11.83-2.33,7.15-9.18,17.05-12.74,17.1s-7.33-2.61-9.89-5.02-7.37-7.31-7.72-11.67,7.93-12.12,9.04-12.8,5.62-2.63,12.01,.56Z"/></g></g></g></g></svg>