<?xml version="1.0" encoding="UTF-8"?><svg xmlns="http://www.w3.org/2000/svg" viewBox="0 0 122.87 151.96"><defs><style>.d{stroke:#cc553e;}.d,.e,.f,.g{fill:none;stroke-miterlimit:10;stroke-width:2px;}.e{stroke:#d47645;}.f{stroke:#c03737;}.g{stroke:#e9b65a;}</style></defs><g id="a"/><g id="b"><g id="c"><g><g><path class="e" d="M11.33,62.25c4.78,0,8.65-4.1,8.65-8.88s-3.87-8.85-8.65-8.85"/><path class="e" d="M11.33,62.25c4.78,0,8.65-4.1,8.65-8.88s-3.87-8.85-8.65-8.85"/><path class="e" d="M11.33,44.52c-3.53,0-6.38-2.66-6.38-6.18s2.86-6.1,6.38-6.1"/><path class="e" d="M4.95,68.4c0-3.52,2.86-6.15,6.38-6.15"/><path class="e" d="M11.33,32.24c4.78,0,8.65-4.15,8.65-8.93s-3.87-8.89-8.65-8.89"/><path class="e" d="M4.95,8.28c0,3.52,2.86,6.14,6.38,6.14"/></g><g><path class="g" d="M11.03,64.01c5.88,0,10.64-4.76,10.64-10.64s-4.76-10.64-10.64-10.64"/><path class="g" d="M11.03,33.95c5.88,0,10.64-4.76,10.64-10.64s-4.76-10.64-10.64-10.64"/><path class="g" d="M11.03,42.73c-2.41,0-4.36-1.97-4.36-4.39s1.95-4.39,4.36-4.39"/><path class="g" d="M11.03,12.67c-2.41,0-4.36-1.97-4.36-4.39"/><path class="g" d="M6.67,68.4c0-2.43,1.95-4.39,4.36-4.39"/></g><g><path class="f" d="M11.33,58.77c2.88,0,5.21-2.4,5.21-5.36s-2.33-5.36-5.21-5.36"/><path class="f" d="M1.45,68.39c0-5.35,4.46-9.62,9.89-9.62"/><path class="f" d="M11.45,48.04c-5.53,0-10.02-4.34-10.02-9.69s4.48-9.69,10.02-9.69"/><path class="f" d="M11.33,28.67c2.88,0,5.21-2.4,5.21-5.36s-2.33-5.36-5.21-5.36"/><path class="f" d="M1.45,8.28c0,5.38,4.46,9.67,9.89,9.67"/></g><g><path class="d" d="M11.25,60.5c3.88,0,7.03-3.19,7.03-7.13s-3.15-7.09-7.03-7.09"/><path class="d" d="M3.21,68.39c0-4.38,3.6-7.88,8.04-7.88"/><path class="d" d="M11.25,46.28c-4.44,0-8.04-3.55-8.04-7.93s3.6-7.88,8.04-7.88"/><path class="d" d="M11.25,30.46c3.88,0,7.03-3.19,7.03-7.13s-3.15-7.13-7.03-7.13"/><path class="d" d="M11.25,16.19c-4.44,0-8.04-3.53-8.04-7.91"/></g><g><g><path class="d" d="M11.33,62.25c-4.78,0-8.65-4.1-8.65-8.88s3.87-8.85,8.65-8.85"/><path class="d" d="M11.33,62.25c-4.78,0-8.65-4.1-8.65-8.88s3.87-8.85,8.65-8.85"/><path class="d" d="M11.33,44.52c3.53,0,6.38-2.66,6.38-6.18s-2.86-6.1-6.38-6.1"/><path class="d" d="M17.72,68.4c0-3.52-2.86-6.15-6.38-6.15"/><path class="d" d="M11.33,32.24c-4.78,0-8.65-4.15-8.65-8.93s3.87-8.89,8.65-8.89"/><path class="d" d="M17.72,8.28c0,3.52-2.86,6.14-6.38,6.14"/></g><g><path class="f" d="M11.64,64.01c-5.88,0-10.64-4.76-10.64-10.64s4.76-10.64,10.64-10.64"/><path class="f" d="M11.64,33.95c-5.88,0-10.64-4.76-10.64-10.64S5.76,12.67,11.64,12.67"/><path class="f" d="M11.64,42.73c2.41,0,4.36-1.97,4.36-4.39s-1.95-4.39-4.36-4.39"/><path class="f" d="M11.64,12.67c2.41,0,4.36-1.97,4.36-4.39"/><path class="f" d="M16,68.4c0-2.43-1.95-4.39-4.36-4.39"/></g><g><path class="g" d="M11.33,58.77c-2.88,0-5.21-2.4-5.21-5.36s2.33-5.36,5.21-5.36"/><path class="g" d="M21.22,68.39c0-5.35-4.46-9.62-9.89-9.62"/><path class="g" d="M11.22,48.04c5.53,0,10.02-4.34,10.02-9.69s-4.48-9.69-10.02-9.69"/><path class="g" d="M11.33,28.67c-2.88,0-5.21-2.4-5.21-5.36s2.33-5.36,5.21-5.36"/><path class="g" d="M21.22,8.28c0,5.38-4.46,9.67-9.89,9.67"/></g><g><path class="e" d="M11.42,60.5c-3.88,0-7.03-3.19-7.03-7.13s3.15-7.09,7.03-7.09"/><path class="e" d="M19.46,68.39c0-4.38-3.6-7.88-8.04-7.88"/><path class="e" d="M11.42,46.28c4.44,0,8.04-3.55,8.04-7.93s-3.6-7.88-8.04-7.88"/><path class="e" d="M11.42,30.46c-3.88,0-7.03-3.19-7.03-7.13s3.15-7.13,7.03-7.13"/><path class="e" d="M11.42,16.19c4.44,0,8.04-3.53,8.04-7.91"/></g></g><path class="g" d="M6.67,8.28c0-4.02,3.26-7.28,7.27-7.28s7.27,3.26,7.27,7.28"/><path class="e" d="M4.91,8.28c0-4.02,3.26-7.27,7.27-7.27s7.27,3.26,7.27,7.27"/><path class="d" d="M3.2,8.29C3.2,4.26,6.44,1,10.45,1s7.24,3.26,7.24,7.29"/><path class="f" d="M1.46,8.31C1.46,4.27,4.71,1,8.73,1s7.27,3.27,7.27,7.31"/><g><path class="e" d="M11.33,74.55c4.78,0,8.65,4.1,8.65,8.88s-3.87,8.85-8.65,8.85"/><path class="e" d="M11.33,74.55c4.78,0,8.65,4.1,8.65,8.88s-3.87,8.85-8.65,8.85"/><path class="e" d="M11.33,92.28c-3.53,0-6.38,2.66-6.38,6.18s2.86,6.1,6.38,6.1"/><path class="e" d="M4.95,68.4c0,3.52,2.86,6.15,6.38,6.15"/><path class="e" d="M11.33,104.56c4.78,0,8.65,4.15,8.65,8.93s-3.87,8.89-8.65,8.89"/><path class="e" d="M4.95,128.52c0-3.52,2.86-6.14,6.38-6.14"/></g><g><path class="g" d="M11.03,72.79c5.88,0,10.64,4.76,10.64,10.64s-4.76,10.64-10.64,10.64"/><path class="g" d="M11.03,102.85c5.88,0,10.64,4.76,10.64,10.64s-4.76,10.64-10.64,10.64"/><path class="g" d="M11.03,94.07c-2.41,0-4.36,1.97-4.36,4.39s1.95,4.39,4.36,4.39"/><path class="g" d="M11.03,124.13c-2.41,0-4.36,1.97-4.36,4.39"/><path class="g" d="M6.67,68.4c0,2.43,1.95,4.39,4.36,4.39"/></g><g><path class="f" d="M11.33,78.03c2.88,0,5.21,2.4,5.21,5.36s-2.33,5.36-5.21,5.36"/><path class="f" d="M1.45,68.41c0,5.35,4.46,9.62,9.89,9.62"/><path class="f" d="M11.45,88.76c-5.53,0-10.02,4.34-10.02,9.69s4.48,9.69,10.02,9.69"/><path class="f" d="M11.33,108.13c2.88,0,5.21,2.4,5.21,5.36s-2.33,5.36-5.21,5.36"/><path class="f" d="M1.45,128.52c0-5.38,4.46-9.67,9.89-9.67"/></g><g><path class="d" d="M11.25,76.3c3.88,0,7.03,3.19,7.03,7.13s-3.15,7.09-7.03,7.09"/><path class="d" d="M3.21,68.41c0,4.38,3.6,7.88,8.04,7.88"/><path class="d" d="M11.25,90.52c-4.44,0-8.04,3.55-8.04,7.93s3.6,7.88,8.04,7.88"/><path class="d" d="M11.25,106.34c3.88,0,7.03,3.19,7.03,7.13s-3.15,7.13-7.03,7.13"/><path class="d" d="M11.25,120.61c-4.44,0-8.04,3.53-8.04,7.91"/></g><g><g><path class="d" d="M11.33,74.55c-4.78,0-8.65,4.1-8.65,8.88s3.87,8.85,8.65,8.85"/><path class="d" d="M11.33,74.55c-4.78,0-8.65,4.1-8.65,8.88s3.87,8.85,8.65,8.85"/><path class="d" d="M11.33,92.28c3.53,0,6.38,2.66,6.38,6.18s-2.86,6.1-6.38,6.1"/><path class="d" d="M17.72,68.4c0,3.52-2.86,6.15-6.38,6.15"/><path class="d" d="M11.33,104.56c-4.78,0-8.65,4.15-8.65,8.93s3.87,8.89,8.65,8.89"/><path class="d" d="M17.72,128.52c0-3.52-2.86-6.14-6.38-6.14"/></g><g><path class="f" d="M11.64,72.79c-5.88,0-10.64,4.76-10.64,10.64s4.76,10.64,10.64,10.64"/><path class="f" d="M11.64,102.85c-5.88,0-10.64,4.76-10.64,10.64s4.76,10.64,10.64,10.64"/><path class="f" d="M11.64,94.07c2.41,0,4.36,1.97,4.36,4.39s-1.95,4.39-4.36,4.39"/><path class="f" d="M11.64,124.13c2.41,0,4.36,1.97,4.36,4.39"/><path class="f" d="M16,68.4c0,2.43-1.95,4.39-4.36,4.39"/></g><g><path class="g" d="M11.33,78.03c-2.88,0-5.21,2.4-5.21,5.36s2.33,5.36,5.21,5.36"/><path class="g" d="M21.22,68.41c0,5.35-4.46,9.62-9.89,9.62"/><path class="g" d="M11.22,88.76c5.53,0,10.02,4.34,10.02,9.69s-4.48,9.69-10.02,9.69"/><path class="g" d="M11.33,108.13c-2.88,0-5.21,2.4-5.21,5.36s2.33,5.36,5.21,5.36"/><path class="g" d="M21.22,128.52c0-5.38-4.46-9.67-9.89-9.67"/></g><g><path class="e" d="M11.42,76.3c-3.88,0-7.03,3.19-7.03,7.13s3.15,7.09,7.03,7.09"/><path class="e" d="M19.46,68.41c0,4.38-3.6,7.88-8.04,7.88"/><path class="e" d="M11.42,90.52c4.44,0,8.04,3.55,8.04,7.93s-3.6,7.88-8.04,7.88"/><path class="e" d="M11.42,106.34c-3.88,0-7.03,3.19-7.03,7.13s3.15,7.13,7.03,7.13"/><path class="e" d="M11.42,120.61c4.44,0,8.04,3.53,8.04,7.91"/></g></g><path class="g" d="M6.67,128.52c0,4.02,3.26,7.28,7.27,7.28s7.27-3.26,7.27-7.28"/><path class="e" d="M4.91,128.52c0,4.02,3.26,7.27,7.27,7.27s7.27-3.26,7.27-7.27"/><path class="d" d="M3.2,128.52c0,4.02,3.24,7.29,7.24,7.29s7.24-3.26,7.24-7.29"/><path class="f" d="M1.46,128.49c0,4.04,3.26,7.31,7.27,7.31s7.27-3.27,7.27-7.31"/><g><path class="e" d="M36.23,77.41c4.78,0,8.65-4.1,8.65-8.88s-3.87-8.85-8.65-8.85"/><path class="e" d="M36.23,77.41c4.78,0,8.65-4.1,8.65-8.88s-3.87-8.85-8.65-8.85"/><path class="e" d="M36.23,59.67c-3.53,0-6.38-2.66-6.38-6.18s2.86-6.1,6.38-6.1"/><path class="e" d="M29.85,83.56c0-3.52,2.86-6.15,6.38-6.15"/><path class="e" d="M36.23,47.4c4.78,0,8.65-4.15,8.65-8.93s-3.87-8.89-8.65-8.89"/><path class="e" d="M29.85,23.44c0,3.52,2.86,6.14,6.38,6.14"/></g><g><path class="g" d="M35.92,79.17c5.88,0,10.64-4.76,10.64-10.64s-4.76-10.64-10.64-10.64"/><path class="g" d="M35.92,49.1c5.88,0,10.64-4.76,10.64-10.64s-4.76-10.64-10.64-10.64"/><path class="g" d="M35.92,57.89c-2.41,0-4.36-1.97-4.36-4.39s1.95-4.39,4.36-4.39"/><path class="g" d="M35.92,27.83c-2.41,0-4.36-1.97-4.36-4.39"/><path class="g" d="M31.57,83.56c0-2.43,1.95-4.39,4.36-4.39"/></g><g><path class="f" d="M36.23,73.92c2.88,0,5.21-2.4,5.21-5.36s-2.33-5.36-5.21-5.36"/><path class="f" d="M26.34,83.54c0-5.35,4.46-9.62,9.89-9.62"/><path class="f" d="M36.35,63.2c-5.53,0-10.02-4.34-10.02-9.69s4.48-9.69,10.02-9.69"/><path class="f" d="M36.23,43.83c2.88,0,5.21-2.4,5.21-5.36s-2.33-5.36-5.21-5.36"/><path class="f" d="M26.34,23.44c0,5.38,4.46,9.67,9.89,9.67"/></g><g><path class="d" d="M36.14,75.66c3.88,0,7.03-3.19,7.03-7.13s-3.15-7.09-7.03-7.09"/><path class="d" d="M28.1,83.54c0-4.38,3.6-7.88,8.04-7.88"/><path class="d" d="M36.14,61.44c-4.44,0-8.04-3.55-8.04-7.93s3.6-7.88,8.04-7.88"/><path class="d" d="M36.14,45.62c3.88,0,7.03-3.19,7.03-7.13s-3.15-7.13-7.03-7.13"/><path class="d" d="M36.14,31.34c-4.44,0-8.04-3.53-8.04-7.91"/></g><g><g><path class="d" d="M36.23,77.41c-4.78,0-8.65-4.1-8.65-8.88s3.87-8.85,8.65-8.85"/><path class="d" d="M36.23,77.41c-4.78,0-8.65-4.1-8.65-8.88s3.87-8.85,8.65-8.85"/><path class="d" d="M36.23,59.67c3.53,0,6.38-2.66,6.38-6.18s-2.86-6.1-6.38-6.1"/><path class="d" d="M42.61,83.56c0-3.52-2.86-6.15-6.38-6.15"/><path class="d" d="M36.23,47.4c-4.78,0-8.65-4.15-8.65-8.93s3.87-8.89,8.65-8.89"/><path class="d" d="M42.61,23.44c0,3.52-2.86,6.14-6.38,6.14"/></g><g><path class="f" d="M36.53,79.17c-5.88,0-10.64-4.76-10.64-10.64s4.76-10.64,10.64-10.64"/><path class="f" d="M36.53,49.1c-5.88,0-10.64-4.76-10.64-10.64s4.76-10.64,10.64-10.64"/><path class="f" d="M36.53,57.89c2.41,0,4.36-1.97,4.36-4.39s-1.95-4.39-4.36-4.39"/><path class="f" d="M36.53,27.83c2.41,0,4.36-1.97,4.36-4.39"/><path class="f" d="M40.89,83.56c0-2.43-1.95-4.39-4.36-4.39"/></g><g><path class="g" d="M36.23,73.92c-2.88,0-5.21-2.4-5.21-5.36s2.33-5.36,5.21-5.36"/><path class="g" d="M46.12,83.54c0-5.35-4.46-9.62-9.89-9.62"/><path class="g" d="M36.11,63.2c5.53,0,10.02-4.34,10.02-9.69s-4.48-9.69-10.02-9.69"/><path class="g" d="M36.23,43.83c-2.88,0-5.21-2.4-5.21-5.36s2.33-5.36,5.21-5.36"/><path class="g" d="M46.12,23.44c0,5.38-4.46,9.67-9.89,9.67"/></g><g><path class="e" d="M36.32,75.66c-3.88,0-7.03-3.19-7.03-7.13s3.15-7.09,7.03-7.09"/><path class="e" d="M44.36,83.54c0-4.38-3.6-7.88-8.04-7.88"/><path class="e" d="M36.32,61.44c4.44,0,8.04-3.55,8.04-7.93s-3.6-7.88-8.04-7.88"/><path class="e" d="M36.32,45.62c-3.88,0-7.03-3.19-7.03-7.13s3.15-7.13,7.03-7.13"/><path class="e" d="M36.32,31.34c4.44,0,8.04-3.53,8.04-7.91"/></g></g><path class="g" d="M31.57,23.44c0-4.02,3.26-7.28,7.27-7.28s7.27,3.26,7.27,7.28"/><path class="e" d="M29.8,23.44c0-4.02,3.26-7.27,7.27-7.27s7.27,3.26,7.27,7.27"/><path class="d" d="M28.1,23.44c0-4.02,3.24-7.29,7.24-7.29s7.24,3.26,7.24,7.29"/><path class="f" d="M26.35,23.47c0-4.04,3.26-7.31,7.27-7.31s7.27,3.27,7.27,7.31"/><g><path class="e" d="M36.23,89.7c4.78,0,8.65,4.1,8.65,8.88s-3.87,8.85-8.65,8.85"/><path class="e" d="M36.23,89.7c4.78,0,8.65,4.1,8.65,8.88s-3.87,8.85-8.65,8.85"/><path class="e" d="M36.23,107.44c-3.53,0-6.38,2.66-6.38,6.18s2.86,6.1,6.38,6.1"/><path class="e" d="M29.85,83.56c0,3.52,2.86,6.15,6.38,6.15"/><path class="e" d="M36.23,119.72c4.78,0,8.65,4.15,8.65,8.93s-3.87,8.89-8.65,8.89"/><path class="e" d="M29.85,143.68c0-3.52,2.86-6.14,6.38-6.14"/></g><g><path class="g" d="M35.92,87.95c5.88,0,10.64,4.76,10.64,10.64s-4.76,10.64-10.64,10.64"/><path class="g" d="M35.92,118.01c5.88,0,10.64,4.76,10.64,10.64s-4.76,10.64-10.64,10.64"/><path class="g" d="M35.92,109.23c-2.41,0-4.36,1.97-4.36,4.39s1.95,4.39,4.36,4.39"/><path class="g" d="M35.92,139.29c-2.41,0-4.36,1.97-4.36,4.39"/><path class="g" d="M31.57,83.56c0,2.43,1.95,4.39,4.36,4.39"/></g><g><path class="f" d="M36.23,93.19c2.88,0,5.21,2.4,5.21,5.36s-2.33,5.36-5.21,5.36"/><path class="f" d="M26.34,83.57c0,5.35,4.46,9.62,9.89,9.62"/><path class="f" d="M36.35,103.91c-5.53,0-10.02,4.34-10.02,9.69s4.48,9.69,10.02,9.69"/><path class="f" d="M36.23,123.29c2.88,0,5.21,2.4,5.21,5.36s-2.33,5.36-5.21,5.36"/><path class="f" d="M26.34,143.68c0-5.38,4.46-9.67,9.89-9.67"/></g><g><path class="d" d="M36.14,91.45c3.88,0,7.03,3.19,7.03,7.13s-3.15,7.09-7.03,7.09"/><path class="d" d="M28.1,83.57c0,4.38,3.6,7.88,8.04,7.88"/><path class="d" d="M36.14,105.68c-4.44,0-8.04,3.55-8.04,7.93s3.6,7.88,8.04,7.88"/><path class="d" d="M36.14,121.5c3.88,0,7.03,3.19,7.03,7.13s-3.15,7.13-7.03,7.13"/><path class="d" d="M36.14,135.77c-4.44,0-8.04,3.53-8.04,7.91"/></g><g><g><path class="d" d="M36.23,89.7c-4.78,0-8.65,4.1-8.65,8.88s3.87,8.85,8.65,8.85"/><path class="d" d="M36.23,89.7c-4.78,0-8.65,4.1-8.65,8.88s3.87,8.85,8.65,8.85"/><path class="d" d="M36.23,107.44c3.53,0,6.38,2.66,6.38,6.18s-2.86,6.1-6.38,6.1"/><path class="d" d="M42.61,83.56c0,3.52-2.86,6.15-6.38,6.15"/><path class="d" d="M36.23,119.72c-4.78,0-8.65,4.15-8.65,8.93s3.87,8.89,8.65,8.89"/><path class="d" d="M42.61,143.68c0-3.52-2.86-6.14-6.38-6.14"/></g><g><path class="f" d="M36.53,87.95c-5.88,0-10.64,4.76-10.64,10.64s4.76,10.64,10.64,10.64"/><path class="f" d="M36.53,118.01c-5.88,0-10.64,4.76-10.64,10.64s4.76,10.64,10.64,10.64"/><path class="f" d="M36.53,109.23c2.41,0,4.36,1.97,4.36,4.39s-1.95,4.39-4.36,4.39"/><path class="f" d="M36.53,139.29c2.41,0,4.36,1.97,4.36,4.39"/><path class="f" d="M40.89,83.56c0,2.43-1.95,4.39-4.36,4.39"/></g><g><path class="g" d="M36.23,93.19c-2.88,0-5.21,2.4-5.21,5.36s2.33,5.36,5.21,5.36"/><path class="g" d="M46.12,83.57c0,5.35-4.46,9.62-9.89,9.62"/><path class="g" d="M36.11,103.91c5.53,0,10.02,4.34,10.02,9.69s-4.48,9.69-10.02,9.69"/><path class="g" d="M36.23,123.29c-2.88,0-5.21,2.4-5.21,5.36s2.33,5.36,5.21,5.36"/><path class="g" d="M46.12,143.68c0-5.38-4.46-9.67-9.89-9.67"/></g><g><path class="e" d="M36.32,91.45c-3.88,0-7.03,3.19-7.03,7.13s3.15,7.09,7.03,7.09"/><path class="e" d="M44.36,83.57c0,4.38-3.6,7.88-8.04,7.88"/><path class="e" d="M36.32,105.68c4.44,0,8.04,3.55,8.04,7.93s-3.6,7.88-8.04,7.88"/><path class="e" d="M36.32,121.5c-3.88,0-7.03,3.19-7.03,7.13s3.15,7.13,7.03,7.13"/><path class="e" d="M36.32,135.77c4.44,0,8.04,3.53,8.04,7.91"/></g></g><path class="g" d="M31.57,143.68c0,4.02,3.26,7.28,7.27,7.28s7.27-3.26,7.27-7.28"/><path class="e" d="M29.8,143.68c0,4.02,3.26,7.27,7.27,7.27s7.27-3.26,7.27-7.27"/><path class="d" d="M28.1,143.67c0,4.02,3.24,7.29,7.24,7.29s7.24-3.26,7.24-7.29"/><path class="f" d="M26.35,143.64c0,4.04,3.26,7.31,7.27,7.31s7.27-3.27,7.27-7.31"/><g><path class="e" d="M61.79,62.41c4.78,0,8.65-4.1,8.65-8.88s-3.87-8.85-8.65-8.85"/><path class="e" d="M61.79,62.41c4.78,0,8.65-4.1,8.65-8.88s-3.87-8.85-8.65-8.85"/><path class="e" d="M61.79,44.67c-3.53,0-6.38-2.66-6.38-6.18s2.86-6.1,6.38-6.1"/><path class="e" d="M55.4,68.55c0-3.52,2.86-6.15,6.38-6.15"/><path class="e" d="M61.79,32.4c4.78,0,8.65-4.15,8.65-8.93s-3.87-8.89-8.65-8.89"/><path class="e" d="M55.4,8.43c0,3.52,2.86,6.14,6.38,6.14"/></g><g><path class="g" d="M61.48,64.16c5.88,0,10.64-4.76,10.64-10.64s-4.76-10.64-10.64-10.64"/><path class="g" d="M61.48,34.1c5.88,0,10.64-4.76,10.64-10.64s-4.76-10.64-10.64-10.64"/><path class="g" d="M61.48,42.89c-2.41,0-4.36-1.97-4.36-4.39s1.95-4.39,4.36-4.39"/><path class="g" d="M61.48,12.82c-2.41,0-4.36-1.97-4.36-4.39"/><path class="g" d="M57.12,68.55c0-2.43,1.95-4.39,4.36-4.39"/></g><g><path class="f" d="M61.79,58.92c2.88,0,5.21-2.4,5.21-5.36s-2.33-5.36-5.21-5.36"/><path class="f" d="M51.9,68.54c0-5.35,4.46-9.62,9.89-9.62"/><path class="f" d="M61.9,48.2c-5.53,0-10.02-4.34-10.02-9.69s4.48-9.69,10.02-9.69"/><path class="f" d="M61.79,28.83c2.88,0,5.21-2.4,5.21-5.36s-2.33-5.36-5.21-5.36"/><path class="f" d="M51.9,8.43c0,5.38,4.46,9.67,9.89,9.67"/></g><g><path class="d" d="M61.7,60.66c3.88,0,7.03-3.19,7.03-7.13s-3.15-7.09-7.03-7.09"/><path class="d" d="M53.66,68.54c0-4.38,3.6-7.88,8.04-7.88"/><path class="d" d="M61.7,46.44c-4.44,0-8.04-3.55-8.04-7.93s3.6-7.88,8.04-7.88"/><path class="d" d="M61.7,30.62c3.88,0,7.03-3.19,7.03-7.13s-3.15-7.13-7.03-7.13"/><path class="d" d="M61.7,16.34c-4.44,0-8.04-3.53-8.04-7.91"/></g><g><g><path class="d" d="M61.79,62.41c-4.78,0-8.65-4.1-8.65-8.88s3.87-8.85,8.65-8.85"/><path class="d" d="M61.79,62.41c-4.78,0-8.65-4.1-8.65-8.88s3.87-8.85,8.65-8.85"/><path class="d" d="M61.79,44.67c3.53,0,6.38-2.66,6.38-6.18s-2.86-6.1-6.38-6.1"/><path class="d" d="M68.17,68.55c0-3.52-2.86-6.15-6.38-6.15"/><path class="d" d="M61.79,32.4c-4.78,0-8.65-4.15-8.65-8.93s3.87-8.89,8.65-8.89"/><path class="d" d="M68.17,8.43c0,3.52-2.86,6.14-6.38,6.14"/></g><g><path class="f" d="M62.09,64.16c-5.88,0-10.64-4.76-10.64-10.64s4.76-10.64,10.64-10.64"/><path class="f" d="M62.09,34.1c-5.88,0-10.64-4.76-10.64-10.64s4.76-10.64,10.64-10.64"/><path class="f" d="M62.09,42.89c2.41,0,4.36-1.97,4.36-4.39s-1.95-4.39-4.36-4.39"/><path class="f" d="M62.09,12.82c2.41,0,4.36-1.97,4.36-4.39"/><path class="f" d="M66.45,68.55c0-2.43-1.95-4.39-4.36-4.39"/></g><g><path class="g" d="M61.79,58.92c-2.88,0-5.21-2.4-5.21-5.36s2.33-5.36,5.21-5.36"/><path class="g" d="M71.67,68.54c0-5.35-4.46-9.62-9.89-9.62"/><path class="g" d="M61.67,48.2c5.53,0,10.02-4.34,10.02-9.69s-4.48-9.69-10.02-9.69"/><path class="g" d="M61.79,28.83c-2.88,0-5.21-2.4-5.21-5.36s2.33-5.36,5.21-5.36"/><path class="g" d="M71.67,8.43c0,5.38-4.46,9.67-9.89,9.67"/></g><g><path class="e" d="M61.87,60.66c-3.88,0-7.03-3.19-7.03-7.13s3.15-7.09,7.03-7.09"/><path class="e" d="M69.91,68.54c0-4.38-3.6-7.88-8.04-7.88"/><path class="e" d="M61.87,46.44c4.44,0,8.04-3.55,8.04-7.93s-3.6-7.88-8.04-7.88"/><path class="e" d="M61.87,30.62c-3.88,0-7.03-3.19-7.03-7.13s3.15-7.13,7.03-7.13"/><path class="e" d="M61.87,16.34c4.44,0,8.04-3.53,8.04-7.91"/></g></g><path class="g" d="M57.12,8.43c0-4.02,3.26-7.28,7.27-7.28s7.27,3.26,7.27,7.28"/><path class="e" d="M55.36,8.43c0-4.02,3.26-7.27,7.27-7.27s7.27,3.26,7.27,7.27"/><path class="d" d="M53.65,8.44c0-4.02,3.24-7.29,7.24-7.29s7.24,3.26,7.24,7.29"/><path class="f" d="M51.91,8.47c0-4.04,3.26-7.31,7.27-7.31s7.27,3.27,7.27,7.31"/><g><path class="e" d="M61.79,74.7c4.78,0,8.65,4.1,8.65,8.88s-3.87,8.85-8.65,8.85"/><path class="e" d="M61.79,74.7c4.78,0,8.65,4.1,8.65,8.88s-3.87,8.85-8.65,8.85"/><path class="e" d="M61.79,92.44c-3.53,0-6.38,2.66-6.38,6.18s2.86,6.1,6.38,6.1"/><path class="e" d="M55.4,68.55c0,3.52,2.86,6.15,6.38,6.15"/><path class="e" d="M61.79,104.71c4.78,0,8.65,4.15,8.65,8.93s-3.87,8.89-8.65,8.89"/><path class="e" d="M55.4,128.68c0-3.52,2.86-6.14,6.38-6.14"/></g><g><path class="g" d="M61.48,72.95c5.88,0,10.64,4.76,10.64,10.64s-4.76,10.64-10.64,10.64"/><path class="g" d="M61.48,103.01c5.88,0,10.64,4.76,10.64,10.64s-4.76,10.64-10.64,10.64"/><path class="g" d="M61.48,94.22c-2.41,0-4.36,1.97-4.36,4.39s1.95,4.39,4.36,4.39"/><path class="g" d="M61.48,124.28c-2.41,0-4.36,1.97-4.36,4.39"/><path class="g" d="M57.12,68.55c0,2.43,1.95,4.39,4.36,4.39"/></g><g><path class="f" d="M61.79,78.19c2.88,0,5.21,2.4,5.21,5.36s-2.33,5.36-5.21,5.36"/><path class="f" d="M51.9,68.57c0,5.35,4.46,9.62,9.89,9.62"/><path class="f" d="M61.9,88.91c-5.53,0-10.02,4.34-10.02,9.69s4.48,9.69,10.02,9.69"/><path class="f" d="M61.79,108.28c2.88,0,5.21,2.4,5.21,5.36s-2.33,5.36-5.21,5.36"/><path class="f" d="M51.9,128.68c0-5.38,4.46-9.67,9.89-9.67"/></g><g><path class="d" d="M61.7,76.45c3.88,0,7.03,3.19,7.03,7.13s-3.15,7.09-7.03,7.09"/><path class="d" d="M53.66,68.57c0,4.38,3.6,7.88,8.04,7.88"/><path class="d" d="M61.7,90.67c-4.44,0-8.04,3.55-8.04,7.93s3.6,7.88,8.04,7.88"/><path class="d" d="M61.7,106.49c3.88,0,7.03,3.19,7.03,7.13s-3.15,7.13-7.03,7.13"/><path class="d" d="M61.7,120.77c-4.44,0-8.04,3.53-8.04,7.91"/></g><g><g><path class="d" d="M61.79,74.7c-4.78,0-8.65,4.1-8.65,8.88s3.87,8.85,8.65,8.85"/><path class="d" d="M61.79,74.7c-4.78,0-8.65,4.1-8.65,8.88s3.87,8.85,8.65,8.85"/><path class="d" d="M61.79,92.44c3.53,0,6.38,2.66,6.38,6.18s-2.86,6.1-6.38,6.1"/><path class="d" d="M68.17,68.55c0,3.52-2.86,6.15-6.38,6.15"/><path class="d" d="M61.79,104.71c-4.78,0-8.65,4.15-8.65,8.93s3.87,8.89,8.65,8.89"/><path class="d" d="M68.17,128.68c0-3.52-2.86-6.14-6.38-6.14"/></g><g><path class="f" d="M62.09,72.95c-5.88,0-10.64,4.76-10.64,10.64s4.76,10.64,10.64,10.64"/><path class="f" d="M62.09,103.01c-5.88,0-10.64,4.76-10.64,10.64s4.76,10.64,10.64,10.64"/><path class="f" d="M62.09,94.22c2.41,0,4.36,1.97,4.36,4.39s-1.95,4.39-4.36,4.39"/><path class="f" d="M62.09,124.28c2.41,0,4.36,1.97,4.36,4.39"/><path class="f" d="M66.45,68.55c0,2.43-1.95,4.39-4.36,4.39"/></g><g><path class="g" d="M61.79,78.19c-2.88,0-5.21,2.4-5.21,5.36s2.33,5.36,5.21,5.36"/><path class="g" d="M71.67,68.57c0,5.35-4.46,9.62-9.89,9.62"/><path class="g" d="M61.67,88.91c5.53,0,10.02,4.34,10.02,9.69s-4.48,9.69-10.02,9.69"/><path class="g" d="M61.79,108.28c-2.88,0-5.21,2.4-5.21,5.36s2.33,5.36,5.21,5.36"/><path class="g" d="M71.67,128.68c0-5.38-4.46-9.67-9.89-9.67"/></g><g><path class="e" d="M61.87,76.45c-3.88,0-7.03,3.19-7.03,7.13s3.15,7.09,7.03,7.09"/><path class="e" d="M69.91,68.57c0,4.38-3.6,7.88-8.04,7.88"/><path class="e" d="M61.87,90.67c4.44,0,8.04,3.55,8.04,7.93s-3.6,7.88-8.04,7.88"/><path class="e" d="M61.87,106.49c-3.88,0-7.03,3.19-7.03,7.13s3.15,7.13,7.03,7.13"/><path class="e" d="M61.87,120.77c4.44,0,8.04,3.53,8.04,7.91"/></g></g><path class="g" d="M57.12,128.68c0,4.02,3.26,7.28,7.27,7.28s7.27-3.26,7.27-7.28"/><path class="e" d="M55.36,128.68c0,4.02,3.26,7.27,7.27,7.27s7.27-3.26,7.27-7.27"/><path class="d" d="M53.65,128.67c0,4.02,3.24,7.29,7.24,7.29s7.24-3.26,7.24-7.29"/><path class="f" d="M51.91,128.64c0,4.04,3.26,7.31,7.27,7.31s7.27-3.27,7.27-7.31"/><g><path class="e" d="M87.21,77.34c4.78,0,8.65-4.1,8.65-8.88s-3.87-8.85-8.65-8.85"/><path class="e" d="M87.21,77.34c4.78,0,8.65-4.1,8.65-8.88s-3.87-8.85-8.65-8.85"/><path class="e" d="M87.21,59.61c-3.53,0-6.38-2.66-6.38-6.18s2.86-6.1,6.38-6.1"/><path class="e" d="M80.82,83.49c0-3.52,2.86-6.15,6.38-6.15"/><path class="e" d="M87.21,47.33c4.78,0,8.65-4.15,8.65-8.93s-3.87-8.89-8.65-8.89"/><path class="e" d="M80.82,23.37c0,3.52,2.86,6.14,6.38,6.14"/></g><g><path class="g" d="M86.9,79.1c5.88,0,10.64-4.76,10.64-10.64s-4.76-10.64-10.64-10.64"/><path class="g" d="M86.9,49.04c5.88,0,10.64-4.76,10.64-10.64s-4.76-10.64-10.64-10.64"/><path class="g" d="M86.9,57.82c-2.41,0-4.36-1.97-4.36-4.39s1.95-4.39,4.36-4.39"/><path class="g" d="M86.9,27.76c-2.41,0-4.36-1.97-4.36-4.39"/><path class="g" d="M82.54,83.49c0-2.43,1.95-4.39,4.36-4.39"/></g><g><path class="f" d="M87.21,73.86c2.88,0,5.21-2.4,5.21-5.36s-2.33-5.36-5.21-5.36"/><path class="f" d="M77.32,83.48c0-5.35,4.46-9.62,9.89-9.62"/><path class="f" d="M87.33,63.13c-5.53,0-10.02-4.34-10.02-9.69s4.48-9.69,10.02-9.69"/><path class="f" d="M87.21,43.76c2.88,0,5.21-2.4,5.21-5.36s-2.33-5.36-5.21-5.36"/><path class="f" d="M77.32,23.37c0,5.38,4.46,9.67,9.89,9.67"/></g><g><path class="d" d="M87.12,75.59c3.88,0,7.03-3.19,7.03-7.13s-3.15-7.09-7.03-7.09"/><path class="d" d="M79.08,83.48c0-4.38,3.6-7.88,8.04-7.88"/><path class="d" d="M87.12,61.37c-4.44,0-8.04-3.55-8.04-7.93s3.6-7.88,8.04-7.88"/><path class="d" d="M87.12,45.55c3.88,0,7.03-3.19,7.03-7.13s-3.15-7.13-7.03-7.13"/><path class="d" d="M87.12,31.28c-4.44,0-8.04-3.53-8.04-7.91"/></g><g><g><path class="d" d="M87.21,77.34c-4.78,0-8.65-4.1-8.65-8.88s3.87-8.85,8.65-8.85"/><path class="d" d="M87.21,77.34c-4.78,0-8.65-4.1-8.65-8.88s3.87-8.85,8.65-8.85"/><path class="d" d="M87.21,59.61c3.53,0,6.38-2.66,6.38-6.18s-2.86-6.1-6.38-6.1"/><path class="d" d="M93.59,83.49c0-3.52-2.86-6.15-6.38-6.15"/><path class="d" d="M87.21,47.33c-4.78,0-8.65-4.15-8.65-8.93s3.87-8.89,8.65-8.89"/><path class="d" d="M93.59,23.37c0,3.52-2.86,6.14-6.38,6.14"/></g><g><path class="f" d="M87.51,79.1c-5.88,0-10.64-4.76-10.64-10.64s4.76-10.64,10.64-10.64"/><path class="f" d="M87.51,49.04c-5.88,0-10.64-4.76-10.64-10.64s4.76-10.64,10.64-10.64"/><path class="f" d="M87.51,57.82c2.41,0,4.36-1.97,4.36-4.39s-1.95-4.39-4.36-4.39"/><path class="f" d="M87.51,27.76c2.41,0,4.36-1.97,4.36-4.39"/><path class="f" d="M91.87,83.49c0-2.43-1.95-4.39-4.36-4.39"/></g><g><path class="g" d="M87.21,73.86c-2.88,0-5.21-2.4-5.21-5.36s2.33-5.36,5.21-5.36"/><path class="g" d="M97.09,83.48c0-5.35-4.46-9.62-9.89-9.62"/><path class="g" d="M87.09,63.13c5.53,0,10.02-4.34,10.02-9.69s-4.48-9.69-10.02-9.69"/><path class="g" d="M87.21,43.76c-2.88,0-5.21-2.4-5.21-5.36s2.33-5.36,5.21-5.36"/><path class="g" d="M97.09,23.37c0,5.38-4.46,9.67-9.89,9.67"/></g><g><path class="e" d="M87.3,75.59c-3.88,0-7.03-3.19-7.03-7.13s3.15-7.09,7.03-7.09"/><path class="e" d="M95.34,83.48c0-4.38-3.6-7.88-8.04-7.88"/><path class="e" d="M87.3,61.37c4.44,0,8.04-3.55,8.04-7.93s-3.6-7.88-8.04-7.88"/><path class="e" d="M87.3,45.55c-3.88,0-7.03-3.19-7.03-7.13s3.15-7.13,7.03-7.13"/><path class="e" d="M87.3,31.28c4.44,0,8.04-3.53,8.04-7.91"/></g></g><path class="g" d="M82.54,23.37c0-4.02,3.26-7.28,7.27-7.28s7.27,3.26,7.27,7.28"/><path class="e" d="M80.78,23.37c0-4.02,3.26-7.27,7.27-7.27s7.27,3.26,7.27,7.27"/><path class="d" d="M79.08,23.37c0-4.02,3.24-7.29,7.24-7.29s7.24,3.26,7.24,7.29"/><path class="f" d="M77.33,23.4c0-4.04,3.26-7.31,7.27-7.31s7.27,3.27,7.27,7.31"/><g><path class="e" d="M87.21,89.64c4.78,0,8.65,4.1,8.65,8.88s-3.87,8.85-8.65,8.85"/><path class="e" d="M87.21,89.64c4.78,0,8.65,4.1,8.65,8.88s-3.87,8.85-8.65,8.85"/><path class="e" d="M87.21,107.37c-3.53,0-6.38,2.66-6.38,6.18s2.86,6.1,6.38,6.1"/><path class="e" d="M80.82,83.49c0,3.52,2.86,6.15,6.38,6.15"/><path class="e" d="M87.21,119.65c4.78,0,8.65,4.15,8.65,8.93s-3.87,8.89-8.65,8.89"/><path class="e" d="M80.82,143.61c0-3.52,2.86-6.14,6.38-6.14"/></g><g><path class="g" d="M86.9,87.88c5.88,0,10.64,4.76,10.64,10.64s-4.76,10.64-10.64,10.64"/><path class="g" d="M86.9,117.94c5.88,0,10.64,4.76,10.64,10.64s-4.76,10.64-10.64,10.64"/><path class="g" d="M86.9,109.16c-2.41,0-4.36,1.97-4.36,4.39s1.95,4.39,4.36,4.39"/><path class="g" d="M86.9,139.22c-2.41,0-4.36,1.97-4.36,4.39"/><path class="g" d="M82.54,83.49c0,2.43,1.95,4.39,4.36,4.39"/></g><g><path class="f" d="M87.21,93.12c2.88,0,5.21,2.4,5.21,5.36s-2.33,5.36-5.21,5.36"/><path class="f" d="M77.32,83.5c0,5.35,4.46,9.62,9.89,9.62"/><path class="f" d="M87.33,103.85c-5.53,0-10.02,4.34-10.02,9.69s4.48,9.69,10.02,9.69"/><path class="f" d="M87.21,123.22c2.88,0,5.21,2.4,5.21,5.36s-2.33,5.36-5.21,5.36"/><path class="f" d="M77.32,143.61c0-5.38,4.46-9.67,9.89-9.67"/></g><g><path class="d" d="M87.12,91.39c3.88,0,7.03,3.19,7.03,7.13s-3.15,7.09-7.03,7.09"/><path class="d" d="M79.08,83.5c0,4.38,3.6,7.88,8.04,7.88"/><path class="d" d="M87.12,105.61c-4.44,0-8.04,3.55-8.04,7.93s3.6,7.88,8.04,7.88"/><path class="d" d="M87.12,121.43c3.88,0,7.03,3.19,7.03,7.13s-3.15,7.13-7.03,7.13"/><path class="d" d="M87.12,135.7c-4.44,0-8.04,3.53-8.04,7.91"/></g><g><g><path class="d" d="M87.21,89.64c-4.78,0-8.65,4.1-8.65,8.88s3.87,8.85,8.65,8.85"/><path class="d" d="M87.21,89.64c-4.78,0-8.65,4.1-8.65,8.88s3.87,8.85,8.65,8.85"/><path class="d" d="M87.21,107.37c3.53,0,6.38,2.66,6.38,6.18s-2.86,6.1-6.38,6.1"/><path class="d" d="M93.59,83.49c0,3.52-2.86,6.15-6.38,6.15"/><path class="d" d="M87.21,119.65c-4.78,0-8.65,4.15-8.65,8.93s3.87,8.89,8.65,8.89"/><path class="d" d="M93.59,143.61c0-3.52-2.86-6.14-6.38-6.14"/></g><g><path class="f" d="M87.51,87.88c-5.88,0-10.64,4.76-10.64,10.64s4.76,10.64,10.64,10.64"/><path class="f" d="M87.51,117.94c-5.88,0-10.64,4.76-10.64,10.64s4.76,10.64,10.64,10.64"/><path class="f" d="M87.51,109.16c2.41,0,4.36,1.97,4.36,4.39s-1.95,4.39-4.36,4.39"/><path class="f" d="M87.51,139.22c2.41,0,4.36,1.97,4.36,4.39"/><path class="f" d="M91.87,83.49c0,2.43-1.95,4.39-4.36,4.39"/></g><g><path class="g" d="M87.21,93.12c-2.88,0-5.21,2.4-5.21,5.36s2.33,5.36,5.21,5.36"/><path class="g" d="M97.09,83.5c0,5.35-4.46,9.62-9.89,9.62"/><path class="g" d="M87.09,103.85c5.53,0,10.02,4.34,10.02,9.69s-4.48,9.69-10.02,9.69"/><path class="g" d="M87.21,123.22c-2.88,0-5.21,2.4-5.21,5.36s2.33,5.36,5.21,5.36"/><path class="g" d="M97.09,143.61c0-5.38-4.46-9.67-9.89-9.67"/></g><g><path class="e" d="M87.3,91.39c-3.88,0-7.03,3.19-7.03,7.13s3.15,7.09,7.03,7.09"/><path class="e" d="M95.34,83.5c0,4.38-3.6,7.88-8.04,7.88"/><path class="e" d="M87.3,105.61c4.44,0,8.04,3.55,8.04,7.93s-3.6,7.88-8.04,7.88"/><path class="e" d="M87.3,121.43c-3.88,0-7.03,3.19-7.03,7.13s3.15,7.13,7.03,7.13"/><path class="e" d="M87.3,135.7c4.44,0,8.04,3.53,8.04,7.91"/></g></g><path class="g" d="M82.54,143.61c0,4.02,3.26,7.28,7.27,7.28s7.27-3.26,7.27-7.28"/><path class="e" d="M80.78,143.61c0,4.02,3.26,7.27,7.27,7.27s7.27-3.26,7.27-7.27"/><path class="d" d="M79.08,143.6c0,4.02,3.24,7.29,7.24,7.29s7.24-3.26,7.24-7.29"/><path class="f" d="M77.33,143.58c0,4.04,3.26,7.31,7.27,7.31s7.27-3.27,7.27-7.31"/><g><path class="e" d="M111.54,62.42c4.78,0,8.65-4.1,8.65-8.88s-3.87-8.85-8.65-8.85"/><path class="e" d="M111.54,62.42c4.78,0,8.65-4.1,8.65-8.88s-3.87-8.85-8.65-8.85"/><path class="e" d="M111.54,44.68c-3.53,0-6.38-2.66-6.38-6.18s2.86-6.1,6.38-6.1"/><path class="e" d="M105.16,68.57c0-3.52,2.86-6.15,6.38-6.15"/><path class="e" d="M111.54,32.41c4.78,0,8.65-4.15,8.65-8.93s-3.87-8.89-8.65-8.89"/><path class="e" d="M105.16,8.45c0,3.52,2.86,6.14,6.38,6.14"/></g><g><path class="g" d="M111.23,64.18c5.88,0,10.64-4.76,10.64-10.64s-4.76-10.64-10.64-10.64"/><path class="g" d="M111.23,34.11c5.88,0,10.64-4.76,10.64-10.64s-4.76-10.64-10.64-10.64"/><path class="g" d="M111.23,42.9c-2.41,0-4.36-1.97-4.36-4.39s1.95-4.39,4.36-4.39"/><path class="g" d="M111.23,12.84c-2.41,0-4.36-1.97-4.36-4.39"/><path class="g" d="M106.88,68.57c0-2.43,1.95-4.39,4.36-4.39"/></g><g><path class="f" d="M111.54,58.93c2.88,0,5.21-2.4,5.21-5.36s-2.33-5.36-5.21-5.36"/><path class="f" d="M101.65,68.55c0-5.35,4.46-9.62,9.89-9.62"/><path class="f" d="M111.66,48.21c-5.53,0-10.02-4.34-10.02-9.69s4.48-9.69,10.02-9.69"/><path class="f" d="M111.54,28.84c2.88,0,5.21-2.4,5.21-5.36s-2.33-5.36-5.21-5.36"/><path class="f" d="M101.65,8.45c0,5.38,4.46,9.67,9.89,9.67"/></g><g><path class="d" d="M111.45,60.67c3.88,0,7.03-3.19,7.03-7.13s-3.15-7.09-7.03-7.09"/><path class="d" d="M103.41,68.55c0-4.38,3.6-7.88,8.04-7.88"/><path class="d" d="M111.45,46.45c-4.44,0-8.04-3.55-8.04-7.93s3.6-7.88,8.04-7.88"/><path class="d" d="M111.45,30.63c3.88,0,7.03-3.19,7.03-7.13s-3.15-7.13-7.03-7.13"/><path class="d" d="M111.45,16.35c-4.44,0-8.04-3.53-8.04-7.91"/></g><g><g><path class="d" d="M111.54,62.42c-4.78,0-8.65-4.1-8.65-8.88s3.87-8.85,8.65-8.85"/><path class="d" d="M111.54,62.42c-4.78,0-8.65-4.1-8.65-8.88s3.87-8.85,8.65-8.85"/><path class="d" d="M111.54,44.68c3.53,0,6.38-2.66,6.38-6.18s-2.86-6.1-6.38-6.1"/><path class="d" d="M117.92,68.57c0-3.52-2.86-6.15-6.38-6.15"/><path class="d" d="M111.54,32.41c-4.78,0-8.65-4.15-8.65-8.93s3.87-8.89,8.65-8.89"/><path class="d" d="M117.92,8.45c0,3.52-2.86,6.14-6.38,6.14"/></g><g><path class="f" d="M111.84,64.18c-5.88,0-10.64-4.76-10.64-10.64s4.76-10.64,10.64-10.64"/><path class="f" d="M111.84,34.11c-5.88,0-10.64-4.76-10.64-10.64s4.76-10.64,10.64-10.64"/><path class="f" d="M111.84,42.9c2.41,0,4.36-1.97,4.36-4.39s-1.95-4.39-4.36-4.39"/><path class="f" d="M111.84,12.84c2.41,0,4.36-1.97,4.36-4.39"/><path class="f" d="M116.2,68.57c0-2.43-1.95-4.39-4.36-4.39"/></g><g><path class="g" d="M111.54,58.93c-2.88,0-5.21-2.4-5.21-5.36s2.33-5.36,5.21-5.36"/><path class="g" d="M121.42,68.55c0-5.35-4.46-9.62-9.89-9.62"/><path class="g" d="M111.42,48.21c5.53,0,10.02-4.34,10.02-9.69s-4.48-9.69-10.02-9.69"/><path class="g" d="M111.54,28.84c-2.88,0-5.21-2.4-5.21-5.36s2.33-5.36,5.21-5.36"/><path class="g" d="M121.42,8.45c0,5.38-4.46,9.67-9.89,9.67"/></g><g><path class="e" d="M111.63,60.67c-3.88,0-7.03-3.19-7.03-7.13s3.15-7.09,7.03-7.09"/><path class="e" d="M119.67,68.55c0-4.38-3.6-7.88-8.04-7.88"/><path class="e" d="M111.63,46.45c4.44,0,8.04-3.55,8.04-7.93s-3.6-7.88-8.04-7.88"/><path class="e" d="M111.63,30.63c-3.88,0-7.03-3.19-7.03-7.13s3.15-7.13,7.03-7.13"/><path class="e" d="M111.63,16.35c4.44,0,8.04-3.53,8.04-7.91"/></g></g><path class="g" d="M106.88,8.45c0-4.02,3.26-7.28,7.27-7.28s7.27,3.26,7.27,7.28"/><path class="e" d="M105.11,8.45c0-4.02,3.26-7.27,7.27-7.27s7.27,3.26,7.27,7.27"/><path class="d" d="M103.41,8.45c0-4.02,3.24-7.29,7.24-7.29s7.24,3.26,7.24,7.29"/><path class="f" d="M101.66,8.48c0-4.04,3.26-7.31,7.27-7.31s7.27,3.27,7.27,7.31"/><g><path class="e" d="M111.54,74.71c4.78,0,8.65,4.1,8.65,8.88s-3.87,8.85-8.65,8.85"/><path class="e" d="M111.54,74.71c4.78,0,8.65,4.1,8.65,8.88s-3.87,8.85-8.65,8.85"/><path class="e" d="M111.54,92.45c-3.53,0-6.38,2.66-6.38,6.18s2.86,6.1,6.38,6.1"/><path class="e" d="M105.16,68.57c0,3.52,2.86,6.15,6.38,6.15"/><path class="e" d="M111.54,104.73c4.78,0,8.65,4.15,8.65,8.93s-3.87,8.89-8.65,8.89"/><path class="e" d="M105.16,128.69c0-3.52,2.86-6.14,6.38-6.14"/></g><g><path class="g" d="M111.23,72.96c5.88,0,10.64,4.76,10.64,10.64s-4.76,10.64-10.64,10.64"/><path class="g" d="M111.23,103.02c5.88,0,10.64,4.76,10.64,10.64s-4.76,10.64-10.64,10.64"/><path class="g" d="M111.23,94.24c-2.41,0-4.36,1.97-4.36,4.39s1.95,4.39,4.36,4.39"/><path class="g" d="M111.23,124.3c-2.41,0-4.36,1.97-4.36,4.39"/><path class="g" d="M106.88,68.57c0,2.43,1.95,4.39,4.36,4.39"/></g><g><path class="f" d="M111.54,78.2c2.88,0,5.21,2.4,5.21,5.36s-2.33,5.36-5.21,5.36"/><path class="f" d="M101.65,68.58c0,5.35,4.46,9.62,9.89,9.62"/><path class="f" d="M111.66,88.92c-5.53,0-10.02,4.34-10.02,9.69s4.48,9.69,10.02,9.69"/><path class="f" d="M111.54,108.3c2.88,0,5.21,2.4,5.21,5.36s-2.33,5.36-5.21,5.36"/><path class="f" d="M101.65,128.69c0-5.38,4.46-9.67,9.89-9.67"/></g><g><path class="d" d="M111.45,76.46c3.88,0,7.03,3.19,7.03,7.13s-3.15,7.09-7.03,7.09"/><path class="d" d="M103.41,68.58c0,4.38,3.6,7.88,8.04,7.88"/><path class="d" d="M111.45,90.69c-4.44,0-8.04,3.55-8.04,7.93s3.6,7.88,8.04,7.88"/><path class="d" d="M111.45,106.51c3.88,0,7.03,3.19,7.03,7.13s-3.15,7.13-7.03,7.13"/><path class="d" d="M111.45,120.78c-4.44,0-8.04,3.53-8.04,7.91"/></g><g><g><path class="d" d="M111.54,74.71c-4.78,0-8.65,4.1-8.65,8.88s3.87,8.85,8.65,8.85"/><path class="d" d="M111.54,74.71c-4.78,0-8.65,4.1-8.65,8.88s3.87,8.85,8.65,8.85"/><path class="d" d="M111.54,92.45c3.53,0,6.38,2.66,6.38,6.18s-2.86,6.1-6.38,6.1"/><path class="d" d="M117.92,68.57c0,3.52-2.86,6.15-6.38,6.15"/><path class="d" d="M111.54,104.73c-4.78,0-8.65,4.15-8.65,8.93s3.87,8.89,8.65,8.89"/><path class="d" d="M117.92,128.69c0-3.52-2.86-6.14-6.38-6.14"/></g><g><path class="f" d="M111.84,72.96c-5.88,0-10.64,4.76-10.64,10.64s4.76,10.64,10.64,10.64"/><path class="f" d="M111.84,103.02c-5.88,0-10.64,4.76-10.64,10.64s4.76,10.64,10.64,10.64"/><path class="f" d="M111.84,94.24c2.41,0,4.36,1.97,4.36,4.39s-1.95,4.39-4.36,4.39"/><path class="f" d="M111.84,124.3c2.41,0,4.36,1.97,4.36,4.39"/><path class="f" d="M116.2,68.57c0,2.43-1.95,4.39-4.36,4.39"/></g><g><path class="g" d="M111.54,78.2c-2.88,0-5.21,2.4-5.21,5.36s2.33,5.36,5.21,5.36"/><path class="g" d="M121.42,68.58c0,5.35-4.46,9.62-9.89,9.62"/><path class="g" d="M111.42,88.92c5.53,0,10.02,4.34,10.02,9.69s-4.48,9.69-10.02,9.69"/><path class="g" d="M111.54,108.3c-2.88,0-5.21,2.4-5.21,5.36s2.33,5.36,5.21,5.36"/><path class="g" d="M121.42,128.69c0-5.38-4.46-9.67-9.89-9.67"/></g><g><path class="e" d="M111.63,76.46c-3.88,0-7.03,3.19-7.03,7.13s3.15,7.09,7.03,7.09"/><path class="e" d="M119.67,68.58c0,4.38-3.6,7.88-8.04,7.88"/><path class="e" d="M111.63,90.69c4.44,0,8.04,3.55,8.04,7.93s-3.6,7.88-8.04,7.88"/><path class="e" d="M111.63,106.51c-3.88,0-7.03,3.19-7.03,7.13s3.15,7.13,7.03,7.13"/><path class="e" d="M111.63,120.78c4.44,0,8.04,3.53,8.04,7.91"/></g></g><path class="g" d="M106.88,128.69c0,4.02,3.26,7.28,7.27,7.28s7.27-3.26,7.27-7.28"/><path class="e" d="M105.11,128.69c0,4.02,3.26,7.27,7.27,7.27s7.27-3.26,7.27-7.27"/><path class="d" d="M103.41,128.68c0,4.02,3.24,7.29,7.24,7.29s7.24-3.26,7.24-7.29"/><path class="f" d="M101.66,128.65c0,4.04,3.26,7.31,7.27,7.31s7.27-3.27,7.27-7.31"/></g></g></g></svg>