<?xml version="1.0" encoding="UTF-8"?><svg xmlns="http://www.w3.org/2000/svg" viewBox="0 0 295.38 171.25"><defs><style>.d{stroke:#e9b65a;}.d,.e,.f,.g{fill:none;stroke-miterlimit:10;stroke-width:3px;}.e{stroke:#cc553e;}.f{stroke:#d47645;}.g{stroke:#c03737;}</style></defs><g id="a"/><g id="b"><g id="c"><g><g><path class="f" d="M19.1,118.4c8.14,0,14.74-6.94,14.74-15.02s-6.6-14.96-14.74-14.96"/><path class="f" d="M19.1,118.4c8.14,0,14.74-6.94,14.74-15.02s-6.6-14.96-14.74-14.96"/><path class="f" d="M19.1,88.42c-6.01,0-10.87-4.49-10.87-10.44s4.87-10.31,10.87-10.31"/><path class="f" d="M8.23,128.79c0-5.95,4.87-10.39,10.87-10.39"/><path class="f" d="M19.1,67.67c8.14,0,14.74-7.02,14.74-15.1s-6.6-15.03-14.74-15.03"/><path class="f" d="M8.23,27.16c0,5.95,4.87,10.38,10.87,10.38"/></g><g><path class="d" d="M18.58,121.37c10.01,0,18.12-8.05,18.12-17.98s-8.11-17.98-18.12-17.98"/><path class="d" d="M18.58,70.55c10.01,0,18.12-8.05,18.12-17.98s-8.11-17.98-18.12-17.98"/><path class="d" d="M18.58,85.4c-4.1,0-7.42-3.32-7.42-7.42s3.32-7.42,7.42-7.42"/><path class="d" d="M18.58,34.58c-4.1,0-7.42-3.32-7.42-7.42"/><path class="d" d="M11.16,128.79c0-4.1,3.32-7.42,7.42-7.42"/></g><g><path class="g" d="M19.1,112.5c4.9,0,8.87-4.06,8.87-9.06s-3.97-9.06-8.87-9.06"/><path class="g" d="M2.26,128.77c0-9.04,7.6-16.26,16.84-16.26"/><path class="g" d="M19.3,94.38c-9.42,0-17.06-7.33-17.06-16.37s7.64-16.37,17.06-16.37"/><path class="g" d="M19.1,61.63c4.9,0,8.87-4.06,8.87-9.06s-3.97-9.06-8.87-9.06"/><path class="g" d="M2.26,27.16c0,9.09,7.6,16.34,16.84,16.34"/></g><g><path class="e" d="M18.95,115.44c6.61,0,11.97-5.4,11.97-12.06s-5.36-11.98-11.97-11.98"/><path class="e" d="M5.26,128.77c0-7.41,6.13-13.33,13.69-13.33"/><path class="e" d="M18.95,91.4c-7.56,0-13.69-6.01-13.69-13.41s6.13-13.33,13.69-13.33"/><path class="e" d="M18.95,64.66c6.61,0,11.97-5.4,11.97-12.06s-5.36-12.06-11.97-12.06"/><path class="e" d="M18.95,40.53c-7.56,0-13.69-5.97-13.69-13.38"/></g><g><g><path class="e" d="M19.1,118.4c-8.14,0-14.74-6.94-14.74-15.02s6.6-14.96,14.74-14.96"/><path class="e" d="M19.1,118.4c-8.14,0-14.74-6.94-14.74-15.02s6.6-14.96,14.74-14.96"/><path class="e" d="M19.1,88.42c6.01,0,10.87-4.49,10.87-10.44s-4.87-10.31-10.87-10.31"/><path class="e" d="M29.98,128.79c0-5.95-4.87-10.39-10.87-10.39"/><path class="e" d="M19.1,67.67c-8.14,0-14.74-7.02-14.74-15.1s6.6-15.03,14.74-15.03"/><path class="e" d="M29.98,27.16c0,5.95-4.87,10.38-10.87,10.38"/></g><g><path class="g" d="M19.62,121.37c-10.01,0-18.12-8.05-18.12-17.98s8.11-17.98,18.12-17.98"/><path class="g" d="M19.62,70.55c-10.01,0-18.12-8.05-18.12-17.98s8.11-17.98,18.12-17.98"/><path class="g" d="M19.62,85.4c4.1,0,7.42-3.32,7.42-7.42s-3.32-7.42-7.42-7.42"/><path class="g" d="M19.62,34.58c4.1,0,7.42-3.32,7.42-7.42"/><path class="g" d="M27.05,128.79c0-4.1-3.32-7.42-7.42-7.42"/></g><g><path class="d" d="M19.1,112.5c-4.9,0-8.87-4.06-8.87-9.06s3.97-9.06,8.87-9.06"/><path class="d" d="M35.94,128.77c0-9.04-7.6-16.26-16.84-16.26"/><path class="d" d="M18.9,94.38c9.42,0,17.06-7.33,17.06-16.37s-7.64-16.37-17.06-16.37"/><path class="d" d="M19.1,61.63c-4.9,0-8.87-4.06-8.87-9.06s3.97-9.06,8.87-9.06"/><path class="d" d="M35.94,27.16c0,9.09-7.6,16.34-16.84,16.34"/></g><g><path class="f" d="M19.25,115.44c-6.61,0-11.97-5.4-11.97-12.06s5.36-11.98,11.97-11.98"/><path class="f" d="M32.95,128.77c0-7.41-6.13-13.33-13.69-13.33"/><path class="f" d="M19.25,91.4c7.56,0,13.69-6.01,13.69-13.41s-6.13-13.33-13.69-13.33"/><path class="f" d="M19.25,64.66c-6.61,0-11.97-5.4-11.97-12.06s5.36-12.06,11.97-12.06"/><path class="f" d="M19.25,40.53c7.56,0,13.69-5.97,13.69-13.38"/></g></g><path class="d" d="M11.16,27.16c0-6.8,5.55-12.31,12.39-12.31s12.39,5.51,12.39,12.31"/><path class="f" d="M8.15,27.16c0-6.79,5.55-12.3,12.39-12.3s12.39,5.51,12.39,12.3"/><path class="e" d="M5.25,27.17c0-6.8,5.52-12.32,12.34-12.32s12.34,5.51,12.34,12.32"/><path class="g" d="M2.28,27.21c0-6.83,5.54-12.36,12.38-12.36s12.38,5.54,12.38,12.36"/></g><g><g><path class="f" d="M61.79,142.82c8.14,0,14.74-6.94,14.74-15.02s-6.6-14.96-14.74-14.96"/><path class="f" d="M61.79,142.82c8.14,0,14.74-6.94,14.74-15.02s-6.6-14.96-14.74-14.96"/><path class="f" d="M61.79,112.84c-6.01,0-10.87-4.49-10.87-10.44s4.87-10.31,10.87-10.31"/><path class="f" d="M50.92,153.21c0-5.95,4.87-10.39,10.87-10.39"/><path class="f" d="M61.79,92.08c8.14,0,14.74-7.02,14.74-15.1s-6.6-15.03-14.74-15.03"/><path class="f" d="M50.92,51.58c0,5.95,4.87,10.38,10.87,10.38"/></g><g><path class="d" d="M61.27,145.78c10.01,0,18.12-8.05,18.12-17.98s-8.11-17.98-18.12-17.98"/><path class="d" d="M61.27,94.97c10.01,0,18.12-8.05,18.12-17.98s-8.11-17.98-18.12-17.98"/><path class="d" d="M61.27,109.82c-4.1,0-7.42-3.32-7.42-7.42s3.32-7.42,7.42-7.42"/><path class="d" d="M61.27,59c-4.1,0-7.42-3.32-7.42-7.42"/><path class="d" d="M53.85,153.21c0-4.1,3.32-7.42,7.42-7.42"/></g><g><path class="g" d="M61.79,136.92c4.9,0,8.87-4.06,8.87-9.06s-3.97-9.06-8.87-9.06"/><path class="g" d="M44.95,153.19c0-9.04,7.6-16.26,16.84-16.26"/><path class="g" d="M61.99,118.8c-9.42,0-17.06-7.33-17.06-16.37s7.64-16.37,17.06-16.37"/><path class="g" d="M61.79,86.05c4.9,0,8.87-4.06,8.87-9.06s-3.97-9.06-8.87-9.06"/><path class="g" d="M44.95,51.58c0,9.09,7.6,16.34,16.84,16.34"/></g><g><path class="e" d="M61.64,139.86c6.61,0,11.97-5.4,11.97-12.06s-5.36-11.98-11.97-11.98"/><path class="e" d="M47.95,153.19c0-7.41,6.13-13.33,13.69-13.33"/><path class="e" d="M61.64,115.82c-7.56,0-13.69-6.01-13.69-13.41s6.13-13.33,13.69-13.33"/><path class="e" d="M61.64,89.08c6.61,0,11.97-5.4,11.97-12.06s-5.36-12.06-11.97-12.06"/><path class="e" d="M61.64,64.95c-7.56,0-13.69-5.97-13.69-13.38"/></g><g><g><path class="e" d="M61.79,142.82c-8.14,0-14.74-6.94-14.74-15.02s6.6-14.96,14.74-14.96"/><path class="e" d="M61.79,142.82c-8.14,0-14.74-6.94-14.74-15.02s6.6-14.96,14.74-14.96"/><path class="e" d="M61.79,112.84c6.01,0,10.87-4.49,10.87-10.44s-4.87-10.31-10.87-10.31"/><path class="e" d="M72.66,153.21c0-5.95-4.87-10.39-10.87-10.39"/><path class="e" d="M61.79,92.08c-8.14,0-14.74-7.02-14.74-15.1s6.6-15.03,14.74-15.03"/><path class="e" d="M72.66,51.58c0,5.95-4.87,10.38-10.87,10.38"/></g><g><path class="g" d="M62.31,145.78c-10.01,0-18.12-8.05-18.12-17.98s8.11-17.98,18.12-17.98"/><path class="g" d="M62.31,94.97c-10.01,0-18.12-8.05-18.12-17.98s8.11-17.98,18.12-17.98"/><path class="g" d="M62.31,109.82c4.1,0,7.42-3.32,7.42-7.42s-3.32-7.42-7.42-7.42"/><path class="g" d="M62.31,59c4.1,0,7.42-3.32,7.42-7.42"/><path class="g" d="M69.73,153.21c0-4.1-3.32-7.42-7.42-7.42"/></g><g><path class="d" d="M61.79,136.92c-4.9,0-8.87-4.06-8.87-9.06s3.97-9.06,8.87-9.06"/><path class="d" d="M78.63,153.19c0-9.04-7.6-16.26-16.84-16.26"/><path class="d" d="M61.59,118.8c9.42,0,17.06-7.33,17.06-16.37s-7.64-16.37-17.06-16.37"/><path class="d" d="M61.79,86.05c-4.9,0-8.87-4.06-8.87-9.06s3.97-9.06,8.87-9.06"/><path class="d" d="M78.63,51.58c0,9.09-7.6,16.34-16.84,16.34"/></g><g><path class="f" d="M61.94,139.86c-6.61,0-11.97-5.4-11.97-12.06s5.36-11.98,11.97-11.98"/><path class="f" d="M75.63,153.19c0-7.41-6.13-13.33-13.69-13.33"/><path class="f" d="M61.94,115.82c7.56,0,13.69-6.01,13.69-13.41s-6.13-13.33-13.69-13.33"/><path class="f" d="M61.94,89.08c-6.61,0-11.97-5.4-11.97-12.06s5.36-12.06,11.97-12.06"/><path class="f" d="M61.94,64.95c7.56,0,13.69-5.97,13.69-13.38"/></g></g><path class="d" d="M53.85,51.58c0-6.8,5.55-12.31,12.39-12.31s12.39,5.51,12.39,12.31"/><path class="f" d="M50.84,51.58c0-6.79,5.55-12.3,12.39-12.3s12.39,5.51,12.39,12.3"/><path class="e" d="M47.94,51.59c0-6.8,5.52-12.32,12.34-12.32s12.34,5.51,12.34,12.32"/><path class="g" d="M44.97,51.63c0-6.83,5.54-12.36,12.38-12.36s12.38,5.54,12.38,12.36"/></g><g><g><path class="f" d="M106.61,154.64c8.14,0,14.74-6.94,14.74-15.02s-6.6-14.96-14.74-14.96"/><path class="f" d="M106.61,154.64c8.14,0,14.74-6.94,14.74-15.02s-6.6-14.96-14.74-14.96"/><path class="f" d="M106.61,124.66c-6.01,0-10.87-4.49-10.87-10.44s4.87-10.31,10.87-10.31"/><path class="f" d="M95.74,165.04c0-5.95,4.87-10.39,10.87-10.39"/><path class="f" d="M106.61,103.91c8.14,0,14.74-7.02,14.74-15.1s-6.6-15.03-14.74-15.03"/><path class="f" d="M95.74,63.4c0,5.95,4.87,10.38,10.87,10.38"/></g><g><path class="d" d="M106.09,157.61c10.01,0,18.12-8.05,18.12-17.98s-8.11-17.98-18.12-17.98"/><path class="d" d="M106.09,106.8c10.01,0,18.12-8.05,18.12-17.98s-8.11-17.98-18.12-17.98"/><path class="d" d="M106.09,121.64c-4.1,0-7.42-3.32-7.42-7.42s3.32-7.42,7.42-7.42"/><path class="d" d="M106.09,70.83c-4.1,0-7.42-3.32-7.42-7.42"/><path class="d" d="M98.67,165.04c0-4.1,3.32-7.42,7.42-7.42"/></g><g><path class="g" d="M106.61,148.75c4.9,0,8.87-4.06,8.87-9.06s-3.97-9.06-8.87-9.06"/><path class="g" d="M89.77,165.01c0-9.04,7.6-16.26,16.84-16.26"/><path class="g" d="M106.81,130.62c-9.42,0-17.06-7.33-17.06-16.37s7.64-16.37,17.06-16.37"/><path class="g" d="M106.61,97.88c4.9,0,8.87-4.06,8.87-9.06s-3.97-9.06-8.87-9.06"/><path class="g" d="M89.77,63.4c0,9.09,7.6,16.34,16.84,16.34"/></g><g><path class="e" d="M106.46,151.69c6.61,0,11.97-5.4,11.97-12.06s-5.36-11.98-11.97-11.98"/><path class="e" d="M92.77,165.01c0-7.41,6.13-13.33,13.69-13.33"/><path class="e" d="M106.46,127.65c-7.56,0-13.69-6.01-13.69-13.41s6.13-13.33,13.69-13.33"/><path class="e" d="M106.46,100.9c6.61,0,11.97-5.4,11.97-12.06s-5.36-12.06-11.97-12.06"/><path class="e" d="M106.46,76.77c-7.56,0-13.69-5.97-13.69-13.38"/></g><g><g><path class="e" d="M106.61,154.64c-8.14,0-14.74-6.94-14.74-15.02s6.6-14.96,14.74-14.96"/><path class="e" d="M106.61,154.64c-8.14,0-14.74-6.94-14.74-15.02s6.6-14.96,14.74-14.96"/><path class="e" d="M106.61,124.66c6.01,0,10.87-4.49,10.87-10.44s-4.87-10.31-10.87-10.31"/><path class="e" d="M117.48,165.04c0-5.95-4.87-10.39-10.87-10.39"/><path class="e" d="M106.61,103.91c-8.14,0-14.74-7.02-14.74-15.1s6.6-15.03,14.74-15.03"/><path class="e" d="M117.48,63.4c0,5.95-4.87,10.38-10.87,10.38"/></g><g><path class="g" d="M107.13,157.61c-10.01,0-18.12-8.05-18.12-17.98s8.11-17.98,18.12-17.98"/><path class="g" d="M107.13,106.8c-10.01,0-18.12-8.05-18.12-17.98s8.11-17.98,18.12-17.98"/><path class="g" d="M107.13,121.64c4.1,0,7.42-3.32,7.42-7.42s-3.32-7.42-7.42-7.42"/><path class="g" d="M107.13,70.83c4.1,0,7.42-3.32,7.42-7.42"/><path class="g" d="M114.55,165.04c0-4.1-3.32-7.42-7.42-7.42"/></g><g><path class="d" d="M106.61,148.75c-4.9,0-8.87-4.06-8.87-9.06s3.97-9.06,8.87-9.06"/><path class="d" d="M123.45,165.01c0-9.04-7.6-16.26-16.84-16.26"/><path class="d" d="M106.41,130.62c9.42,0,17.06-7.33,17.06-16.37s-7.64-16.37-17.06-16.37"/><path class="d" d="M106.61,97.88c-4.9,0-8.87-4.06-8.87-9.06s3.97-9.06,8.87-9.06"/><path class="d" d="M123.45,63.4c0,9.09-7.6,16.34-16.84,16.34"/></g><g><path class="f" d="M106.76,151.69c-6.61,0-11.97-5.4-11.97-12.06s5.36-11.98,11.97-11.98"/><path class="f" d="M120.45,165.01c0-7.41-6.13-13.33-13.69-13.33"/><path class="f" d="M106.76,127.65c7.56,0,13.69-6.01,13.69-13.41s-6.13-13.33-13.69-13.33"/><path class="f" d="M106.76,100.9c-6.61,0-11.97-5.4-11.97-12.06s5.36-12.06,11.97-12.06"/><path class="f" d="M106.76,76.77c7.56,0,13.69-5.97,13.69-13.38"/></g></g><path class="d" d="M98.67,63.4c0-6.8,5.55-12.31,12.39-12.31s12.39,5.51,12.39,12.31"/><path class="f" d="M95.66,63.4c0-6.79,5.55-12.3,12.39-12.3s12.39,5.51,12.39,12.3"/><path class="e" d="M92.76,63.41c0-6.8,5.52-12.32,12.34-12.32s12.34,5.51,12.34,12.32"/><path class="g" d="M89.79,63.46c0-6.83,5.54-12.36,12.38-12.36s12.38,5.54,12.38,12.36"/></g><g><g><path class="f" d="M149.47,141.29c8.14,0,14.74-6.94,14.74-15.02s-6.6-14.96-14.74-14.96"/><path class="f" d="M149.47,141.29c8.14,0,14.74-6.94,14.74-15.02s-6.6-14.96-14.74-14.96"/><path class="f" d="M149.47,111.31c-6.01,0-10.87-4.49-10.87-10.44s4.87-10.31,10.87-10.31"/><path class="f" d="M138.59,151.69c0-5.95,4.87-10.39,10.87-10.39"/><path class="f" d="M149.47,90.56c8.14,0,14.74-7.02,14.74-15.1s-6.6-15.03-14.74-15.03"/><path class="f" d="M138.59,50.05c0,5.95,4.87,10.38,10.87,10.38"/></g><g><path class="d" d="M148.95,144.26c10.01,0,18.12-8.05,18.12-17.98s-8.11-17.98-18.12-17.98"/><path class="d" d="M148.95,93.45c10.01,0,18.12-8.05,18.12-17.98s-8.11-17.98-18.12-17.98"/><path class="d" d="M148.95,108.29c-4.1,0-7.42-3.32-7.42-7.42s3.32-7.42,7.42-7.42"/><path class="d" d="M148.95,57.48c-4.1,0-7.42-3.32-7.42-7.42"/><path class="d" d="M141.52,151.69c0-4.1,3.32-7.42,7.42-7.42"/></g><g><path class="g" d="M149.47,135.4c4.9,0,8.87-4.06,8.87-9.06s-3.97-9.06-8.87-9.06"/><path class="g" d="M132.63,151.66c0-9.04,7.6-16.26,16.84-16.26"/><path class="g" d="M149.67,117.27c-9.42,0-17.06-7.33-17.06-16.37s7.64-16.37,17.06-16.37"/><path class="g" d="M149.47,84.53c4.9,0,8.87-4.06,8.87-9.06s-3.97-9.06-8.87-9.06"/><path class="g" d="M132.63,50.05c0,9.09,7.6,16.34,16.84,16.34"/></g><g><path class="e" d="M149.32,138.34c6.61,0,11.97-5.4,11.97-12.06s-5.36-11.98-11.97-11.98"/><path class="e" d="M135.62,151.66c0-7.41,6.13-13.33,13.69-13.33"/><path class="e" d="M149.32,114.3c-7.56,0-13.69-6.01-13.69-13.41s6.13-13.33,13.69-13.33"/><path class="e" d="M149.32,87.55c6.61,0,11.97-5.4,11.97-12.06s-5.36-12.06-11.97-12.06"/><path class="e" d="M149.32,63.42c-7.56,0-13.69-5.97-13.69-13.38"/></g><g><g><path class="e" d="M149.47,141.29c-8.14,0-14.74-6.94-14.74-15.02s6.6-14.96,14.74-14.96"/><path class="e" d="M149.47,141.29c-8.14,0-14.74-6.94-14.74-15.02s6.6-14.96,14.74-14.96"/><path class="e" d="M149.47,111.31c6.01,0,10.87-4.49,10.87-10.44s-4.87-10.31-10.87-10.31"/><path class="e" d="M160.34,151.69c0-5.95-4.87-10.39-10.87-10.39"/><path class="e" d="M149.47,90.56c-8.14,0-14.74-7.02-14.74-15.1s6.6-15.03,14.74-15.03"/><path class="e" d="M160.34,50.05c0,5.95-4.87,10.38-10.87,10.38"/></g><g><path class="g" d="M149.99,144.26c-10.01,0-18.12-8.05-18.12-17.98s8.11-17.98,18.12-17.98"/><path class="g" d="M149.99,93.45c-10.01,0-18.12-8.05-18.12-17.98s8.11-17.98,18.12-17.98"/><path class="g" d="M149.99,108.29c4.1,0,7.42-3.32,7.42-7.42s-3.32-7.42-7.42-7.42"/><path class="g" d="M149.99,57.48c4.1,0,7.42-3.32,7.42-7.42"/><path class="g" d="M157.41,151.69c0-4.1-3.32-7.42-7.42-7.42"/></g><g><path class="d" d="M149.47,135.4c-4.9,0-8.87-4.06-8.87-9.06s3.97-9.06,8.87-9.06"/><path class="d" d="M166.3,151.66c0-9.04-7.6-16.26-16.84-16.26"/><path class="d" d="M149.26,117.27c9.42,0,17.06-7.33,17.06-16.37s-7.64-16.37-17.06-16.37"/><path class="d" d="M149.47,84.53c-4.9,0-8.87-4.06-8.87-9.06s3.97-9.06,8.87-9.06"/><path class="d" d="M166.3,50.05c0,9.09-7.6,16.34-16.84,16.34"/></g><g><path class="f" d="M149.62,138.34c-6.61,0-11.97-5.4-11.97-12.06s5.36-11.98,11.97-11.98"/><path class="f" d="M163.31,151.66c0-7.41-6.13-13.33-13.69-13.33"/><path class="f" d="M149.62,114.3c7.56,0,13.69-6.01,13.69-13.41s-6.13-13.33-13.69-13.33"/><path class="f" d="M149.62,87.55c-6.61,0-11.97-5.4-11.97-12.06s5.36-12.06,11.97-12.06"/><path class="f" d="M149.62,63.42c7.56,0,13.69-5.97,13.69-13.38"/></g></g><path class="d" d="M141.52,50.05c0-6.8,5.55-12.31,12.39-12.31s12.39,5.51,12.39,12.31"/><path class="f" d="M138.52,50.05c0-6.79,5.55-12.3,12.39-12.3s12.39,5.51,12.39,12.3"/><path class="e" d="M135.62,50.06c0-6.8,5.52-12.32,12.34-12.32s12.34,5.51,12.34,12.32"/><path class="g" d="M132.64,50.11c0-6.83,5.54-12.36,12.38-12.36s12.38,5.54,12.38,12.36"/></g><g><g><path class="f" d="M191.28,105.05c8.14,0,14.74-6.94,14.74-15.02s-6.6-14.96-14.74-14.96"/><path class="f" d="M191.28,105.05c8.14,0,14.74-6.94,14.74-15.02s-6.6-14.96-14.74-14.96"/><path class="f" d="M191.28,75.07c-6.01,0-10.87-4.49-10.87-10.44s4.87-10.31,10.87-10.31"/><path class="f" d="M180.41,115.44c0-5.95,4.87-10.39,10.87-10.39"/><path class="f" d="M191.28,54.32c8.14,0,14.74-7.02,14.74-15.1s-6.6-15.03-14.74-15.03"/><path class="f" d="M180.41,13.81c0,5.95,4.87,10.38,10.87,10.38"/></g><g><path class="d" d="M190.76,108.02c10.01,0,18.12-8.05,18.12-17.98s-8.11-17.98-18.12-17.98"/><path class="d" d="M190.76,57.2c10.01,0,18.12-8.05,18.12-17.98s-8.11-17.98-18.12-17.98"/><path class="d" d="M190.76,72.05c-4.1,0-7.42-3.32-7.42-7.42s3.32-7.42,7.42-7.42"/><path class="d" d="M190.76,21.23c-4.1,0-7.42-3.32-7.42-7.42"/><path class="d" d="M183.34,115.44c0-4.1,3.32-7.42,7.42-7.42"/></g><g><path class="g" d="M191.28,99.16c4.9,0,8.87-4.06,8.87-9.06s-3.97-9.06-8.87-9.06"/><path class="g" d="M174.44,115.42c0-9.04,7.6-16.26,16.84-16.26"/><path class="g" d="M191.48,81.03c-9.42,0-17.06-7.33-17.06-16.37s7.64-16.37,17.06-16.37"/><path class="g" d="M191.28,48.28c4.9,0,8.87-4.06,8.87-9.06s-3.97-9.06-8.87-9.06"/><path class="g" d="M174.44,13.81c0,9.09,7.6,16.34,16.84,16.34"/></g><g><path class="e" d="M191.13,102.09c6.61,0,11.97-5.4,11.97-12.06s-5.36-11.98-11.97-11.98"/><path class="e" d="M177.44,115.42c0-7.41,6.13-13.33,13.69-13.33"/><path class="e" d="M191.13,78.05c-7.56,0-13.69-6.01-13.69-13.41s6.13-13.33,13.69-13.33"/><path class="e" d="M191.13,51.31c6.61,0,11.97-5.4,11.97-12.06s-5.36-12.06-11.97-12.06"/><path class="e" d="M191.13,27.18c-7.56,0-13.69-5.97-13.69-13.38"/></g><g><g><path class="e" d="M191.28,105.05c-8.14,0-14.74-6.94-14.74-15.02s6.6-14.96,14.74-14.96"/><path class="e" d="M191.28,105.05c-8.14,0-14.74-6.94-14.74-15.02s6.6-14.96,14.74-14.96"/><path class="e" d="M191.28,75.07c6.01,0,10.87-4.49,10.87-10.44s-4.87-10.31-10.87-10.31"/><path class="e" d="M202.16,115.44c0-5.95-4.87-10.39-10.87-10.39"/><path class="e" d="M191.28,54.32c-8.14,0-14.74-7.02-14.74-15.1s6.6-15.03,14.74-15.03"/><path class="e" d="M202.16,13.81c0,5.95-4.87,10.38-10.87,10.38"/></g><g><path class="g" d="M191.8,108.02c-10.01,0-18.12-8.05-18.12-17.98s8.11-17.98,18.12-17.98"/><path class="g" d="M191.8,57.2c-10.01,0-18.12-8.05-18.12-17.98s8.11-17.98,18.12-17.98"/><path class="g" d="M191.8,72.05c4.1,0,7.42-3.32,7.42-7.42s-3.32-7.42-7.42-7.42"/><path class="g" d="M191.8,21.23c4.1,0,7.42-3.32,7.42-7.42"/><path class="g" d="M199.23,115.44c0-4.1-3.32-7.42-7.42-7.42"/></g><g><path class="d" d="M191.28,99.16c-4.9,0-8.87-4.06-8.87-9.06s3.97-9.06,8.87-9.06"/><path class="d" d="M208.12,115.42c0-9.04-7.6-16.26-16.84-16.26"/><path class="d" d="M191.08,81.03c9.42,0,17.06-7.33,17.06-16.37s-7.64-16.37-17.06-16.37"/><path class="d" d="M191.28,48.28c-4.9,0-8.87-4.06-8.87-9.06s3.97-9.06,8.87-9.06"/><path class="d" d="M208.12,13.81c0,9.09-7.6,16.34-16.84,16.34"/></g><g><path class="f" d="M191.43,102.09c-6.61,0-11.97-5.4-11.97-12.06s5.36-11.98,11.97-11.98"/><path class="f" d="M205.13,115.42c0-7.41-6.13-13.33-13.69-13.33"/><path class="f" d="M191.43,78.05c7.56,0,13.69-6.01,13.69-13.41s-6.13-13.33-13.69-13.33"/><path class="f" d="M191.43,51.31c-6.61,0-11.97-5.4-11.97-12.06s5.36-12.06,11.97-12.06"/><path class="f" d="M191.43,27.18c7.56,0,13.69-5.97,13.69-13.38"/></g></g><path class="d" d="M183.34,13.81c0-6.8,5.55-12.31,12.39-12.31s12.39,5.51,12.39,12.31"/><path class="f" d="M180.33,13.81c0-6.79,5.55-12.3,12.39-12.3s12.39,5.51,12.39,12.3"/><path class="e" d="M177.43,13.82c0-6.8,5.52-12.32,12.34-12.32s12.34,5.51,12.34,12.32"/><path class="g" d="M174.46,13.86c0-6.83,5.54-12.36,12.38-12.36s12.38,5.54,12.38,12.36"/></g><g><g><path class="f" d="M234.14,113.76c8.14,0,14.74-6.94,14.74-15.02s-6.6-14.96-14.74-14.96"/><path class="f" d="M234.14,113.76c8.14,0,14.74-6.94,14.74-15.02s-6.6-14.96-14.74-14.96"/><path class="f" d="M234.14,83.78c-6.01,0-10.87-4.49-10.87-10.44s4.87-10.31,10.87-10.31"/><path class="f" d="M223.27,124.15c0-5.95,4.87-10.39,10.87-10.39"/><path class="f" d="M234.14,63.02c8.14,0,14.74-7.02,14.74-15.1s-6.6-15.03-14.74-15.03"/><path class="f" d="M223.27,22.52c0,5.95,4.87,10.38,10.87,10.38"/></g><g><path class="d" d="M233.62,116.72c10.01,0,18.12-8.05,18.12-17.98s-8.11-17.98-18.12-17.98"/><path class="d" d="M233.62,65.91c10.01,0,18.12-8.05,18.12-17.98s-8.11-17.98-18.12-17.98"/><path class="d" d="M233.62,80.76c-4.1,0-7.42-3.32-7.42-7.42s3.32-7.42,7.42-7.42"/><path class="d" d="M233.62,29.94c-4.1,0-7.42-3.32-7.42-7.42"/><path class="d" d="M226.2,124.15c0-4.1,3.32-7.42,7.42-7.42"/></g><g><path class="g" d="M234.14,107.86c4.9,0,8.87-4.06,8.87-9.06s-3.97-9.06-8.87-9.06"/><path class="g" d="M217.3,124.13c0-9.04,7.6-16.26,16.84-16.26"/><path class="g" d="M234.34,89.73c-9.42,0-17.06-7.33-17.06-16.37s7.64-16.37,17.06-16.37"/><path class="g" d="M234.14,56.99c4.9,0,8.87-4.06,8.87-9.06s-3.97-9.06-8.87-9.06"/><path class="g" d="M217.3,22.52c0,9.09,7.6,16.34,16.84,16.34"/></g><g><path class="e" d="M233.99,110.8c6.61,0,11.97-5.4,11.97-12.06s-5.36-11.98-11.97-11.98"/><path class="e" d="M220.3,124.13c0-7.41,6.13-13.33,13.69-13.33"/><path class="e" d="M233.99,86.76c-7.56,0-13.69-6.01-13.69-13.41s6.13-13.33,13.69-13.33"/><path class="e" d="M233.99,60.02c6.61,0,11.97-5.4,11.97-12.06s-5.36-12.06-11.97-12.06"/><path class="e" d="M233.99,35.89c-7.56,0-13.69-5.97-13.69-13.38"/></g><g><g><path class="e" d="M234.14,113.76c-8.14,0-14.74-6.94-14.74-15.02s6.6-14.96,14.74-14.96"/><path class="e" d="M234.14,113.76c-8.14,0-14.74-6.94-14.74-15.02s6.6-14.96,14.74-14.96"/><path class="e" d="M234.14,83.78c6.01,0,10.87-4.49,10.87-10.44s-4.87-10.31-10.87-10.31"/><path class="e" d="M245.02,124.15c0-5.95-4.87-10.39-10.87-10.39"/><path class="e" d="M234.14,63.02c-8.14,0-14.74-7.02-14.74-15.1s6.6-15.03,14.74-15.03"/><path class="e" d="M245.02,22.52c0,5.95-4.87,10.38-10.87,10.38"/></g><g><path class="g" d="M234.66,116.72c-10.01,0-18.12-8.05-18.12-17.98s8.11-17.98,18.12-17.98"/><path class="g" d="M234.66,65.91c-10.01,0-18.12-8.05-18.12-17.98s8.11-17.98,18.12-17.98"/><path class="g" d="M234.66,80.76c4.1,0,7.42-3.32,7.42-7.42s-3.32-7.42-7.42-7.42"/><path class="g" d="M234.66,29.94c4.1,0,7.42-3.32,7.42-7.42"/><path class="g" d="M242.09,124.15c0-4.1-3.32-7.42-7.42-7.42"/></g><g><path class="d" d="M234.14,107.86c-4.9,0-8.87-4.06-8.87-9.06s3.97-9.06,8.87-9.06"/><path class="d" d="M250.98,124.13c0-9.04-7.6-16.26-16.84-16.26"/><path class="d" d="M233.94,89.73c9.42,0,17.06-7.33,17.06-16.37s-7.64-16.37-17.06-16.37"/><path class="d" d="M234.14,56.99c-4.9,0-8.87-4.06-8.87-9.06s3.97-9.06,8.87-9.06"/><path class="d" d="M250.98,22.52c0,9.09-7.6,16.34-16.84,16.34"/></g><g><path class="f" d="M234.29,110.8c-6.61,0-11.97-5.4-11.97-12.06s5.36-11.98,11.97-11.98"/><path class="f" d="M247.99,124.13c0-7.41-6.13-13.33-13.69-13.33"/><path class="f" d="M234.29,86.76c7.56,0,13.69-6.01,13.69-13.41s-6.13-13.33-13.69-13.33"/><path class="f" d="M234.29,60.02c-6.61,0-11.97-5.4-11.97-12.06s5.36-12.06,11.97-12.06"/><path class="f" d="M234.29,35.89c7.56,0,13.69-5.97,13.69-13.38"/></g></g><path class="d" d="M226.2,22.52c0-6.8,5.55-12.31,12.39-12.31s12.39,5.51,12.39,12.31"/><path class="f" d="M223.19,22.52c0-6.79,5.55-12.3,12.39-12.3s12.39,5.51,12.39,12.3"/><path class="e" d="M220.29,22.52c0-6.8,5.52-12.32,12.34-12.32s12.34,5.51,12.34,12.32"/><path class="g" d="M217.32,22.57c0-6.83,5.54-12.36,12.38-12.36s12.38,5.54,12.38,12.36"/></g><g><g><path class="f" d="M276.27,160.86c8.14,0,14.74-6.94,14.74-15.02s-6.6-14.96-14.74-14.96"/><path class="f" d="M276.27,160.86c8.14,0,14.74-6.94,14.74-15.02s-6.6-14.96-14.74-14.96"/><path class="f" d="M276.27,130.88c-6.01,0-10.87-4.49-10.87-10.44s4.87-10.31,10.87-10.31"/><path class="f" d="M265.4,171.25c0-5.95,4.87-10.39,10.87-10.39"/><path class="f" d="M276.27,110.13c8.14,0,14.74-7.02,14.74-15.1s-6.6-15.03-14.74-15.03"/><path class="f" d="M265.4,69.62c0,5.95,4.87,10.38,10.87,10.38"/></g><g><path class="d" d="M275.76,163.83c10.01,0,18.12-8.05,18.12-17.98s-8.11-17.98-18.12-17.98"/><path class="d" d="M275.76,113.01c10.01,0,18.12-8.05,18.12-17.98s-8.11-17.98-18.12-17.98"/><path class="d" d="M275.76,127.86c-4.1,0-7.42-3.32-7.42-7.42s3.32-7.42,7.42-7.42"/><path class="d" d="M275.76,77.04c-4.1,0-7.42-3.32-7.42-7.42"/><path class="d" d="M268.33,171.25c0-4.1,3.32-7.42,7.42-7.42"/></g><g><path class="g" d="M276.27,154.97c4.9,0,8.87-4.06,8.87-9.06s-3.97-9.06-8.87-9.06"/><path class="g" d="M259.44,171.23c0-9.04,7.6-16.26,16.84-16.26"/><path class="g" d="M276.48,136.84c-9.42,0-17.06-7.33-17.06-16.37s7.64-16.37,17.06-16.37"/><path class="g" d="M276.27,104.09c4.9,0,8.87-4.06,8.87-9.06s-3.97-9.06-8.87-9.06"/><path class="g" d="M259.44,69.62c0,9.09,7.6,16.34,16.84,16.34"/></g><g><path class="e" d="M276.12,157.9c6.61,0,11.97-5.4,11.97-12.06s-5.36-11.98-11.97-11.98"/><path class="e" d="M262.43,171.23c0-7.41,6.13-13.33,13.69-13.33"/><path class="e" d="M276.12,133.86c-7.56,0-13.69-6.01-13.69-13.41s6.13-13.33,13.69-13.33"/><path class="e" d="M276.12,107.12c6.61,0,11.97-5.4,11.97-12.06s-5.36-12.06-11.97-12.06"/><path class="e" d="M276.12,82.99c-7.56,0-13.69-5.97-13.69-13.38"/></g><g><g><path class="e" d="M276.27,160.86c-8.14,0-14.74-6.94-14.74-15.02s6.6-14.96,14.74-14.96"/><path class="e" d="M276.27,160.86c-8.14,0-14.74-6.94-14.74-15.02s6.6-14.96,14.74-14.96"/><path class="e" d="M276.27,130.88c6.01,0,10.87-4.49,10.87-10.44s-4.87-10.31-10.87-10.31"/><path class="e" d="M287.15,171.25c0-5.95-4.87-10.39-10.87-10.39"/><path class="e" d="M276.27,110.13c-8.14,0-14.74-7.02-14.74-15.1s6.6-15.03,14.74-15.03"/><path class="e" d="M287.15,69.62c0,5.95-4.87,10.38-10.87,10.38"/></g><g><path class="g" d="M276.79,163.83c-10.01,0-18.12-8.05-18.12-17.98s8.11-17.98,18.12-17.98"/><path class="g" d="M276.79,113.01c-10.01,0-18.12-8.05-18.12-17.98s8.11-17.98,18.12-17.98"/><path class="g" d="M276.79,127.86c4.1,0,7.42-3.32,7.42-7.42s-3.32-7.42-7.42-7.42"/><path class="g" d="M276.79,77.04c4.1,0,7.42-3.32,7.42-7.42"/><path class="g" d="M284.22,171.25c0-4.1-3.32-7.42-7.42-7.42"/></g><g><path class="d" d="M276.27,154.97c-4.9,0-8.87-4.06-8.87-9.06s3.97-9.06,8.87-9.06"/><path class="d" d="M293.11,171.23c0-9.04-7.6-16.26-16.84-16.26"/><path class="d" d="M276.07,136.84c9.42,0,17.06-7.33,17.06-16.37s-7.64-16.37-17.06-16.37"/><path class="d" d="M276.27,104.09c-4.9,0-8.87-4.06-8.87-9.06s3.97-9.06,8.87-9.06"/><path class="d" d="M293.11,69.62c0,9.09-7.6,16.34-16.84,16.34"/></g><g><path class="f" d="M276.42,157.9c-6.61,0-11.97-5.4-11.97-12.06s5.36-11.98,11.97-11.98"/><path class="f" d="M290.12,171.23c0-7.41-6.13-13.33-13.69-13.33"/><path class="f" d="M276.42,133.86c7.56,0,13.69-6.01,13.69-13.41s-6.13-13.33-13.69-13.33"/><path class="f" d="M276.42,107.12c-6.61,0-11.97-5.4-11.97-12.06s5.36-12.06,11.97-12.06"/><path class="f" d="M276.42,82.99c7.56,0,13.69-5.97,13.69-13.38"/></g></g><path class="d" d="M268.33,69.62c0-6.8,5.55-12.31,12.39-12.31s12.39,5.51,12.39,12.31"/><path class="f" d="M265.32,69.62c0-6.79,5.55-12.3,12.39-12.3s12.39,5.51,12.39,12.3"/><path class="e" d="M262.42,69.63c0-6.8,5.52-12.32,12.34-12.32s12.34,5.51,12.34,12.32"/><path class="g" d="M259.45,69.68c0-6.83,5.54-12.36,12.38-12.36s12.38,5.54,12.38,12.36"/></g></g></g></svg>