<?xml version="1.0" encoding="UTF-8"?><svg xmlns="http://www.w3.org/2000/svg" viewBox="0 0 339.29 172.73"><defs><style>.d{stroke:#e9b65a;}.d,.e,.f,.g{stroke-width:3px;}.d,.e,.f,.g,.h{fill:none;stroke-miterlimit:10;}.e,.h{stroke:#cc553e;}.f{stroke:#d47645;}.g{stroke:#c03737;}.h{stroke-width:2.9px;}</style></defs><g id="a"/><g id="b"><g id="c"><g><g><g><path class="f" d="M320.19,138.13c8.14,0,14.74-6.94,14.74-15.02s-6.6-14.96-14.74-14.96"/><path class="f" d="M320.19,138.13c8.14,0,14.74-6.94,14.74-15.02s-6.6-14.96-14.74-14.96"/><path class="f" d="M320.19,108.15c-6.01,0-10.87-4.49-10.87-10.44s4.87-10.31,10.87-10.31"/><path class="f" d="M309.32,148.52c0-5.95,4.87-10.39,10.87-10.39"/><path class="f" d="M320.19,87.4c8.14,0,14.74-7.02,14.74-15.1s-6.6-15.03-14.74-15.03"/><path class="f" d="M309.32,46.89c0,5.95,4.87,10.38,10.87,10.38"/></g><g><path class="d" d="M319.67,141.1c10.01,0,18.12-8.05,18.12-17.98s-8.11-17.98-18.12-17.98"/><path class="d" d="M319.67,90.28c10.01,0,18.12-8.05,18.12-17.98s-8.11-17.98-18.12-17.98"/><path class="d" d="M319.67,105.13c-4.1,0-7.42-3.32-7.42-7.42s3.32-7.42,7.42-7.42"/><path class="d" d="M319.67,54.32c-4.1,0-7.42-3.32-7.42-7.42"/><path class="d" d="M312.25,148.52c0-4.1,3.32-7.42,7.42-7.42"/></g><g><path class="g" d="M320.19,132.24c4.9,0,8.87-4.06,8.87-9.06s-3.97-9.06-8.87-9.06"/><path class="g" d="M303.35,148.5c0-9.04,7.6-16.26,16.84-16.26"/><path class="g" d="M320.39,114.11c-9.42,0-17.06-7.33-17.06-16.37s7.64-16.37,17.06-16.37"/><path class="g" d="M320.19,81.36c4.9,0,8.87-4.06,8.87-9.06s-3.97-9.06-8.87-9.06"/><path class="g" d="M303.35,46.89c0,9.09,7.6,16.34,16.84,16.34"/></g><g><path class="e" d="M320.04,135.17c6.61,0,11.97-5.4,11.97-12.06s-5.36-11.98-11.97-11.98"/><path class="e" d="M306.35,148.5c0-7.41,6.13-13.33,13.69-13.33"/><path class="e" d="M320.04,111.13c-7.56,0-13.69-6.01-13.69-13.41s6.13-13.33,13.69-13.33"/><path class="e" d="M320.04,84.39c6.61,0,11.97-5.4,11.97-12.06s-5.36-12.06-11.97-12.06"/><path class="e" d="M320.04,60.26c-7.56,0-13.69-5.97-13.69-13.38"/></g><g><g><path class="e" d="M320.19,138.13c-8.14,0-14.74-6.94-14.74-15.02s6.6-14.96,14.74-14.96"/><path class="e" d="M320.19,138.13c-8.14,0-14.74-6.94-14.74-15.02s6.6-14.96,14.74-14.96"/><path class="e" d="M320.19,108.15c6.01,0,10.87-4.49,10.87-10.44s-4.87-10.31-10.87-10.31"/><path class="e" d="M331.06,148.52c0-5.95-4.87-10.39-10.87-10.39"/><path class="e" d="M320.19,87.4c-8.14,0-14.74-7.02-14.74-15.1s6.6-15.03,14.74-15.03"/><path class="e" d="M331.06,46.89c0,5.95-4.87,10.38-10.87,10.38"/></g><g><path class="g" d="M320.71,141.1c-10.01,0-18.12-8.05-18.12-17.98s8.11-17.98,18.12-17.98"/><path class="g" d="M320.71,90.28c-10.01,0-18.12-8.05-18.12-17.98s8.11-17.98,18.12-17.98"/><path class="g" d="M320.71,105.13c4.1,0,7.42-3.32,7.42-7.42s-3.32-7.42-7.42-7.42"/><path class="g" d="M320.71,54.32c4.1,0,7.42-3.32,7.42-7.42"/><path class="g" d="M328.14,148.52c0-4.1-3.32-7.42-7.42-7.42"/></g><g><path class="d" d="M320.19,132.24c-4.9,0-8.87-4.06-8.87-9.06s3.97-9.06,8.87-9.06"/><path class="d" d="M337.03,148.5c0-9.04-7.6-16.26-16.84-16.26"/><path class="d" d="M319.99,114.11c9.42,0,17.06-7.33,17.06-16.37s-7.64-16.37-17.06-16.37"/><path class="d" d="M320.19,81.36c-4.9,0-8.87-4.06-8.87-9.06s3.97-9.06,8.87-9.06"/><path class="d" d="M337.03,46.89c0,9.09-7.6,16.34-16.84,16.34"/></g><g><path class="f" d="M320.34,135.17c-6.61,0-11.97-5.4-11.97-12.06s5.36-11.98,11.97-11.98"/><path class="f" d="M334.04,148.5c0-7.41-6.13-13.33-13.69-13.33"/><path class="f" d="M320.34,111.13c7.56,0,13.69-6.01,13.69-13.41s-6.13-13.33-13.69-13.33"/><path class="f" d="M320.34,84.39c-6.61,0-11.97-5.4-11.97-12.06s5.36-12.06,11.97-12.06"/><path class="f" d="M320.34,60.26c7.56,0,13.69-5.97,13.69-13.38"/></g></g><path class="d" d="M312.25,46.89c0-6.8,5.55-12.31,12.39-12.31s12.39,5.51,12.39,12.31"/><path class="f" d="M309.24,46.89c0-6.79,5.55-12.3,12.39-12.3s12.39,5.51,12.39,12.3"/><path class="e" d="M306.34,46.9c0-6.8,5.52-12.32,12.34-12.32s12.34,5.51,12.34,12.32"/><path class="g" d="M303.37,46.95c0-6.83,5.54-12.36,12.38-12.36s12.38,5.54,12.38,12.36"/></g><path class="d" d="M337.03,148.5c0,6.84-5.55,12.39-12.39,12.39s-12.39-5.55-12.39-12.39"/><path class="f" d="M334.04,148.45c0,6.87-5.53,12.44-12.36,12.44s-12.38-5.79-12.38-12.66"/><path class="h" d="M331.1,148.43c0,6.84-5.55,12.39-12.39,12.39s-12.39-5.55-12.39-12.39"/><path class="g" d="M328.11,148.34c0,6.84-5.55,12.39-12.39,12.39s-12.39-5.55-12.39-12.39"/></g><g><g><g><path class="f" d="M279.28,148.47c8.14,0,14.74-6.94,14.74-15.02s-6.6-14.96-14.74-14.96"/><path class="f" d="M279.28,148.47c8.14,0,14.74-6.94,14.74-15.02s-6.6-14.96-14.74-14.96"/><path class="f" d="M279.28,118.49c-6.01,0-10.87-4.49-10.87-10.44s4.87-10.31,10.87-10.31"/><path class="f" d="M268.41,158.86c0-5.95,4.87-10.39,10.87-10.39"/><path class="f" d="M279.28,97.74c8.14,0,14.74-7.02,14.74-15.1s-6.6-15.03-14.74-15.03"/><path class="f" d="M268.41,57.23c0,5.95,4.87,10.38,10.87,10.38"/></g><g><path class="d" d="M278.76,151.44c10.01,0,18.12-8.05,18.12-17.98s-8.11-17.98-18.12-17.98"/><path class="d" d="M278.76,100.62c10.01,0,18.12-8.05,18.12-17.98s-8.11-17.98-18.12-17.98"/><path class="d" d="M278.76,115.47c-4.1,0-7.42-3.32-7.42-7.42s3.32-7.42,7.42-7.42"/><path class="d" d="M278.76,64.65c-4.1,0-7.42-3.32-7.42-7.42"/><path class="d" d="M271.34,158.86c0-4.1,3.32-7.42,7.42-7.42"/></g><g><path class="g" d="M279.28,142.58c4.9,0,8.87-4.06,8.87-9.06s-3.97-9.06-8.87-9.06"/><path class="g" d="M262.44,158.84c0-9.04,7.6-16.26,16.84-16.26"/><path class="g" d="M279.48,124.45c-9.42,0-17.06-7.33-17.06-16.37s7.64-16.37,17.06-16.37"/><path class="g" d="M279.28,91.7c4.9,0,8.87-4.06,8.87-9.06s-3.97-9.06-8.87-9.06"/><path class="g" d="M262.44,57.23c0,9.09,7.6,16.34,16.84,16.34"/></g><g><path class="e" d="M279.13,145.51c6.61,0,11.97-5.4,11.97-12.06s-5.36-11.98-11.97-11.98"/><path class="e" d="M265.44,158.84c0-7.41,6.13-13.33,13.69-13.33"/><path class="e" d="M279.13,121.47c-7.56,0-13.69-6.01-13.69-13.41s6.13-13.33,13.69-13.33"/><path class="e" d="M279.13,94.73c6.61,0,11.97-5.4,11.97-12.06s-5.36-12.06-11.97-12.06"/><path class="e" d="M279.13,70.6c-7.56,0-13.69-5.97-13.69-13.38"/></g><g><g><path class="e" d="M279.28,148.47c-8.14,0-14.74-6.94-14.74-15.02s6.6-14.96,14.74-14.96"/><path class="e" d="M279.28,148.47c-8.14,0-14.74-6.94-14.74-15.02s6.6-14.96,14.74-14.96"/><path class="e" d="M279.28,118.49c6.01,0,10.87-4.49,10.87-10.44s-4.87-10.31-10.87-10.31"/><path class="e" d="M290.15,158.86c0-5.95-4.87-10.39-10.87-10.39"/><path class="e" d="M279.28,97.74c-8.14,0-14.74-7.02-14.74-15.1s6.6-15.03,14.74-15.03"/><path class="e" d="M290.15,57.23c0,5.95-4.87,10.38-10.87,10.38"/></g><g><path class="g" d="M279.8,151.44c-10.01,0-18.12-8.05-18.12-17.98s8.11-17.98,18.12-17.98"/><path class="g" d="M279.8,100.62c-10.01,0-18.12-8.05-18.12-17.98s8.11-17.98,18.12-17.98"/><path class="g" d="M279.8,115.47c4.1,0,7.42-3.32,7.42-7.42s-3.32-7.42-7.42-7.42"/><path class="g" d="M279.8,64.65c4.1,0,7.42-3.32,7.42-7.42"/><path class="g" d="M287.23,158.86c0-4.1-3.32-7.42-7.42-7.42"/></g><g><path class="d" d="M279.28,142.58c-4.9,0-8.87-4.06-8.87-9.06s3.97-9.06,8.87-9.06"/><path class="d" d="M296.12,158.84c0-9.04-7.6-16.26-16.84-16.26"/><path class="d" d="M279.08,124.45c9.42,0,17.06-7.33,17.06-16.37s-7.64-16.37-17.06-16.37"/><path class="d" d="M279.28,91.7c-4.9,0-8.87-4.06-8.87-9.06s3.97-9.06,8.87-9.06"/><path class="d" d="M296.12,57.23c0,9.09-7.6,16.34-16.84,16.34"/></g><g><path class="f" d="M279.43,145.51c-6.61,0-11.97-5.4-11.97-12.06s5.36-11.98,11.97-11.98"/><path class="f" d="M293.13,158.84c0-7.41-6.13-13.33-13.69-13.33"/><path class="f" d="M279.43,121.47c7.56,0,13.69-6.01,13.69-13.41s-6.13-13.33-13.69-13.33"/><path class="f" d="M279.43,94.73c-6.61,0-11.97-5.4-11.97-12.06s5.36-12.06,11.97-12.06"/><path class="f" d="M279.43,70.6c7.56,0,13.69-5.97,13.69-13.38"/></g></g><path class="d" d="M271.34,57.23c0-6.8,5.55-12.31,12.39-12.31s12.39,5.51,12.39,12.31"/><path class="f" d="M268.33,57.23c0-6.79,5.55-12.3,12.39-12.3s12.39,5.51,12.39,12.3"/><path class="e" d="M265.43,57.24c0-6.8,5.52-12.32,12.34-12.32s12.34,5.51,12.34,12.32"/><path class="g" d="M262.46,57.29c0-6.83,5.54-12.36,12.38-12.36s12.38,5.54,12.38,12.36"/></g><path class="d" d="M296.12,158.84c0,6.84-5.55,12.39-12.39,12.39s-12.39-5.55-12.39-12.39"/><path class="f" d="M293.13,158.79c0,6.87-5.53,12.44-12.36,12.44s-12.38-5.79-12.38-12.66"/><path class="h" d="M290.19,158.77c0,6.84-5.55,12.39-12.39,12.39s-12.39-5.55-12.39-12.39"/><path class="g" d="M287.2,158.68c0,6.84-5.55,12.39-12.39,12.39s-12.39-5.55-12.39-12.39"/></g><g><g><g><path class="f" d="M236.78,120.5c8.14,0,14.74-6.94,14.74-15.02s-6.6-14.96-14.74-14.96"/><path class="f" d="M236.78,120.5c8.14,0,14.74-6.94,14.74-15.02s-6.6-14.96-14.74-14.96"/><path class="f" d="M236.78,90.52c-6.01,0-10.87-4.49-10.87-10.44s4.87-10.31,10.87-10.31"/><path class="f" d="M225.91,130.89c0-5.95,4.87-10.39,10.87-10.39"/><path class="f" d="M236.78,69.77c8.14,0,14.74-7.02,14.74-15.1s-6.6-15.03-14.74-15.03"/><path class="f" d="M225.91,29.26c0,5.95,4.87,10.38,10.87,10.38"/></g><g><path class="d" d="M236.26,123.47c10.01,0,18.12-8.05,18.12-17.98s-8.11-17.98-18.12-17.98"/><path class="d" d="M236.26,72.65c10.01,0,18.12-8.05,18.12-17.98s-8.11-17.98-18.12-17.98"/><path class="d" d="M236.26,87.5c-4.1,0-7.42-3.32-7.42-7.42s3.32-7.42,7.42-7.42"/><path class="d" d="M236.26,36.68c-4.1,0-7.42-3.32-7.42-7.42"/><path class="d" d="M228.84,130.89c0-4.1,3.32-7.42,7.42-7.42"/></g><g><path class="g" d="M236.78,114.61c4.9,0,8.87-4.06,8.87-9.06s-3.97-9.06-8.87-9.06"/><path class="g" d="M219.94,130.87c0-9.04,7.6-16.26,16.84-16.26"/><path class="g" d="M236.98,96.48c-9.42,0-17.06-7.33-17.06-16.37s7.64-16.37,17.06-16.37"/><path class="g" d="M236.78,63.73c4.9,0,8.87-4.06,8.87-9.06s-3.97-9.06-8.87-9.06"/><path class="g" d="M219.94,29.26c0,9.09,7.6,16.34,16.84,16.34"/></g><g><path class="e" d="M236.63,117.54c6.61,0,11.97-5.4,11.97-12.06s-5.36-11.98-11.97-11.98"/><path class="e" d="M222.94,130.87c0-7.41,6.13-13.33,13.69-13.33"/><path class="e" d="M236.63,93.5c-7.56,0-13.69-6.01-13.69-13.41s6.13-13.33,13.69-13.33"/><path class="e" d="M236.63,66.76c6.61,0,11.97-5.4,11.97-12.06s-5.36-12.06-11.97-12.06"/><path class="e" d="M236.63,42.63c-7.56,0-13.69-5.97-13.69-13.38"/></g><g><g><path class="e" d="M236.78,120.5c-8.14,0-14.74-6.94-14.74-15.02s6.6-14.96,14.74-14.96"/><path class="e" d="M236.78,120.5c-8.14,0-14.74-6.94-14.74-15.02s6.6-14.96,14.74-14.96"/><path class="e" d="M236.78,90.52c6.01,0,10.87-4.49,10.87-10.44s-4.87-10.31-10.87-10.31"/><path class="e" d="M247.65,130.89c0-5.95-4.87-10.39-10.87-10.39"/><path class="e" d="M236.78,69.77c-8.14,0-14.74-7.02-14.74-15.1s6.6-15.03,14.74-15.03"/><path class="e" d="M247.65,29.26c0,5.95-4.87,10.38-10.87,10.38"/></g><g><path class="g" d="M237.3,123.47c-10.01,0-18.12-8.05-18.12-17.98s8.11-17.98,18.12-17.98"/><path class="g" d="M237.3,72.65c-10.01,0-18.12-8.05-18.12-17.98s8.11-17.98,18.12-17.98"/><path class="g" d="M237.3,87.5c4.1,0,7.42-3.32,7.42-7.42s-3.32-7.42-7.42-7.42"/><path class="g" d="M237.3,36.68c4.1,0,7.42-3.32,7.42-7.42"/><path class="g" d="M244.72,130.89c0-4.1-3.32-7.42-7.42-7.42"/></g><g><path class="d" d="M236.78,114.61c-4.9,0-8.87-4.06-8.87-9.06s3.97-9.06,8.87-9.06"/><path class="d" d="M253.62,130.87c0-9.04-7.6-16.26-16.84-16.26"/><path class="d" d="M236.58,96.48c9.42,0,17.06-7.33,17.06-16.37s-7.64-16.37-17.06-16.37"/><path class="d" d="M236.78,63.73c-4.9,0-8.87-4.06-8.87-9.06s3.97-9.06,8.87-9.06"/><path class="d" d="M253.62,29.26c0,9.09-7.6,16.34-16.84,16.34"/></g><g><path class="f" d="M236.93,117.54c-6.61,0-11.97-5.4-11.97-12.06s5.36-11.98,11.97-11.98"/><path class="f" d="M250.62,130.87c0-7.41-6.13-13.33-13.69-13.33"/><path class="f" d="M236.93,93.5c7.56,0,13.69-6.01,13.69-13.41s-6.13-13.33-13.69-13.33"/><path class="f" d="M236.93,66.76c-6.61,0-11.97-5.4-11.97-12.06s5.36-12.06,11.97-12.06"/><path class="f" d="M236.93,42.63c7.56,0,13.69-5.97,13.69-13.38"/></g></g><path class="d" d="M228.84,29.26c0-6.8,5.55-12.31,12.39-12.31s12.39,5.51,12.39,12.31"/><path class="f" d="M225.83,29.26c0-6.79,5.55-12.3,12.39-12.3s12.39,5.51,12.39,12.3"/><path class="e" d="M222.93,29.27c0-6.8,5.52-12.32,12.34-12.32s12.34,5.51,12.34,12.32"/><path class="g" d="M219.96,29.32c0-6.83,5.54-12.36,12.38-12.36s12.38,5.54,12.38,12.36"/></g><path class="d" d="M253.62,130.87c0,6.84-5.55,12.39-12.39,12.39s-12.39-5.55-12.39-12.39"/><path class="f" d="M250.63,130.82c0,6.87-5.53,12.44-12.36,12.44s-12.38-5.79-12.38-12.66"/><path class="h" d="M247.69,130.8c0,6.84-5.55,12.39-12.39,12.39s-12.39-5.55-12.39-12.39"/><path class="g" d="M244.7,130.71c0,6.84-5.55,12.39-12.39,12.39s-12.39-5.55-12.39-12.39"/></g><g><g><g><path class="f" d="M151.33,120.27c8.14,0,14.74-6.94,14.74-15.02s-6.6-14.96-14.74-14.96"/><path class="f" d="M151.33,120.27c8.14,0,14.74-6.94,14.74-15.02s-6.6-14.96-14.74-14.96"/><path class="f" d="M151.33,90.29c-6.01,0-10.87-4.49-10.87-10.44s4.87-10.31,10.87-10.31"/><path class="f" d="M140.46,130.66c0-5.95,4.87-10.39,10.87-10.39"/><path class="f" d="M151.33,69.54c8.14,0,14.74-7.02,14.74-15.1s-6.6-15.03-14.74-15.03"/><path class="f" d="M140.46,29.03c0,5.95,4.87,10.38,10.87,10.38"/></g><g><path class="d" d="M150.81,123.24c10.01,0,18.12-8.05,18.12-17.98s-8.11-17.98-18.12-17.98"/><path class="d" d="M150.81,72.42c10.01,0,18.12-8.05,18.12-17.98s-8.11-17.98-18.12-17.98"/><path class="d" d="M150.81,87.27c-4.1,0-7.42-3.32-7.42-7.42s3.32-7.42,7.42-7.42"/><path class="d" d="M150.81,36.45c-4.1,0-7.42-3.32-7.42-7.42"/><path class="d" d="M143.39,130.66c0-4.1,3.32-7.42,7.42-7.42"/></g><g><path class="g" d="M151.33,114.38c4.9,0,8.87-4.06,8.87-9.06s-3.97-9.06-8.87-9.06"/><path class="g" d="M134.5,130.64c0-9.04,7.6-16.26,16.84-16.26"/><path class="g" d="M151.54,96.25c-9.42,0-17.06-7.33-17.06-16.37s7.64-16.37,17.06-16.37"/><path class="g" d="M151.33,63.5c4.9,0,8.87-4.06,8.87-9.06s-3.97-9.06-8.87-9.06"/><path class="g" d="M134.5,29.03c0,9.09,7.6,16.34,16.84,16.34"/></g><g><path class="e" d="M151.18,117.31c6.61,0,11.97-5.4,11.97-12.06s-5.36-11.98-11.97-11.98"/><path class="e" d="M137.49,130.64c0-7.41,6.13-13.33,13.69-13.33"/><path class="e" d="M151.18,93.27c-7.56,0-13.69-6.01-13.69-13.41s6.13-13.33,13.69-13.33"/><path class="e" d="M151.18,66.53c6.61,0,11.97-5.4,11.97-12.06s-5.36-12.06-11.97-12.06"/><path class="e" d="M151.18,42.4c-7.56,0-13.69-5.97-13.69-13.38"/></g><g><g><path class="e" d="M151.33,120.27c-8.14,0-14.74-6.94-14.74-15.02s6.6-14.96,14.74-14.96"/><path class="e" d="M151.33,120.27c-8.14,0-14.74-6.94-14.74-15.02s6.6-14.96,14.74-14.96"/><path class="e" d="M151.33,90.29c6.01,0,10.87-4.49,10.87-10.44s-4.87-10.31-10.87-10.31"/><path class="e" d="M162.21,130.66c0-5.95-4.87-10.39-10.87-10.39"/><path class="e" d="M151.33,69.54c-8.14,0-14.74-7.02-14.74-15.1s6.6-15.03,14.74-15.03"/><path class="e" d="M162.21,29.03c0,5.95-4.87,10.38-10.87,10.38"/></g><g><path class="g" d="M151.85,123.24c-10.01,0-18.12-8.05-18.12-17.98s8.11-17.98,18.12-17.98"/><path class="g" d="M151.85,72.42c-10.01,0-18.12-8.05-18.12-17.98s8.11-17.98,18.12-17.98"/><path class="g" d="M151.85,87.27c4.1,0,7.42-3.32,7.42-7.42s-3.32-7.42-7.42-7.42"/><path class="g" d="M151.85,36.45c4.1,0,7.42-3.32,7.42-7.42"/><path class="g" d="M159.28,130.66c0-4.1-3.32-7.42-7.42-7.42"/></g><g><path class="d" d="M151.33,114.38c-4.9,0-8.87-4.06-8.87-9.06s3.97-9.06,8.87-9.06"/><path class="d" d="M168.17,130.64c0-9.04-7.6-16.26-16.84-16.26"/><path class="d" d="M151.13,96.25c9.42,0,17.06-7.33,17.06-16.37s-7.64-16.37-17.06-16.37"/><path class="d" d="M151.33,63.5c-4.9,0-8.87-4.06-8.87-9.06s3.97-9.06,8.87-9.06"/><path class="d" d="M168.17,29.03c0,9.09-7.6,16.34-16.84,16.34"/></g><g><path class="f" d="M151.48,117.31c-6.61,0-11.97-5.4-11.97-12.06s5.36-11.98,11.97-11.98"/><path class="f" d="M165.18,130.64c0-7.41-6.13-13.33-13.69-13.33"/><path class="f" d="M151.48,93.27c7.56,0,13.69-6.01,13.69-13.41s-6.13-13.33-13.69-13.33"/><path class="f" d="M151.48,66.53c-6.61,0-11.97-5.4-11.97-12.06s5.36-12.06,11.97-12.06"/><path class="f" d="M151.48,42.4c7.56,0,13.69-5.97,13.69-13.38"/></g></g><path class="d" d="M143.39,29.03c0-6.8,5.55-12.31,12.39-12.31s12.39,5.51,12.39,12.31"/><path class="f" d="M140.38,29.03c0-6.79,5.55-12.3,12.39-12.3s12.39,5.51,12.39,12.3"/><path class="e" d="M137.48,29.04c0-6.8,5.52-12.32,12.34-12.32s12.34,5.51,12.34,12.32"/><path class="g" d="M134.51,29.08c0-6.83,5.54-12.36,12.38-12.36s12.38,5.54,12.38,12.36"/></g><path class="d" d="M168.17,130.64c0,6.84-5.55,12.39-12.39,12.39s-12.39-5.55-12.39-12.39"/><path class="f" d="M165.18,130.59c0,6.87-5.53,12.44-12.36,12.44s-12.38-5.79-12.38-12.66"/><path class="h" d="M162.25,130.57c0,6.84-5.55,12.39-12.39,12.39s-12.39-5.55-12.39-12.39"/><path class="g" d="M159.25,130.48c0,6.84-5.55,12.39-12.39,12.39s-12.39-5.55-12.39-12.39"/></g><g><g><g><path class="f" d="M107.62,133.9c8.14,0,14.74-6.94,14.74-15.02s-6.6-14.96-14.74-14.96"/><path class="f" d="M107.62,133.9c8.14,0,14.74-6.94,14.74-15.02s-6.6-14.96-14.74-14.96"/><path class="f" d="M107.62,103.91c-6.01,0-10.87-4.49-10.87-10.44s4.87-10.31,10.87-10.31"/><path class="f" d="M96.75,144.29c0-5.95,4.87-10.39,10.87-10.39"/><path class="f" d="M107.62,83.16c8.14,0,14.74-7.02,14.74-15.1s-6.6-15.03-14.74-15.03"/><path class="f" d="M96.75,42.65c0,5.95,4.87,10.38,10.87,10.38"/></g><g><path class="d" d="M107.1,136.86c10.01,0,18.12-8.05,18.12-17.98s-8.11-17.98-18.12-17.98"/><path class="d" d="M107.1,86.05c10.01,0,18.12-8.05,18.12-17.98s-8.11-17.98-18.12-17.98"/><path class="d" d="M107.1,100.89c-4.1,0-7.42-3.32-7.42-7.42s3.32-7.42,7.42-7.42"/><path class="d" d="M107.1,50.08c-4.1,0-7.42-3.32-7.42-7.42"/><path class="d" d="M99.68,144.29c0-4.1,3.32-7.42,7.42-7.42"/></g><g><path class="g" d="M107.62,128c4.9,0,8.87-4.06,8.87-9.06s-3.97-9.06-8.87-9.06"/><path class="g" d="M90.79,144.27c0-9.04,7.6-16.26,16.84-16.26"/><path class="g" d="M107.83,109.87c-9.42,0-17.06-7.33-17.06-16.37s7.64-16.37,17.06-16.37"/><path class="g" d="M107.62,77.13c4.9,0,8.87-4.06,8.87-9.06s-3.97-9.06-8.87-9.06"/><path class="g" d="M90.79,42.65c0,9.09,7.6,16.34,16.84,16.34"/></g><g><path class="e" d="M107.47,130.94c6.61,0,11.97-5.4,11.97-12.06s-5.36-11.98-11.97-11.98"/><path class="e" d="M93.78,144.27c0-7.41,6.13-13.33,13.69-13.33"/><path class="e" d="M107.47,106.9c-7.56,0-13.69-6.01-13.69-13.41s6.13-13.33,13.69-13.33"/><path class="e" d="M107.47,80.16c6.61,0,11.97-5.4,11.97-12.06s-5.36-12.06-11.97-12.06"/><path class="e" d="M107.47,56.03c-7.56,0-13.69-5.97-13.69-13.38"/></g><g><g><path class="e" d="M107.62,133.9c-8.14,0-14.74-6.94-14.74-15.02s6.6-14.96,14.74-14.96"/><path class="e" d="M107.62,133.9c-8.14,0-14.74-6.94-14.74-15.02s6.6-14.96,14.74-14.96"/><path class="e" d="M107.62,103.91c6.01,0,10.87-4.49,10.87-10.44s-4.87-10.31-10.87-10.31"/><path class="e" d="M118.5,144.29c0-5.95-4.87-10.39-10.87-10.39"/><path class="e" d="M107.62,83.16c-8.14,0-14.74-7.02-14.74-15.1s6.6-15.03,14.74-15.03"/><path class="e" d="M118.5,42.65c0,5.95-4.87,10.38-10.87,10.38"/></g><g><path class="g" d="M108.14,136.86c-10.01,0-18.12-8.05-18.12-17.98s8.11-17.98,18.12-17.98"/><path class="g" d="M108.14,86.05c-10.01,0-18.12-8.05-18.12-17.98s8.11-17.98,18.12-17.98"/><path class="g" d="M108.14,100.89c4.1,0,7.42-3.32,7.42-7.42s-3.32-7.42-7.42-7.42"/><path class="g" d="M108.14,50.08c4.1,0,7.42-3.32,7.42-7.42"/><path class="g" d="M115.57,144.29c0-4.1-3.32-7.42-7.42-7.42"/></g><g><path class="d" d="M107.62,128c-4.9,0-8.87-4.06-8.87-9.06s3.97-9.06,8.87-9.06"/><path class="d" d="M124.46,144.27c0-9.04-7.6-16.26-16.84-16.26"/><path class="d" d="M107.42,109.87c9.42,0,17.06-7.33,17.06-16.37s-7.64-16.37-17.06-16.37"/><path class="d" d="M107.62,77.13c-4.9,0-8.87-4.06-8.87-9.06s3.97-9.06,8.87-9.06"/><path class="d" d="M124.46,42.65c0,9.09-7.6,16.34-16.84,16.34"/></g><g><path class="f" d="M107.77,130.94c-6.61,0-11.97-5.4-11.97-12.06s5.36-11.98,11.97-11.98"/><path class="f" d="M121.47,144.27c0-7.41-6.13-13.33-13.69-13.33"/><path class="f" d="M107.77,106.9c7.56,0,13.69-6.01,13.69-13.41s-6.13-13.33-13.69-13.33"/><path class="f" d="M107.77,80.16c-6.61,0-11.97-5.4-11.97-12.06s5.36-12.06,11.97-12.06"/><path class="f" d="M107.77,56.03c7.56,0,13.69-5.97,13.69-13.38"/></g></g><path class="d" d="M99.68,42.65c0-6.8,5.55-12.31,12.39-12.31s12.39,5.51,12.39,12.31"/><path class="f" d="M96.67,42.65c0-6.79,5.55-12.3,12.39-12.3s12.39,5.51,12.39,12.3"/><path class="e" d="M93.77,42.66c0-6.8,5.52-12.32,12.34-12.32s12.34,5.51,12.34,12.32"/><path class="g" d="M90.8,42.71c0-6.83,5.54-12.36,12.38-12.36s12.38,5.54,12.38,12.36"/></g><path class="d" d="M124.46,144.27c0,6.84-5.55,12.39-12.39,12.39s-12.39-5.55-12.39-12.39"/><path class="f" d="M121.47,144.21c0,6.87-5.53,12.44-12.36,12.44s-12.38-5.79-12.38-12.66"/><path class="h" d="M118.53,144.2c0,6.84-5.55,12.39-12.39,12.39s-12.39-5.55-12.39-12.39"/><path class="g" d="M115.54,144.11c0,6.84-5.55,12.39-12.39,12.39s-12.39-5.55-12.39-12.39"/></g><g><g><g><path class="f" d="M64.42,123.56c8.14,0,14.74-6.94,14.74-15.02s-6.6-14.96-14.74-14.96"/><path class="f" d="M64.42,123.56c8.14,0,14.74-6.94,14.74-15.02s-6.6-14.96-14.74-14.96"/><path class="f" d="M64.42,93.58c-6.01,0-10.87-4.49-10.87-10.44s4.87-10.31,10.87-10.31"/><path class="f" d="M53.55,133.95c0-5.95,4.87-10.39,10.87-10.39"/><path class="f" d="M64.42,72.82c8.14,0,14.74-7.02,14.74-15.1s-6.6-15.03-14.74-15.03"/><path class="f" d="M53.55,32.32c0,5.95,4.87,10.38,10.87,10.38"/></g><g><path class="d" d="M63.9,126.52c10.01,0,18.12-8.05,18.12-17.98s-8.11-17.98-18.12-17.98"/><path class="d" d="M63.9,75.71c10.01,0,18.12-8.05,18.12-17.98s-8.11-17.98-18.12-17.98"/><path class="d" d="M63.9,90.56c-4.1,0-7.42-3.32-7.42-7.42s3.32-7.42,7.42-7.42"/><path class="d" d="M63.9,39.74c-4.1,0-7.42-3.32-7.42-7.42"/><path class="d" d="M56.48,133.95c0-4.1,3.32-7.42,7.42-7.42"/></g><g><path class="g" d="M64.42,117.66c4.9,0,8.87-4.06,8.87-9.06s-3.97-9.06-8.87-9.06"/><path class="g" d="M47.59,133.93c0-9.04,7.6-16.26,16.84-16.26"/><path class="g" d="M64.63,99.53c-9.42,0-17.06-7.33-17.06-16.37s7.64-16.37,17.06-16.37"/><path class="g" d="M64.42,66.79c4.9,0,8.87-4.06,8.87-9.06s-3.97-9.06-8.87-9.06"/><path class="g" d="M47.59,32.32c0,9.09,7.6,16.34,16.84,16.34"/></g><g><path class="e" d="M64.27,120.6c6.61,0,11.97-5.4,11.97-12.06s-5.36-11.98-11.97-11.98"/><path class="e" d="M50.58,133.93c0-7.41,6.13-13.33,13.69-13.33"/><path class="e" d="M64.27,96.56c-7.56,0-13.69-6.01-13.69-13.41s6.13-13.33,13.69-13.33"/><path class="e" d="M64.27,69.82c6.61,0,11.97-5.4,11.97-12.06s-5.36-12.06-11.97-12.06"/><path class="e" d="M64.27,45.69c-7.56,0-13.69-5.97-13.69-13.38"/></g><g><g><path class="e" d="M64.42,123.56c-8.14,0-14.74-6.94-14.74-15.02s6.6-14.96,14.74-14.96"/><path class="e" d="M64.42,123.56c-8.14,0-14.74-6.94-14.74-15.02s6.6-14.96,14.74-14.96"/><path class="e" d="M64.42,93.58c6.01,0,10.87-4.49,10.87-10.44s-4.87-10.31-10.87-10.31"/><path class="e" d="M75.3,133.95c0-5.95-4.87-10.39-10.87-10.39"/><path class="e" d="M64.42,72.82c-8.14,0-14.74-7.02-14.74-15.1s6.6-15.03,14.74-15.03"/><path class="e" d="M75.3,32.32c0,5.95-4.87,10.38-10.87,10.38"/></g><g><path class="g" d="M64.94,126.52c-10.01,0-18.12-8.05-18.12-17.98s8.11-17.98,18.12-17.98"/><path class="g" d="M64.94,75.71c-10.01,0-18.12-8.05-18.12-17.98s8.11-17.98,18.12-17.98"/><path class="g" d="M64.94,90.56c4.1,0,7.42-3.32,7.42-7.42s-3.32-7.42-7.42-7.42"/><path class="g" d="M64.94,39.74c4.1,0,7.42-3.32,7.42-7.42"/><path class="g" d="M72.37,133.95c0-4.1-3.32-7.42-7.42-7.42"/></g><g><path class="d" d="M64.42,117.66c-4.9,0-8.87-4.06-8.87-9.06s3.97-9.06,8.87-9.06"/><path class="d" d="M81.26,133.93c0-9.04-7.6-16.26-16.84-16.26"/><path class="d" d="M64.22,99.53c9.42,0,17.06-7.33,17.06-16.37s-7.64-16.37-17.06-16.37"/><path class="d" d="M64.42,66.79c-4.9,0-8.87-4.06-8.87-9.06s3.97-9.06,8.87-9.06"/><path class="d" d="M81.26,32.32c0,9.09-7.6,16.34-16.84,16.34"/></g><g><path class="f" d="M64.57,120.6c-6.61,0-11.97-5.4-11.97-12.06s5.36-11.98,11.97-11.98"/><path class="f" d="M78.27,133.93c0-7.41-6.13-13.33-13.69-13.33"/><path class="f" d="M64.57,96.56c7.56,0,13.69-6.01,13.69-13.41s-6.13-13.33-13.69-13.33"/><path class="f" d="M64.57,69.82c-6.61,0-11.97-5.4-11.97-12.06s5.36-12.06,11.97-12.06"/><path class="f" d="M64.57,45.69c7.56,0,13.69-5.97,13.69-13.38"/></g></g><path class="d" d="M56.48,32.32c0-6.8,5.55-12.31,12.39-12.31s12.39,5.51,12.39,12.31"/><path class="f" d="M53.47,32.32c0-6.79,5.55-12.3,12.39-12.3s12.39,5.51,12.39,12.3"/><path class="e" d="M50.57,32.33c0-6.8,5.52-12.32,12.34-12.32s12.34,5.51,12.34,12.32"/><path class="g" d="M47.6,32.37c0-6.83,5.54-12.36,12.38-12.36s12.38,5.54,12.38,12.36"/></g><path class="d" d="M81.26,133.93c0,6.84-5.55,12.39-12.39,12.39s-12.39-5.55-12.39-12.39"/><path class="f" d="M78.27,133.87c0,6.87-5.53,12.44-12.36,12.44s-12.38-5.79-12.38-12.66"/><path class="h" d="M75.34,133.86c0,6.84-5.55,12.39-12.39,12.39s-12.39-5.55-12.39-12.39"/><path class="g" d="M72.34,133.77c0,6.84-5.55,12.39-12.39,12.39s-12.39-5.55-12.39-12.39"/></g><g><g><g><path class="f" d="M19.1,105.05c8.14,0,14.74-6.94,14.74-15.02s-6.6-14.96-14.74-14.96"/><path class="f" d="M19.1,105.05c8.14,0,14.74-6.94,14.74-15.02s-6.6-14.96-14.74-14.96"/><path class="f" d="M19.1,75.07c-6.01,0-10.87-4.49-10.87-10.44s4.87-10.31,10.87-10.31"/><path class="f" d="M8.23,115.44c0-5.95,4.87-10.39,10.87-10.39"/><path class="f" d="M19.1,54.32c8.14,0,14.74-7.02,14.74-15.1s-6.6-15.03-14.74-15.03"/><path class="f" d="M8.23,13.81c0,5.95,4.87,10.38,10.87,10.38"/></g><g><path class="d" d="M18.58,108.02c10.01,0,18.12-8.05,18.12-17.98s-8.11-17.98-18.12-17.98"/><path class="d" d="M18.58,57.2c10.01,0,18.12-8.05,18.12-17.98s-8.11-17.98-18.12-17.98"/><path class="d" d="M18.58,72.05c-4.1,0-7.42-3.32-7.42-7.42s3.32-7.42,7.42-7.42"/><path class="d" d="M18.58,21.23c-4.1,0-7.42-3.32-7.42-7.42"/><path class="d" d="M11.16,115.44c0-4.1,3.32-7.42,7.42-7.42"/></g><g><path class="g" d="M19.1,99.16c4.9,0,8.87-4.06,8.87-9.06s-3.97-9.06-8.87-9.06"/><path class="g" d="M2.26,115.42c0-9.04,7.6-16.26,16.84-16.26"/><path class="g" d="M19.3,81.03c-9.42,0-17.06-7.33-17.06-16.37s7.64-16.37,17.06-16.37"/><path class="g" d="M19.1,48.28c4.9,0,8.87-4.06,8.87-9.06s-3.97-9.06-8.87-9.06"/><path class="g" d="M2.26,13.81c0,9.09,7.6,16.34,16.84,16.34"/></g><g><path class="e" d="M18.95,102.09c6.61,0,11.97-5.4,11.97-12.06s-5.36-11.98-11.97-11.98"/><path class="e" d="M5.26,115.42c0-7.41,6.13-13.33,13.69-13.33"/><path class="e" d="M18.95,78.05c-7.56,0-13.69-6.01-13.69-13.41s6.13-13.33,13.69-13.33"/><path class="e" d="M18.95,51.31c6.61,0,11.97-5.4,11.97-12.06s-5.36-12.06-11.97-12.06"/><path class="e" d="M18.95,27.18c-7.56,0-13.69-5.97-13.69-13.38"/></g><g><g><path class="e" d="M19.1,105.05c-8.14,0-14.74-6.94-14.74-15.02s6.6-14.96,14.74-14.96"/><path class="e" d="M19.1,105.05c-8.14,0-14.74-6.94-14.74-15.02s6.6-14.96,14.74-14.96"/><path class="e" d="M19.1,75.07c6.01,0,10.87-4.49,10.87-10.44s-4.87-10.31-10.87-10.31"/><path class="e" d="M29.98,115.44c0-5.95-4.87-10.39-10.87-10.39"/><path class="e" d="M19.1,54.32c-8.14,0-14.74-7.02-14.74-15.1s6.6-15.03,14.74-15.03"/><path class="e" d="M29.98,13.81c0,5.95-4.87,10.38-10.87,10.38"/></g><g><path class="g" d="M19.62,108.02c-10.01,0-18.12-8.05-18.12-17.98s8.11-17.98,18.12-17.98"/><path class="g" d="M19.62,57.2c-10.01,0-18.12-8.05-18.12-17.98S9.61,21.23,19.62,21.23"/><path class="g" d="M19.62,72.05c4.1,0,7.42-3.32,7.42-7.42s-3.32-7.42-7.42-7.42"/><path class="g" d="M19.62,21.23c4.1,0,7.42-3.32,7.42-7.42"/><path class="g" d="M27.05,115.44c0-4.1-3.32-7.42-7.42-7.42"/></g><g><path class="d" d="M19.1,99.16c-4.9,0-8.87-4.06-8.87-9.06s3.97-9.06,8.87-9.06"/><path class="d" d="M35.94,115.42c0-9.04-7.6-16.26-16.84-16.26"/><path class="d" d="M18.9,81.03c9.42,0,17.06-7.33,17.06-16.37s-7.64-16.37-17.06-16.37"/><path class="d" d="M19.1,48.28c-4.9,0-8.87-4.06-8.87-9.06s3.97-9.06,8.87-9.06"/><path class="d" d="M35.94,13.81c0,9.09-7.6,16.34-16.84,16.34"/></g><g><path class="f" d="M19.25,102.09c-6.61,0-11.97-5.4-11.97-12.06s5.36-11.98,11.97-11.98"/><path class="f" d="M32.95,115.42c0-7.41-6.13-13.33-13.69-13.33"/><path class="f" d="M19.25,78.05c7.56,0,13.69-6.01,13.69-13.41s-6.13-13.33-13.69-13.33"/><path class="f" d="M19.25,51.31c-6.61,0-11.97-5.4-11.97-12.06s5.36-12.06,11.97-12.06"/><path class="f" d="M19.25,27.18c7.56,0,13.69-5.97,13.69-13.38"/></g></g><path class="d" d="M11.16,13.81c0-6.8,5.55-12.31,12.39-12.31s12.39,5.51,12.39,12.31"/><path class="f" d="M8.15,13.81C8.15,7.01,13.7,1.51,20.54,1.51s12.39,5.51,12.39,12.3"/><path class="e" d="M5.25,13.82C5.25,7.01,10.77,1.5,17.59,1.5s12.34,5.51,12.34,12.32"/><path class="g" d="M2.28,13.86C2.28,7.04,7.82,1.5,14.66,1.5s12.38,5.54,12.38,12.36"/></g><path class="d" d="M35.94,115.42c0,6.84-5.55,12.39-12.39,12.39s-12.39-5.55-12.39-12.39"/><path class="f" d="M32.95,115.36c0,6.87-5.53,12.44-12.36,12.44s-12.38-5.79-12.38-12.66"/><path class="h" d="M30.01,115.35c0,6.84-5.55,12.39-12.39,12.39s-12.39-5.55-12.39-12.39"/><path class="g" d="M27.02,115.26c0,6.84-5.55,12.39-12.39,12.39s-12.39-5.55-12.39-12.39"/></g><g><g><g><path class="f" d="M194.02,107.93c8.14,0,14.74-6.94,14.74-15.02s-6.6-14.96-14.74-14.96"/><path class="f" d="M194.02,107.93c8.14,0,14.74-6.94,14.74-15.02s-6.6-14.96-14.74-14.96"/><path class="f" d="M194.02,77.95c-6.01,0-10.87-4.49-10.87-10.44s4.87-10.31,10.87-10.31"/><path class="f" d="M183.14,118.32c0-5.95,4.87-10.39,10.87-10.39"/><path class="f" d="M194.02,57.2c8.14,0,14.74-7.02,14.74-15.1s-6.6-15.03-14.74-15.03"/><path class="f" d="M183.14,16.69c0,5.95,4.87,10.38,10.87,10.38"/></g><g><path class="d" d="M193.5,110.9c10.01,0,18.12-8.05,18.12-17.98s-8.11-17.98-18.12-17.98"/><path class="d" d="M193.5,60.09c10.01,0,18.12-8.05,18.12-17.98s-8.11-17.98-18.12-17.98"/><path class="d" d="M193.5,74.93c-4.1,0-7.42-3.32-7.42-7.42s3.32-7.42,7.42-7.42"/><path class="d" d="M193.5,24.12c-4.1,0-7.42-3.32-7.42-7.42"/><path class="d" d="M186.07,118.32c0-4.1,3.32-7.42,7.42-7.42"/></g><g><path class="g" d="M194.02,102.04c4.9,0,8.87-4.06,8.87-9.06s-3.97-9.06-8.87-9.06"/><path class="g" d="M177.18,118.3c0-9.04,7.6-16.26,16.84-16.26"/><path class="g" d="M194.22,83.91c-9.42,0-17.06-7.33-17.06-16.37s7.64-16.37,17.06-16.37"/><path class="g" d="M194.02,51.17c4.9,0,8.87-4.06,8.87-9.06s-3.97-9.06-8.87-9.06"/><path class="g" d="M177.18,16.69c0,9.09,7.6,16.34,16.84,16.34"/></g><g><path class="e" d="M193.87,104.98c6.61,0,11.97-5.4,11.97-12.06s-5.36-11.98-11.97-11.98"/><path class="e" d="M180.17,118.3c0-7.41,6.13-13.33,13.69-13.33"/><path class="e" d="M193.87,80.93c-7.56,0-13.69-6.01-13.69-13.41s6.13-13.33,13.69-13.33"/><path class="e" d="M193.87,54.19c6.61,0,11.97-5.4,11.97-12.06s-5.36-12.06-11.97-12.06"/><path class="e" d="M193.87,30.06c-7.56,0-13.69-5.97-13.69-13.38"/></g><g><g><path class="e" d="M194.02,107.93c-8.14,0-14.74-6.94-14.74-15.02s6.6-14.96,14.74-14.96"/><path class="e" d="M194.02,107.93c-8.14,0-14.74-6.94-14.74-15.02s6.6-14.96,14.74-14.96"/><path class="e" d="M194.02,77.95c6.01,0,10.87-4.49,10.87-10.44s-4.87-10.31-10.87-10.31"/><path class="e" d="M204.89,118.32c0-5.95-4.87-10.39-10.87-10.39"/><path class="e" d="M194.02,57.2c-8.14,0-14.74-7.02-14.74-15.1s6.6-15.03,14.74-15.03"/><path class="e" d="M204.89,16.69c0,5.95-4.87,10.38-10.87,10.38"/></g><g><path class="g" d="M194.54,110.9c-10.01,0-18.12-8.05-18.12-17.98s8.11-17.98,18.12-17.98"/><path class="g" d="M194.54,60.09c-10.01,0-18.12-8.05-18.12-17.98s8.11-17.98,18.12-17.98"/><path class="g" d="M194.54,74.93c4.1,0,7.42-3.32,7.42-7.42s-3.32-7.42-7.42-7.42"/><path class="g" d="M194.54,24.12c4.1,0,7.42-3.32,7.42-7.42"/><path class="g" d="M201.96,118.32c0-4.1-3.32-7.42-7.42-7.42"/></g><g><path class="d" d="M194.02,102.04c-4.9,0-8.87-4.06-8.87-9.06s3.97-9.06,8.87-9.06"/><path class="d" d="M210.85,118.3c0-9.04-7.6-16.26-16.84-16.26"/><path class="d" d="M193.81,83.91c9.42,0,17.06-7.33,17.06-16.37s-7.64-16.37-17.06-16.37"/><path class="d" d="M194.02,51.17c-4.9,0-8.87-4.06-8.87-9.06s3.97-9.06,8.87-9.06"/><path class="d" d="M210.85,16.69c0,9.09-7.6,16.34-16.84,16.34"/></g><g><path class="f" d="M194.17,104.98c-6.61,0-11.97-5.4-11.97-12.06s5.36-11.98,11.97-11.98"/><path class="f" d="M207.86,118.3c0-7.41-6.13-13.33-13.69-13.33"/><path class="f" d="M194.17,80.93c7.56,0,13.69-6.01,13.69-13.41s-6.13-13.33-13.69-13.33"/><path class="f" d="M194.17,54.19c-6.61,0-11.97-5.4-11.97-12.06s5.36-12.06,11.97-12.06"/><path class="f" d="M194.17,30.06c7.56,0,13.69-5.97,13.69-13.38"/></g></g><path class="d" d="M186.07,16.69c0-6.8,5.55-12.31,12.39-12.31s12.39,5.51,12.39,12.31"/><path class="f" d="M183.07,16.69c0-6.79,5.55-12.3,12.39-12.3s12.39,5.51,12.39,12.3"/><path class="e" d="M180.17,16.7c0-6.8,5.52-12.32,12.34-12.32s12.34,5.51,12.34,12.32"/><path class="g" d="M177.19,16.75c0-6.83,5.54-12.36,12.38-12.36s12.38,5.54,12.38,12.36"/></g><path class="d" d="M210.85,118.3c0,6.84-5.55,12.39-12.39,12.39s-12.39-5.55-12.39-12.39"/><path class="f" d="M207.86,118.25c0,6.87-5.53,12.44-12.36,12.44s-12.38-5.79-12.38-12.66"/><path class="h" d="M204.93,118.24c0,6.84-5.55,12.39-12.39,12.39s-12.39-5.55-12.39-12.39"/><path class="g" d="M201.93,118.14c0,6.84-5.55,12.39-12.39,12.39s-12.39-5.55-12.39-12.39"/></g></g></g></svg>