<?xml version="1.0" encoding="UTF-8"?><svg xmlns="http://www.w3.org/2000/svg" viewBox="0 0 99.61 43.58"><defs><style>.d{fill:#fff;}</style></defs><g id="a"/><g id="b"><g id="c"><g><g><path class="d" d="M15.34,9.59h1.87l8.32,18.67h-2.72l-2.47-5.5h-7.92l-2.32,5.5h-2.73L15.34,9.59Zm3.9,10.8l-2.99-6.72-2.78,6.72h5.77Z"/><path class="d" d="M41.92,9.69h2.48V28.26h-2.67V13.81l-5.71,7.18h-.49l-5.77-7.18v14.44h-2.66V9.69h2.52l6.17,7.62,6.13-7.62Z"/><path class="d" d="M53.87,28.26h-6.29V9.69h4.86c1.53,0,2.73,.21,3.59,.62s1.51,.98,1.97,1.7c.45,.72,.68,1.56,.68,2.5,0,1.83-.94,3.13-2.83,3.92,1.36,.26,2.43,.82,3.24,1.67,.8,.86,1.2,1.89,1.2,3.08,0,.95-.24,1.79-.73,2.54s-1.2,1.35-2.15,1.82-2.12,.7-3.54,.7Zm-1.34-16.2h-2.29v5.58h1.77c1.42,0,2.42-.27,3.02-.81,.6-.54,.9-1.24,.9-2.1,0-1.78-1.13-2.67-3.4-2.67Zm.2,7.95h-2.48v5.89h2.62c1.45,0,2.44-.11,2.96-.34s.93-.58,1.25-1.06,.47-.99,.47-1.54-.17-1.09-.5-1.55c-.33-.47-.8-.82-1.42-1.05-.61-.23-1.58-.35-2.9-.35Z"/><path class="d" d="M62.77,9.69h10.52v2.37h-7.87v5.66h7.6v2.38h-7.6v5.77h8.12v2.37h-10.78V9.69Z"/><path class="d" d="M77,28.26V9.69h4.65c1.88,0,3.37,.47,4.47,1.4s1.65,2.19,1.65,3.77c0,1.08-.27,2.02-.81,2.8-.54,.79-1.17,1.37-2.17,1.93l4.7,8.67h-3.16l-4.13-8.08s-.99,0-1.86,0h-.69v8.08h-2.66Zm3.45-16.3h-.8v5.86h1.01c1.35,0,2.27-.11,2.77-.35,.5-.23,.89-.58,1.17-1.04s.42-.99,.42-1.59-.16-1.11-.47-1.59c-.31-.47-.75-.81-1.31-1-.56-.19-1.49-.29-2.8-.29Z"/></g><g><path class="d" d="M44.98,31.95v2.81h-.77v-2.15c0-.43-.06-.73-.17-.9-.12-.17-.32-.25-.6-.25-.16,0-.31,.04-.44,.11-.13,.07-.29,.2-.46,.39v2.81h-.77v-3.87h.77v.51c.39-.39,.77-.59,1.14-.59,.49,0,.87,.23,1.14,.7,.41-.47,.84-.71,1.28-.71,.38,0,.69,.14,.93,.41,.24,.28,.36,.69,.36,1.26v2.28h-.77v-2.29c0-.32-.07-.57-.2-.74-.13-.17-.32-.26-.57-.26-.32,0-.61,.16-.89,.48Z"/><path class="d" d="M50.42,30.89c.59,0,1.08,.19,1.47,.57,.39,.38,.58,.86,.58,1.43s-.2,1.02-.59,1.39-.89,.55-1.49,.55-1.07-.19-1.46-.56c-.39-.37-.58-.84-.58-1.4s.2-1.04,.59-1.42c.39-.38,.89-.57,1.48-.57Zm-.04,.69c-.37,0-.67,.12-.9,.36s-.35,.55-.35,.92,.12,.67,.36,.91c.24,.23,.55,.35,.93,.35s.68-.12,.92-.36c.24-.24,.36-.54,.36-.91s-.12-.67-.37-.91c-.25-.24-.56-.36-.94-.36Z"/><path class="d" d="M55.81,30.89h.83l-1.71,3.94h-.26l-1.75-3.94h.84l1.04,2.38,1.01-2.38Z"/><path class="d" d="M57.72,29.27c.13,0,.23,.04,.32,.13s.13,.19,.13,.32-.04,.23-.13,.32-.2,.13-.32,.13c-.12,0-.22-.05-.31-.14-.09-.09-.13-.2-.13-.32s.04-.22,.13-.31c.09-.09,.19-.14,.31-.14Zm-.38,1.63h.77v3.87h-.77v-3.87Z"/><path class="d" d="M60.09,30.89v.49c.34-.38,.73-.57,1.17-.57,.24,0,.47,.06,.67,.19s.37,.3,.47,.51,.16,.56,.16,1.03v2.21h-.77v-2.2c0-.4-.06-.68-.18-.85s-.32-.25-.61-.25c-.36,0-.67,.18-.92,.54v2.76h-.78v-3.87h.78Z"/><path class="d" d="M63.54,32.23c0-.41,.15-.74,.45-.98,.3-.24,.71-.36,1.24-.36h1.59v.6h-.78c.15,.15,.26,.29,.32,.42s.09,.27,.09,.43c0,.2-.06,.4-.17,.6-.12,.19-.26,.34-.44,.45-.18,.1-.48,.19-.89,.25-.29,.04-.43,.14-.43,.3,0,.09,.05,.16,.16,.22,.11,.06,.3,.12,.59,.18,.47,.1,.78,.19,.92,.24s.26,.14,.37,.25c.19,.19,.28,.42,.28,.7,0,.37-.16,.66-.49,.88-.33,.22-.76,.33-1.31,.33s-.99-.11-1.32-.33c-.33-.22-.49-.52-.49-.89,0-.52,.32-.86,.97-1.01-.26-.17-.39-.33-.39-.49,0-.12,.06-.24,.17-.34s.26-.18,.45-.22c-.57-.25-.85-.66-.85-1.22Zm1.26,2.71c-.26,0-.47,.05-.63,.16-.16,.11-.25,.25-.25,.42,0,.4,.36,.6,1.08,.6,.34,0,.6-.05,.79-.15,.19-.1,.28-.24,.28-.42s-.12-.33-.35-.44c-.24-.11-.54-.17-.91-.17Zm.18-3.39c-.21,0-.38,.07-.53,.21s-.22,.31-.22,.5,.07,.36,.21,.49c.14,.13,.32,.2,.54,.2s.4-.07,.54-.2,.22-.3,.22-.5-.07-.37-.22-.5-.33-.2-.55-.2Z"/><path class="d" d="M73.21,31.95v2.81h-.77v-2.15c0-.43-.06-.73-.17-.9s-.32-.25-.6-.25c-.16,0-.31,.04-.44,.11s-.29,.2-.46,.39v2.81h-.77v-3.87h.77v.51c.39-.39,.77-.59,1.14-.59,.49,0,.87,.23,1.14,.7,.41-.47,.84-.71,1.28-.71,.38,0,.69,.14,.93,.41s.36,.69,.36,1.26v2.28h-.77v-2.29c0-.32-.07-.57-.2-.74-.13-.17-.32-.26-.57-.26-.32,0-.61,.16-.89,.48Z"/><path class="d" d="M79.26,34.77v-.5c-.16,.18-.35,.32-.56,.42s-.42,.15-.62,.15c-.24,0-.47-.06-.68-.18-.21-.12-.36-.29-.47-.5-.11-.21-.16-.56-.16-1.04v-2.22h.77v2.21c0,.41,.06,.69,.17,.85,.12,.16,.32,.24,.61,.24,.36,0,.67-.18,.93-.53v-2.76h.77v3.87h-.77Z"/><path class="d" d="M81.03,34.49v-.82c.22,.15,.44,.27,.66,.37,.23,.09,.42,.14,.57,.14s.3-.04,.41-.12c.11-.08,.17-.17,.17-.28s-.04-.21-.11-.28-.23-.18-.48-.32c-.49-.28-.82-.51-.97-.71-.15-.19-.23-.41-.23-.64,0-.3,.12-.54,.35-.73,.23-.19,.53-.28,.89-.28s.77,.11,1.17,.32v.76c-.45-.28-.83-.41-1.11-.41-.15,0-.27,.03-.36,.09-.09,.06-.14,.15-.14,.25,0,.09,.04,.18,.12,.26,.08,.08,.23,.18,.44,.29l.27,.16c.65,.36,.97,.77,.97,1.21,0,.32-.12,.58-.37,.78-.25,.2-.57,.3-.96,.3-.23,0-.43-.02-.61-.07-.18-.05-.41-.14-.68-.27Z"/><path class="d" d="M85.04,29.27c.13,0,.23,.04,.32,.13,.09,.09,.13,.19,.13,.32s-.05,.23-.13,.32c-.09,.09-.2,.13-.32,.13-.12,0-.22-.05-.31-.14-.09-.09-.13-.2-.13-.32s.04-.22,.13-.31c.09-.09,.19-.14,.31-.14Zm-.38,1.63h.77v3.87h-.77v-3.87Z"/><path class="d" d="M89.55,33.86v.76c-.38,.14-.76,.21-1.13,.21-.61,0-1.09-.18-1.45-.54-.36-.36-.54-.84-.54-1.44s.18-1.1,.53-1.47c.35-.37,.81-.56,1.38-.56,.2,0,.38,.02,.54,.06,.16,.04,.35,.11,.59,.21v.82c-.39-.25-.75-.37-1.08-.37s-.63,.12-.85,.36c-.22,.24-.33,.55-.33,.93,0,.4,.12,.71,.36,.94,.24,.23,.56,.35,.97,.35,.29,0,.63-.09,1.01-.26Z"/></g><path class="d" d="M98.96,.66V42.92H.66V.66H98.96m.66-.66H0V43.58H99.61V0h0Z"/></g></g></g></svg>